ply
format ascii 1.0
comment Created by CloudCompare v2.11 alpha (Anoia)
comment Created 15/04/2019 12:59
obj_info Generated by CloudCompare!
element vertex 555
property float x
property float y
property float z
element face 1150
property list uchar int vertex_indices
end_header
-0.0106058 -0.0110014 0.0654 
0 -0.022345 0.0654 
-0.0100106 -0.0105905 0.0654 
-0.00953105 -0.0100492 0.0654 
-0.00919495 -0.00940881 0.0654 
-0.00902187 -0.00870661 0.0654 
-0.00677238 -9.08154e-18 0.0654 
-0.00699245 -0.000636973 0.0654 
0 9.41469e-18 0.0654 
-0.0112821 -0.0112578 0.0654 
-0.00734916 -0.00120875 0.0654 
-0.018 1.34115e-17 0.0654 
-0.0149781 -0.00798339 0.0654 
-0.014805 -0.00728119 0.0654 
-0.0097 -0.002345 0.0654 
-0.0100106 -0.00609947 0.0654 
-0.00903035 -0.00226931 0.0654 
-0.00839448 -0.00204604 0.0654 
-0.018 -0.022345 0.0654 
-0.012 -0.011345 0.0654 
-0.014805 -0.00940881 0.0654 
-0.014469 -0.0100492 0.0654 
-0.0139894 -0.0105905 0.0654 
-0.0133942 -0.0110014 0.0654 
-0.0127179 -0.0112578 0.0654 
-0.00953105 -0.00664081 0.0654 
-0.0078245 -0.00168647 0.0654 
-0.0149781 -0.00870661 0.0654 
-0.0103697 -0.00226931 0.0654 
-0.0106058 -0.00568863 0.0654 
-0.00919495 -0.00728119 0.0654 
-0.0110055 -0.00204604 0.0654 
-0.0112821 -0.00543218 0.0654 
-0.00902187 -0.00798339 0.0654 
-0.0115755 -0.00168647 0.0654 
-0.012 -0.005345 0.0654 
-0.0126276 -8.78141e-18 0.0654 
-0.0124075 -0.000636973 0.0654 
-0.0120508 -0.00120875 0.0654 
-0.0127179 -0.00543218 0.0654 
-0.0133942 -0.00568863 0.0654 
-0.0139894 -0.00609947 0.0654 
-0.014469 -0.00664081 0.0654 
-0.018 -0.04603 0.02408 
-0.018 -0.04403 0.00952 
-0.018 -0.04603 0.00952 
-0.018 0.04403 0.00952 
-0.018 0.04603 0.00952 
-0.018 0.0402 0.0053 
-0.018 -0.04403 0.02408 
-0.018 0.0402 0.007 
-0.018 -0.042415 0.02902 
-0.018 -0.034185 0.03102 
-0.018 -0.032185 0.02902 
-0.018 0.04403 0.02408 
-0.018 0.04603 0.02408 
-0.018 -0.032185 0.04202 
-0.018 -0.043915 0.03102 
-0.018 0.042415 0.02902 
-0.018 0.018 0.005 
-0.018 0.0402 0.0013 
-0.018 0.018 0.0013 
-0.018 -0.034185 0.04202 
-0.018 -0.030575 0.0474 
-0.018 -0.022345 0.0494 
-0.018 -0.020345 0.0474 
-0.018 0.043915 0.03102 
-0.018 0.018 0.007 
-0.018 -0.032075 0.0494 
-0.018 -0.020345 0.0634 
-0.018 1.29674e-17 0.0634 
-0.018 0.034185 0.03102 
-0.018 0.032185 0.02902 
-0.018 0.022345 0.0654 
-0.018 0.022345 0.0494 
-0.018 0.020345 0.0634 
-0.018 0.032185 0.04202 
-0.018 0.034185 0.04202 
-0.018 0.030575 0.0474 
-0.018 0.032075 0.0494 
-0.018 0.020345 0.0474 
-0.018 -0.0402 0.0013 
-0.018 -0.018 0.005 
-0.018 -0.018 0.0013 
-0.018 -0.0402 0.0053 
-0.018 -0.018 0.007 
-0.018 -0.0402 0.007 
0 -0.022345 0.0494 
0 0.04603 0.00952 
0 0.04603 0.02408 
0 0.0402 0.0053 
0 0.018 0.005 
0 0.0402 0.0013 
0 0.018 0.0013 
0 0.043915 0.03102 
0 0.034185 0.03102 
0 0.032075 0.0494 
0 0.022345 0.0494 
0 0.034185 0.04202 
0 -3.9968e-18 0.005 
0 -0.018 0.005 
0 -0.0402 0.0013 
0 -0.018 0.0013 
0 -0.0402 0.0053 
0 -0.034185 0.03102 
0 0.022345 0.0654 
0 -0.04603 0.02408 
0 -0.04603 0.00952 
0 -0.043915 0.03102 
0 -0.034185 0.04202 
0 -0.032075 0.0494 
-0.014469 0.00764081 0.0654 
-0.0139894 0.00709947 0.0654 
-0.00902187 0.00970661 0.0654 
-0.00670052 0.000711039 0.0654 
-0.00919495 0.0104088 0.0654 
-0.00953105 0.0110492 0.0654 
-0.0100106 0.0115905 0.0654 
-0.00679889 0.0014189 0.0654 
-0.0106058 0.0120014 0.0654 
-0.00706188 0.00208341 0.0654 
-0.014805 0.00828119 0.0654 
-0.00747459 0.00266685 0.0654 
-0.0112821 0.0122578 0.0654 
-0.0149781 0.00898339 0.0654 
-0.012 0.012345 0.0654 
-0.0127179 0.0122578 0.0654 
-0.0100106 0.00709947 0.0654 
-0.00934267 0.00363364 0.0654 
-0.00864829 0.00346461 0.0654 
-0.0133942 0.0120014 0.0654 
-0.0139894 0.0115905 0.0654 
-0.014469 0.0110492 0.0654 
-0.014805 0.0104088 0.0654 
-0.0149781 0.00970661 0.0654 
-0.00953105 0.00764081 0.0654 
-0.00801359 0.00313613 0.0654 
-0.0106058 0.00668863 0.0654 
-0.0100573 0.00363364 0.0654 
-0.00919495 0.00828119 0.0654 
-0.0112821 0.00643218 0.0654 
-0.0107517 0.00346461 0.0654 
-0.0126011 0.0014189 0.0654 
-0.0123381 0.00208341 0.0654 
-0.0126995 0.000711039 0.0654 
-0.00902187 0.00898339 0.0654 
-0.012 0.006345 0.0654 
-0.0113864 0.00313613 0.0654 
-0.0127179 0.00643218 0.0654 
-0.0119254 0.00266685 0.0654 
-0.0133942 0.00668863 0.0654 
-0.0123381 0.00208341 0.0634 
-0.0126011 0.0014189 0.0634 
-0.0126995 0.000711039 0.0634 
-0.0126276 1.17745e-17 0.0634 
-0.0097 -0.002345 0.0634 
-0.00903035 -0.00226931 0.0634 
-0.0124075 -0.000636973 0.0634 
-0.00839448 -0.00204604 0.0634 
-0.0120508 -0.00120875 0.0634 
-0.0078245 -0.00168647 0.0634 
-0.0115755 -0.00168647 0.0634 
-0.00734916 -0.00120875 0.0634 
-0.0110055 -0.00204604 0.0634 
-0.00699245 -0.000636973 0.0634 
-0.0103697 -0.00226931 0.0634 
-0.00677238 1.04744e-17 0.0634 
-0.00670052 0.000711039 0.0634 
-0.00679889 0.0014189 0.0634 
-0.00706188 0.00208341 0.0634 
-0.00747459 0.00266685 0.0634 
-0.00801359 0.00313613 0.0634 
-0.00864829 0.00346461 0.0634 
-0.00934267 0.00363364 0.0634 
-0.0100573 0.00363364 0.0634 
-0.0107517 0.00346461 0.0634 
-0.0113864 0.00313613 0.0634 
-0.0119254 0.00266685 0.0634 
-0.014469 -0.00664081 0.0634 
-0.014805 -0.00728119 0.0634 
-0.0149781 -0.00798339 0.0634 
-0.012 -0.011345 0.0634 
-0.0112821 -0.0112578 0.0634 
-0.0149781 -0.00870661 0.0634 
-0.0106058 -0.0110014 0.0634 
-0.014805 -0.00940881 0.0634 
-0.0100106 -0.0105905 0.0634 
-0.014469 -0.0100492 0.0634 
-0.00953105 -0.0100492 0.0634 
-0.0139894 -0.0105905 0.0634 
-0.00919495 -0.00940881 0.0634 
-0.0133942 -0.0110014 0.0634 
-0.0127179 -0.0112578 0.0634 
-0.00902187 -0.00870661 0.0634 
-0.00902187 -0.00798339 0.0634 
-0.00919495 -0.00728119 0.0634 
-0.00953105 -0.00664081 0.0634 
-0.0100106 -0.00609947 0.0634 
-0.0106058 -0.00568863 0.0634 
-0.0112821 -0.00543218 0.0634 
-0.012 -0.005345 0.0634 
-0.0127179 -0.00543218 0.0634 
-0.0133942 -0.00568863 0.0634 
-0.0139894 -0.00609947 0.0634 
-0.0175418 -0.0270713 0.0494 
-0.0173975 -0.0276565 0.0494 
-0.0171175 -0.0281902 0.0494 
-0.0167178 -0.0286413 0.0494 
-0.0162218 -0.0289836 0.0494 
-0.0156583 -0.0291974 0.0494 
-0.01506 -0.02927 0.0494 
-0.00306 -0.02927 0.0494 
-0.0175418 -0.0264687 0.0494 
-0.00140219 -0.0248987 0.0494 
-0.00100254 -0.0253498 0.0494 
-0.00189819 -0.0245564 0.0494 
-0.00072246 -0.0258835 0.0494 
-0.00246171 -0.0243426 0.0494 
-0.000578228 -0.0264687 0.0494 
-0.00306 -0.02427 0.0494 
-0.000578228 -0.0270713 0.0494 
-0.00246171 -0.0291974 0.0494 
-0.00189819 -0.0289836 0.0494 
-0.00140219 -0.0286413 0.0494 
-0.00100254 -0.0281902 0.0494 
-0.00072246 -0.0276565 0.0494 
-0.01506 -0.02427 0.0494 
-0.0156583 -0.0243426 0.0494 
-0.0162218 -0.0245564 0.0494 
-0.0167178 -0.0248987 0.0494 
-0.0171175 -0.0253498 0.0494 
-0.0173975 -0.0258835 0.0494 
-0.002 -0.034185 0.0415 
-0.002 -0.034185 0.0355 
-0.016 -0.034185 0.0355 
-0.016 -0.034185 0.0415 
-0.00132219 -0.0374887 0.03102 
-0.000922541 -0.0379398 0.03102 
-0.00181819 -0.0371464 0.03102 
-0.00064246 -0.0384735 0.03102 
-0.00238171 -0.0369326 0.03102 
-0.000498228 -0.0390587 0.03102 
-0.00298 -0.03686 0.03102 
-0.00181819 -0.0415736 0.03102 
-0.00132219 -0.0412313 0.03102 
-0.000922541 -0.0407802 0.03102 
-0.00064246 -0.0402465 0.03102 
-0.000498228 -0.0396613 0.03102 
-0.00238171 -0.0417874 0.03102 
-0.00298 -0.04186 0.03102 
-0.01498 -0.03686 0.03102 
-0.0155783 -0.0369326 0.03102 
-0.0161418 -0.0371464 0.03102 
-0.0166378 -0.0374887 0.03102 
-0.0170375 -0.0379398 0.03102 
-0.0173175 -0.0384735 0.03102 
-0.0174618 -0.0390587 0.03102 
-0.01498 -0.04186 0.03102 
-0.0174618 -0.0396613 0.03102 
-0.0173175 -0.0402465 0.03102 
-0.0170375 -0.0407802 0.03102 
-0.0166378 -0.0412313 0.03102 
-0.0161418 -0.0415736 0.03102 
-0.0155783 -0.0417874 0.03102 
-0.0019 -0.04603 0.0235 
-0.0019 -0.04603 0.0175 
-0.0159 -0.04603 0.0175 
-0.0159 -0.04603 0.0235 
-0.001 -0.0402 0.0022 
-0.001 -0.0402 0.005 
-0.003 -0.0402 0.0022 
-0.003 -0.0402 0.0013 
-0.015 -0.0402 0.0022 
-0.017 -0.0402 0.0022 
-0.015 -0.0402 0.0013 
-0.017 -0.0402 0.005 
-0.015 -0.018 0.0013 
-0.017 -0.018 0.0022 
-0.015 -0.018 0.0022 
-0.017 -0.018 0.005 
-0.0015 -0.018 0.007 
-0.0015 -0.018 0.005 
-0.0015 -0.0402 0.007 
-0.0015 -0.04403 0.00952 
-0.0019 -0.04403 0.0235 
-0.0015 -0.04403 0.02408 
-0.0019 -0.04403 0.0175 
-0.0159 -0.04403 0.0175 
-0.0159 -0.04403 0.0235 
-0.0015 -0.042415 0.02902 
-0.00195522 -0.0416403 0.02902 
-0.0015 -0.0413748 0.02902 
-0.00245597 -0.0418045 0.02902 
-0.00298 -0.04186 0.02902 
-0.00195522 -0.0370797 0.02902 
-0.0015 -0.032185 0.02902 
-0.0015 -0.0373452 0.02902 
-0.00245597 -0.0369155 0.02902 
-0.00298 -0.03686 0.02902 
-0.01498 -0.04186 0.02902 
-0.0161418 -0.0415736 0.02902 
-0.0166378 -0.0412313 0.02902 
-0.0155783 -0.0417874 0.02902 
-0.0170375 -0.0407802 0.02902 
-0.0173175 -0.0402465 0.02902 
-0.0174618 -0.0396613 0.02902 
-0.01498 -0.03686 0.02902 
-0.0155783 -0.0369326 0.02902 
-0.0161418 -0.0371464 0.02902 
-0.0166378 -0.0374887 0.02902 
-0.0170375 -0.0379398 0.02902 
-0.0173175 -0.0384735 0.02902 
-0.0174618 -0.0390587 0.02902 
-0.002 -0.032185 0.0415 
-0.0015 -0.032185 0.04202 
-0.002 -0.032185 0.0355 
-0.016 -0.032185 0.0355 
-0.016 -0.032185 0.0415 
-0.0015 -0.030575 0.0474 
-0.00197431 -0.029022 0.0474 
-0.0015 -0.0287236 0.0474 
-0.00250317 -0.0292072 0.0474 
-0.00306 -0.02927 0.0474 
-0.00197431 -0.0245181 0.0474 
-0.0015 -0.020345 0.0474 
-0.0015 -0.0248164 0.0474 
-0.00250317 -0.0243328 0.0474 
-0.00306 -0.02427 0.0474 
-0.01506 -0.02927 0.0474 
-0.0156583 -0.0291974 0.0474 
-0.0162218 -0.0289836 0.0474 
-0.0167178 -0.0286413 0.0474 
-0.0171175 -0.0281902 0.0474 
-0.0173975 -0.0276565 0.0474 
-0.0175418 -0.0270713 0.0474 
-0.01506 -0.02427 0.0474 
-0.0156583 -0.0243426 0.0474 
-0.0162218 -0.0245564 0.0474 
-0.0167178 -0.0248987 0.0474 
-0.0171175 -0.0253498 0.0474 
-0.0173975 -0.0258835 0.0474 
-0.0175418 -0.0264687 0.0474 
-0.0015 -0.020345 0.0634 
-0.0015 9.30367e-18 0.0634 
-0.0112821 0.00643218 0.0634 
-0.0106058 0.00668863 0.0634 
-0.00953105 0.0110492 0.0634 
-0.0100106 0.0115905 0.0634 
-0.0015 0.020345 0.0634 
-0.0106058 0.0120014 0.0634 
-0.00919495 0.0104088 0.0634 
-0.0112821 0.0122578 0.0634 
-0.00902187 0.00970661 0.0634 
-0.012 0.006345 0.0634 
-0.012 0.012345 0.0634 
-0.0127179 0.00643218 0.0634 
-0.0127179 0.0122578 0.0634 
-0.0133942 0.00668863 0.0634 
-0.0133942 0.0120014 0.0634 
-0.00902187 0.00898339 0.0634 
-0.0139894 0.00709947 0.0634 
-0.0139894 0.0115905 0.0634 
-0.014469 0.0110492 0.0634 
-0.0149781 0.00898339 0.0634 
-0.014805 0.00828119 0.0634 
-0.014469 0.00764081 0.0634 
-0.0149781 0.00970661 0.0634 
-0.014805 0.0104088 0.0634 
-0.00919495 0.00828119 0.0634 
-0.00953105 0.00764081 0.0634 
-0.0100106 0.00709947 0.0634 
-0.0015 0.020345 0.0474 
-0.00197431 0.029022 0.0474 
-0.0015 0.030575 0.0474 
-0.0015 0.0287236 0.0474 
-0.00250317 0.0292072 0.0474 
-0.00306 0.02927 0.0474 
-0.00306 0.02427 0.0474 
-0.00250317 0.0243328 0.0474 
-0.00197431 0.0245181 0.0474 
-0.0015 0.0248164 0.0474 
-0.01506 0.02927 0.0474 
-0.0156583 0.0291974 0.0474 
-0.0162218 0.0289836 0.0474 
-0.0167178 0.0286413 0.0474 
-0.0171175 0.0281902 0.0474 
-0.0173975 0.0276565 0.0474 
-0.0175418 0.0270713 0.0474 
-0.01506 0.02427 0.0474 
-0.0173975 0.0258835 0.0474 
-0.0171175 0.0253498 0.0474 
-0.0167178 0.0248987 0.0474 
-0.0162218 0.0245564 0.0474 
-0.0156583 0.0243426 0.0474 
-0.0175418 0.0264687 0.0474 
-0.0015 0.032185 0.04202 
-0.002 0.032185 0.0415 
-0.002 0.032185 0.0355 
-0.0015 0.032185 0.02902 
-0.016 0.032185 0.0355 
-0.016 0.032185 0.0415 
-0.00195522 0.0416403 0.02902 
-0.0015 0.042415 0.02902 
-0.0015 0.0413748 0.02902 
-0.00245597 0.0418045 0.02902 
-0.00298 0.04186 0.02902 
-0.00298 0.03686 0.02902 
-0.00245597 0.0369155 0.02902 
-0.00195522 0.0370797 0.02902 
-0.0015 0.0373452 0.02902 
-0.01498 0.04186 0.02902 
-0.0155783 0.0417874 0.02902 
-0.0161418 0.0415736 0.02902 
-0.0166378 0.0412313 0.02902 
-0.0170375 0.0407802 0.02902 
-0.0173175 0.0402465 0.02902 
-0.0174618 0.0396613 0.02902 
-0.01498 0.03686 0.02902 
-0.0173175 0.0384735 0.02902 
-0.0170375 0.0379398 0.02902 
-0.0166378 0.0374887 0.02902 
-0.0161418 0.0371464 0.02902 
-0.0155783 0.0369326 0.02902 
-0.0174618 0.0390587 0.02902 
-0.0015 0.04403 0.02408 
-0.0019 0.04403 0.0235 
-0.0019 0.04403 0.0175 
-0.0159 0.04403 0.0175 
-0.0015 0.04403 0.00952 
-0.0159 0.04403 0.0235 
-0.0015 0.0402 0.007 
-0.0015 0.018 0.007 
-0.017 0.018 0.005 
-0.0015 0.018 0.005 
-0.017 0.018 0.0022 
-0.015 0.018 0.0013 
-0.015 0.018 0.0022 
-0.015 0.0402 0.0013 
-0.001 0.0402 0.0022 
-0.001 0.0402 0.005 
-0.003 0.0402 0.0013 
-0.003 0.0402 0.0022 
-0.017 0.0402 0.0022 
-0.015 0.0402 0.0022 
-0.017 0.0402 0.005 
-0.0019 0.04603 0.0175 
-0.0019 0.04603 0.0235 
-0.0159 0.04603 0.0175 
-0.0159 0.04603 0.0235 
-0.000922541 0.0379398 0.03102 
-0.00132219 0.0374887 0.03102 
-0.00181819 0.0371464 0.03102 
-0.00064246 0.0384735 0.03102 
-0.00238171 0.0369326 0.03102 
-0.000498228 0.0390587 0.03102 
-0.00298 0.03686 0.03102 
-0.00181819 0.0415736 0.03102 
-0.00132219 0.0412313 0.03102 
-0.000922541 0.0407802 0.03102 
-0.00064246 0.0402465 0.03102 
-0.000498228 0.0396613 0.03102 
-0.00238171 0.0417874 0.03102 
-0.00298 0.04186 0.03102 
-0.01498 0.03686 0.03102 
-0.0155783 0.0369326 0.03102 
-0.0161418 0.0371464 0.03102 
-0.0166378 0.0374887 0.03102 
-0.0170375 0.0379398 0.03102 
-0.0173175 0.0384735 0.03102 
-0.0174618 0.0390587 0.03102 
-0.01498 0.04186 0.03102 
-0.0174618 0.0396613 0.03102 
-0.0173175 0.0402465 0.03102 
-0.0170375 0.0407802 0.03102 
-0.0166378 0.0412313 0.03102 
-0.0161418 0.0415736 0.03102 
-0.0155783 0.0417874 0.03102 
-0.002 0.034185 0.0355 
-0.002 0.034185 0.0415 
-0.016 0.034185 0.0355 
-0.016 0.034185 0.0415 
-0.0171175 0.0281902 0.0494 
-0.0167178 0.0286413 0.0494 
-0.0162218 0.0289836 0.0494 
-0.0156583 0.0291974 0.0494 
-0.01506 0.02927 0.0494 
-0.00306 0.02927 0.0494 
-0.0175418 0.0264687 0.0494 
-0.0175418 0.0270713 0.0494 
-0.00100254 0.0253498 0.0494 
-0.00140219 0.0248987 0.0494 
-0.00189819 0.0245564 0.0494 
-0.00072246 0.0258835 0.0494 
-0.00246171 0.0243426 0.0494 
-0.000578228 0.0264687 0.0494 
-0.00306 0.02427 0.0494 
-0.000578228 0.0270713 0.0494 
-0.00246171 0.0291974 0.0494 
-0.00189819 0.0289836 0.0494 
-0.00140219 0.0286413 0.0494 
-0.00100254 0.0281902 0.0494 
-0.00072246 0.0276565 0.0494 
-0.01506 0.02427 0.0494 
-0.0156583 0.0243426 0.0494 
-0.0162218 0.0245564 0.0494 
-0.0167178 0.0248987 0.0494 
-0.0171175 0.0253498 0.0494 
-0.0173975 0.0258835 0.0494 
-0.0173975 0.0276565 0.0494 
-0.003 0.018 0.0013 
-0.001 0.018 0.0022 
-0.003 0.018 0.0022 
-0.001 0.018 0.005 
-0.001 -3.77476e-18 0.005 
-0.001 -0.018 0.005 
-0.003 -0.018 0.0013 
-0.001 -0.018 0.0022 
-0.003 -0.018 0.0022 
-0.0015 -0.0287236 0.0444 
-0.00110466 -0.0283278 0.0444 
-0.000807224 -0.027854 0.0444 
-0.000622589 -0.0273259 0.0444 
-0.000559999 -0.02677 0.0444 
-0.000622589 -0.0262141 0.0444 
-0.000807224 -0.025686 0.0444 
-0.00110466 -0.0252122 0.0444 
-0.0015 -0.0248164 0.0444 
-0.0015 -0.0413748 0.02602 
-0.00107264 -0.0409762 0.02602 
-0.000749529 -0.0404892 0.02602 
-0.000548315 -0.0399404 0.02602 
-0.00048 -0.03936 0.02602 
-0.000548315 -0.0387796 0.02602 
-0.000749529 -0.0382308 0.02602 
-0.00107264 -0.0377438 0.02602 
-0.0015 -0.0373452 0.02602 
-0.0015 0.0413748 0.02602 
-0.0015 0.0373452 0.02602 
-0.0015 -3.66374e-18 0.005 
-0.0015 0.0287236 0.0444 
-0.0015 0.0248164 0.0444 
-0.00110466 0.0283278 0.0444 
-0.000807224 0.027854 0.0444 
-0.000622589 0.0273259 0.0444 
-0.000559999 0.02677 0.0444 
-0.000622589 0.0262141 0.0444 
-0.000807224 0.025686 0.0444 
-0.00110466 0.0252122 0.0444 
-0.00107264 0.0409762 0.02602 
-0.000749529 0.0404892 0.02602 
-0.000548315 0.0399404 0.02602 
-0.00048 0.03936 0.02602 
-0.000548315 0.0387796 0.02602 
-0.000749529 0.0382308 0.02602 
-0.00107264 0.0377438 0.02602 
3 0 1 2 
3 2 1 3 
3 3 1 4 
3 4 1 5 
3 6 7 8 
3 5 1 8 
3 0 9 1 
3 7 10 8 
3 11 12 13 
3 14 15 16 
3 16 15 17 
3 9 18 1 
3 19 18 9 
3 20 18 21 
3 21 18 22 
3 22 18 23 
3 23 18 24 
3 24 18 19 
3 17 25 26 
3 11 18 27 
3 11 27 12 
3 27 18 20 
3 15 25 17 
3 28 29 14 
3 14 29 15 
3 26 30 10 
3 10 30 8 
3 25 30 26 
3 31 32 28 
3 28 32 29 
3 30 33 8 
3 34 35 31 
3 31 35 32 
3 33 5 8 
3 36 11 37 
3 38 39 34 
3 34 39 35 
3 37 40 38 
3 11 40 37 
3 38 40 39 
3 11 41 40 
3 11 42 41 
3 11 13 42 
3 43 44 45 
3 46 47 48 
3 43 49 44 
3 50 46 48 
3 51 52 53 
3 51 49 43 
3 54 55 47 
3 54 47 46 
3 56 53 52 
3 57 51 43 
3 57 52 51 
3 58 55 54 
3 59 60 61 
3 59 48 60 
3 62 56 52 
3 63 64 65 
3 66 55 58 
3 63 56 62 
3 67 48 59 
3 68 63 62 
3 67 50 48 
3 68 64 63 
3 69 65 64 
3 69 11 70 
3 71 58 72 
3 71 66 58 
3 18 11 69 
3 64 18 69 
3 73 74 75 
3 76 77 71 
3 76 71 72 
3 78 77 76 
3 79 77 78 
3 74 79 78 
3 80 74 78 
3 81 82 83 
3 75 74 80 
3 84 85 82 
3 84 82 81 
3 86 85 84 
3 44 86 84 
3 45 44 84 
3 11 73 75 
3 11 75 70 
3 18 64 1 
3 1 64 87 
3 88 89 90 
3 90 91 92 
3 92 91 93 
3 94 95 89 
3 89 95 90 
3 90 95 91 
3 96 97 98 
3 98 97 95 
3 91 97 99 
3 95 97 91 
3 100 101 102 
3 100 103 101 
3 100 104 103 
3 105 8 97 
3 103 106 107 
3 104 106 103 
3 99 87 100 
3 97 87 99 
3 8 87 97 
3 100 87 104 
3 104 108 106 
3 87 109 104 
3 87 110 109 
3 8 1 87 
3 111 11 112 
3 105 113 8 
3 114 6 8 
3 105 115 113 
3 105 116 115 
3 105 117 116 
3 118 114 8 
3 119 117 105 
3 120 118 8 
3 121 11 111 
3 122 120 8 
3 123 119 105 
3 124 11 121 
3 73 123 105 
3 73 125 123 
3 73 126 125 
3 127 128 129 
3 73 130 126 
3 73 131 130 
3 73 132 131 
3 73 133 132 
3 73 11 124 
3 73 124 134 
3 73 134 133 
3 135 129 136 
3 135 127 129 
3 137 138 128 
3 137 128 127 
3 139 136 122 
3 139 135 136 
3 140 141 138 
3 140 138 137 
3 11 142 143 
3 11 144 142 
3 11 36 144 
3 145 122 8 
3 145 139 122 
3 146 147 141 
3 146 141 140 
3 113 145 8 
3 148 149 147 
3 148 147 146 
3 150 149 148 
3 150 143 149 
3 112 143 150 
3 112 11 143 
3 151 143 152 
3 149 143 151 
3 152 142 153 
3 143 142 152 
3 153 144 154 
3 142 144 153 
3 155 16 156 
3 14 16 155 
3 154 36 157 
3 144 36 154 
3 156 17 158 
3 16 17 156 
3 157 37 159 
3 36 37 157 
3 158 26 160 
3 159 38 161 
3 17 26 158 
3 37 38 159 
3 160 10 162 
3 161 34 163 
3 26 10 160 
3 38 34 161 
3 162 7 164 
3 34 31 163 
3 10 7 162 
3 163 28 165 
3 31 28 163 
3 165 14 155 
3 28 14 165 
3 164 6 166 
3 7 6 164 
3 166 114 167 
3 6 114 166 
3 167 118 168 
3 114 118 167 
3 168 120 169 
3 118 120 168 
3 120 122 169 
3 169 122 170 
3 122 136 170 
3 170 136 171 
3 136 129 171 
3 171 129 172 
3 172 129 173 
3 173 128 174 
3 129 128 173 
3 174 138 175 
3 128 138 174 
3 175 141 176 
3 138 141 175 
3 176 147 177 
3 141 147 176 
3 177 149 151 
3 147 149 177 
3 42 13 178 
3 178 13 179 
3 13 12 179 
3 179 12 180 
3 181 9 182 
3 12 27 180 
3 19 9 181 
3 180 27 183 
3 182 0 184 
3 27 20 183 
3 9 0 182 
3 183 20 185 
3 184 2 186 
3 20 21 185 
3 185 21 187 
3 0 2 184 
3 186 3 188 
3 21 22 187 
3 187 22 189 
3 2 3 186 
3 188 4 190 
3 189 23 191 
3 3 4 188 
3 22 23 189 
3 191 24 192 
3 190 5 193 
3 23 24 191 
3 192 19 181 
3 4 5 190 
3 24 19 192 
3 193 33 194 
3 5 33 193 
3 194 30 195 
3 33 30 194 
3 195 25 196 
3 30 25 195 
3 196 15 197 
3 25 15 196 
3 197 29 198 
3 15 29 197 
3 29 32 198 
3 198 32 199 
3 32 35 199 
3 199 35 200 
3 35 39 200 
3 200 39 201 
3 39 40 201 
3 201 40 202 
3 40 41 202 
3 202 41 203 
3 41 42 203 
3 203 42 178 
3 204 68 205 
3 205 68 206 
3 206 68 207 
3 207 68 208 
3 208 68 209 
3 209 68 210 
3 211 68 110 
3 64 68 212 
3 212 68 204 
3 213 214 87 
3 87 215 213 
3 214 216 87 
3 87 217 215 
3 216 218 87 
3 87 219 217 
3 218 220 87 
3 221 110 222 
3 222 110 223 
3 223 110 224 
3 224 110 225 
3 225 110 220 
3 220 110 87 
3 221 211 110 
3 219 64 226 
3 226 64 227 
3 87 64 219 
3 64 228 227 
3 64 229 228 
3 64 230 229 
3 64 231 230 
3 64 212 231 
3 210 68 211 
3 68 62 110 
3 110 62 109 
3 232 233 109 
3 233 104 109 
3 62 234 235 
3 234 52 233 
3 233 52 104 
3 62 52 234 
3 109 62 232 
3 232 62 235 
3 236 237 104 
3 104 238 236 
3 237 239 104 
3 104 240 238 
3 239 241 104 
3 104 242 240 
3 243 108 244 
3 244 108 245 
3 245 108 246 
3 246 108 247 
3 247 108 241 
3 241 108 104 
3 243 248 108 
3 248 249 108 
3 104 250 242 
3 104 52 250 
3 52 251 250 
3 52 252 251 
3 52 253 252 
3 52 254 253 
3 52 255 254 
3 52 256 255 
3 249 257 108 
3 258 57 259 
3 259 57 260 
3 260 57 261 
3 261 57 262 
3 262 57 263 
3 263 57 257 
3 257 57 108 
3 52 57 258 
3 52 258 256 
3 57 43 108 
3 108 43 106 
3 264 265 106 
3 265 107 106 
3 265 266 107 
3 43 266 267 
3 266 45 107 
3 106 43 264 
3 264 43 267 
3 43 45 266 
3 45 84 107 
3 107 84 103 
3 103 268 101 
3 269 268 103 
3 270 271 268 
3 268 271 101 
3 272 273 274 
3 84 273 275 
3 273 81 274 
3 84 81 273 
3 103 84 269 
3 269 84 275 
3 274 83 276 
3 81 83 274 
3 276 277 278 
3 276 83 277 
3 277 82 279 
3 83 82 277 
3 279 85 280 
3 279 280 281 
3 82 85 279 
3 85 86 280 
3 280 86 282 
3 86 44 282 
3 282 44 283 
3 284 285 286 
3 44 287 283 
3 283 287 286 
3 284 288 285 
3 287 49 288 
3 44 49 287 
3 285 283 286 
3 49 285 288 
3 285 49 289 
3 49 51 289 
3 289 290 291 
3 289 292 290 
3 289 293 292 
3 294 295 296 
3 297 295 294 
3 298 295 297 
3 289 299 293 
3 300 51 301 
3 302 51 300 
3 299 51 302 
3 51 303 301 
3 51 304 303 
3 51 305 304 
3 298 306 295 
3 307 53 306 
3 308 53 307 
3 309 53 308 
3 310 53 309 
3 311 53 310 
3 306 53 295 
3 51 53 305 
3 305 53 312 
3 312 53 311 
3 289 51 299 
3 313 314 315 
3 315 314 295 
3 53 316 295 
3 295 316 315 
3 313 317 314 
3 316 56 317 
3 53 56 316 
3 56 314 317 
3 314 56 318 
3 56 63 318 
3 318 319 320 
3 318 321 319 
3 318 322 321 
3 323 324 325 
3 326 324 323 
3 327 324 326 
3 318 328 322 
3 329 63 330 
3 328 63 329 
3 318 63 328 
3 63 331 330 
3 63 332 331 
3 63 333 332 
3 63 334 333 
3 327 335 324 
3 336 65 335 
3 337 65 336 
3 338 65 337 
3 339 65 338 
3 340 65 339 
3 335 65 324 
3 63 65 341 
3 63 341 334 
3 341 65 340 
3 65 69 324 
3 324 69 342 
3 186 188 342 
3 342 184 186 
3 198 165 155 
3 188 190 342 
3 69 182 342 
3 199 165 198 
3 342 182 184 
3 190 193 342 
3 199 163 165 
3 200 163 199 
3 69 181 182 
3 200 161 163 
3 201 161 200 
3 69 192 181 
3 194 343 193 
3 201 159 161 
3 193 343 342 
3 202 159 201 
3 194 195 343 
3 202 157 159 
3 69 191 192 
3 157 70 154 
3 69 189 191 
3 202 70 157 
3 203 70 202 
3 178 70 203 
3 179 70 178 
3 180 70 179 
3 69 70 183 
3 69 183 185 
3 183 70 180 
3 69 187 189 
3 69 185 187 
3 196 160 195 
3 195 160 343 
3 160 162 343 
3 197 158 196 
3 196 158 160 
3 162 164 343 
3 197 156 158 
3 164 166 343 
3 197 155 156 
3 198 155 197 
3 174 344 345 
3 174 345 173 
3 346 347 348 
3 349 348 347 
3 166 167 343 
3 350 346 348 
3 351 75 348 
3 351 348 349 
3 352 350 348 
3 175 344 174 
3 175 353 344 
3 354 75 351 
3 176 353 175 
3 176 355 353 
3 356 75 354 
3 177 355 176 
3 177 357 355 
3 358 75 356 
3 151 357 177 
3 343 359 352 
3 151 360 357 
3 343 352 348 
3 361 75 358 
3 70 151 152 
3 70 152 153 
3 70 153 154 
3 70 360 151 
3 362 75 361 
3 70 363 364 
3 70 364 365 
3 70 365 360 
3 70 75 363 
3 363 75 366 
3 367 75 362 
3 170 368 359 
3 170 359 343 
3 171 369 368 
3 171 368 170 
3 169 170 343 
3 172 370 369 
3 172 369 171 
3 366 75 367 
3 168 169 343 
3 173 345 370 
3 173 370 172 
3 167 168 343 
3 75 80 371 
3 75 371 348 
3 372 373 374 
3 375 373 372 
3 376 373 375 
3 371 377 378 
3 371 378 379 
3 371 379 380 
3 381 373 376 
3 78 381 382 
3 78 382 383 
3 78 373 381 
3 384 78 383 
3 385 78 384 
3 386 78 385 
3 387 78 386 
3 388 377 371 
3 80 389 390 
3 80 390 391 
3 80 391 392 
3 80 392 393 
3 80 393 388 
3 80 388 371 
3 80 78 394 
3 394 78 387 
3 80 394 389 
3 76 395 373 
3 78 76 373 
3 395 396 397 
3 395 397 398 
3 399 72 398 
3 399 398 397 
3 400 396 395 
3 76 399 400 
3 76 72 399 
3 395 76 400 
3 401 402 403 
3 404 402 401 
3 405 402 404 
3 398 406 407 
3 398 407 408 
3 398 408 409 
3 410 402 405 
3 58 410 411 
3 58 411 412 
3 58 412 413 
3 414 58 413 
3 415 58 414 
3 416 58 415 
3 417 406 398 
3 72 418 419 
3 72 419 420 
3 72 420 421 
3 72 421 422 
3 72 422 417 
3 72 417 398 
3 72 58 416 
3 72 416 423 
3 72 423 418 
3 58 402 410 
3 54 424 402 
3 58 54 402 
3 424 425 426 
3 427 46 428 
3 427 428 426 
3 429 425 424 
3 54 427 429 
3 54 46 427 
3 428 424 426 
3 424 54 429 
3 46 50 430 
3 46 430 428 
3 50 67 431 
3 50 431 430 
3 67 432 431 
3 431 432 433 
3 67 59 432 
3 434 435 436 
3 61 435 434 
3 59 434 432 
3 59 61 434 
3 61 437 435 
3 61 60 437 
3 438 90 92 
3 438 439 90 
3 440 441 438 
3 440 438 92 
3 442 443 437 
3 442 48 444 
3 60 442 437 
3 60 48 442 
3 48 90 439 
3 48 439 444 
3 48 47 88 
3 48 88 90 
3 445 446 89 
3 88 445 89 
3 447 445 88 
3 447 55 448 
3 47 447 88 
3 55 89 446 
3 55 446 448 
3 47 55 447 
3 55 66 94 
3 55 94 89 
3 449 450 95 
3 451 95 450 
3 452 449 95 
3 453 95 451 
3 454 452 95 
3 455 95 453 
3 94 456 457 
3 94 457 458 
3 94 458 459 
3 94 459 460 
3 94 460 454 
3 94 454 95 
3 461 456 94 
3 462 461 94 
3 463 95 455 
3 71 95 463 
3 464 71 463 
3 465 71 464 
3 466 71 465 
3 467 71 466 
3 468 71 467 
3 469 71 468 
3 470 462 94 
3 66 471 472 
3 66 472 473 
3 66 473 474 
3 66 474 475 
3 66 475 476 
3 66 476 470 
3 66 470 94 
3 66 71 471 
3 471 71 469 
3 477 478 98 
3 95 477 98 
3 479 77 480 
3 71 479 477 
3 71 477 95 
3 71 77 479 
3 77 98 478 
3 77 478 480 
3 77 79 96 
3 77 96 98 
3 79 481 482 
3 79 482 483 
3 79 483 484 
3 79 484 485 
3 79 486 96 
3 79 74 487 
3 79 487 488 
3 489 490 97 
3 491 97 490 
3 492 489 97 
3 493 97 491 
3 494 492 97 
3 495 97 493 
3 496 494 97 
3 96 497 498 
3 96 498 499 
3 96 499 500 
3 96 500 501 
3 96 501 496 
3 96 496 97 
3 486 497 96 
3 74 495 502 
3 74 502 503 
3 74 97 495 
3 504 74 503 
3 505 74 504 
3 506 74 505 
3 507 74 506 
3 487 74 507 
3 79 485 486 
3 79 488 508 
3 79 508 481 
3 74 73 105 
3 74 105 97 
3 509 92 93 
3 509 440 92 
3 509 93 510 
3 91 510 93 
3 511 509 510 
3 512 510 91 
3 513 91 99 
3 513 512 91 
3 100 513 99 
3 514 513 100 
3 102 515 516 
3 516 100 102 
3 515 517 516 
3 516 514 100 
3 101 515 102 
3 271 515 101 
3 132 133 362 
3 362 133 367 
3 133 134 367 
3 367 134 366 
3 353 140 344 
3 134 124 366 
3 146 140 353 
3 366 124 363 
3 344 137 345 
3 124 121 363 
3 140 137 344 
3 363 121 364 
3 345 127 370 
3 121 111 364 
3 364 111 365 
3 137 127 345 
3 370 135 369 
3 111 112 365 
3 365 112 360 
3 127 135 370 
3 369 139 368 
3 360 150 357 
3 135 139 369 
3 112 150 360 
3 357 148 355 
3 368 145 359 
3 150 148 357 
3 355 146 353 
3 139 145 368 
3 148 146 355 
3 359 113 352 
3 145 113 359 
3 352 115 350 
3 113 115 352 
3 350 116 346 
3 115 116 350 
3 346 117 347 
3 116 117 346 
3 347 119 349 
3 117 119 347 
3 119 123 349 
3 349 123 351 
3 123 125 351 
3 351 125 354 
3 125 126 354 
3 354 126 356 
3 126 130 356 
3 356 130 358 
3 130 131 358 
3 358 131 361 
3 131 132 361 
3 361 132 362 
3 219 335 327 
3 219 226 335 
3 211 321 322 
3 211 221 321 
3 221 319 321 
3 518 320 519 
3 319 222 320 
3 221 222 319 
3 222 223 320 
3 519 224 520 
3 320 224 519 
3 223 224 320 
3 520 225 521 
3 224 225 520 
3 521 220 522 
3 225 220 521 
3 522 218 523 
3 220 218 522 
3 523 216 524 
3 218 216 523 
3 524 214 525 
3 216 214 524 
3 525 325 526 
3 214 325 525 
3 214 213 325 
3 325 215 323 
3 213 215 325 
3 323 217 326 
3 215 217 323 
3 326 219 327 
3 217 219 326 
3 328 211 322 
3 210 211 328 
3 335 227 336 
3 226 227 335 
3 336 228 337 
3 227 228 336 
3 337 229 338 
3 228 229 337 
3 338 230 339 
3 229 230 338 
3 339 231 340 
3 230 231 339 
3 340 212 341 
3 231 212 340 
3 341 204 334 
3 212 204 341 
3 334 205 333 
3 204 205 334 
3 333 206 332 
3 205 206 333 
3 332 207 331 
3 206 207 332 
3 331 208 330 
3 207 208 331 
3 330 209 329 
3 208 209 330 
3 329 210 328 
3 209 210 329 
3 316 233 315 
3 234 233 316 
3 317 234 316 
3 235 234 317 
3 313 235 317 
3 232 235 313 
3 315 232 313 
3 233 232 315 
3 257 293 299 
3 257 249 293 
3 306 251 307 
3 250 251 306 
3 307 252 308 
3 251 252 307 
3 308 253 309 
3 252 253 308 
3 309 254 310 
3 253 254 309 
3 310 255 311 
3 254 255 310 
3 311 256 312 
3 255 256 311 
3 312 258 305 
3 256 258 312 
3 305 259 304 
3 258 259 305 
3 304 260 303 
3 259 260 304 
3 303 261 301 
3 260 261 303 
3 301 262 300 
3 261 262 301 
3 300 263 302 
3 262 263 300 
3 302 257 299 
3 263 257 302 
3 298 250 306 
3 242 250 298 
3 249 292 293 
3 292 248 290 
3 249 248 292 
3 527 291 528 
3 290 243 291 
3 248 243 290 
3 243 244 291 
3 528 245 529 
3 291 245 528 
3 244 245 291 
3 529 246 530 
3 245 246 529 
3 530 247 531 
3 246 247 530 
3 531 241 532 
3 247 241 531 
3 532 239 533 
3 241 239 532 
3 533 237 534 
3 239 237 533 
3 534 296 535 
3 237 296 534 
3 237 236 296 
3 296 238 294 
3 236 238 296 
3 294 240 297 
3 238 240 294 
3 297 242 298 
3 240 242 297 
3 266 286 287 
3 266 265 286 
3 288 266 287 
3 267 266 288 
3 284 267 288 
3 264 267 284 
3 265 284 286 
3 265 264 284 
3 278 274 276 
3 272 274 278 
3 277 272 278 
3 273 272 277 
3 275 277 279 
3 275 273 277 
3 275 279 281 
3 269 281 514 
3 269 275 281 
3 268 514 516 
3 268 269 514 
3 270 516 517 
3 270 268 516 
3 271 517 515 
3 271 270 517 
3 314 526 295 
3 314 518 526 
3 318 518 314 
3 318 320 518 
3 402 424 536 
3 342 343 324 
3 403 402 536 
3 537 428 430 
3 537 424 428 
3 537 536 424 
3 431 537 430 
3 398 409 537 
3 398 537 431 
3 538 431 433 
3 373 395 539 
3 374 373 539 
3 540 395 398 
3 540 539 395 
3 280 538 281 
3 371 380 540 
3 371 431 538 
3 371 398 431 
3 371 540 398 
3 535 282 283 
3 535 280 282 
3 535 295 280 
3 343 348 371 
3 296 295 535 
3 324 371 538 
3 324 538 280 
3 324 280 295 
3 324 343 371 
3 285 527 535 
3 285 535 283 
3 526 324 295 
3 289 527 285 
3 289 291 527 
3 325 324 526 
3 375 486 376 
3 497 486 375 
3 372 497 375 
3 374 539 541 
3 498 372 374 
3 498 497 372 
3 499 498 374 
3 500 541 542 
3 500 374 541 
3 500 499 374 
3 501 542 543 
3 501 500 542 
3 496 543 544 
3 496 501 543 
3 494 544 545 
3 494 496 544 
3 492 545 546 
3 492 494 545 
3 489 546 547 
3 489 492 546 
3 380 547 540 
3 380 489 547 
3 490 489 380 
3 491 380 379 
3 491 490 380 
3 493 379 378 
3 493 491 379 
3 495 378 377 
3 495 493 378 
3 388 495 377 
3 502 495 388 
3 503 393 392 
3 503 388 393 
3 503 502 388 
3 504 392 391 
3 504 503 392 
3 505 391 390 
3 505 504 391 
3 506 505 390 
3 507 390 389 
3 507 506 390 
3 487 389 394 
3 487 507 389 
3 488 394 387 
3 488 487 394 
3 508 387 386 
3 508 488 387 
3 481 386 385 
3 481 508 386 
3 482 385 384 
3 482 481 385 
3 483 383 382 
3 483 384 383 
3 483 482 384 
3 484 382 381 
3 484 483 382 
3 485 484 381 
3 486 381 376 
3 486 485 381 
3 477 399 397 
3 477 479 399 
3 478 397 396 
3 478 477 397 
3 480 396 400 
3 480 478 396 
3 479 400 399 
3 479 480 400 
3 404 462 405 
3 461 404 401 
3 461 462 404 
3 403 536 548 
3 456 401 403 
3 456 461 401 
3 457 456 403 
3 458 548 549 
3 458 403 548 
3 458 457 403 
3 459 549 550 
3 459 458 549 
3 460 550 551 
3 460 459 550 
3 454 551 552 
3 454 460 551 
3 452 552 553 
3 452 454 552 
3 449 553 554 
3 449 452 553 
3 409 554 537 
3 409 449 554 
3 450 449 409 
3 451 409 408 
3 451 450 409 
3 453 408 407 
3 453 451 408 
3 455 407 406 
3 455 453 407 
3 463 406 417 
3 463 455 406 
3 464 422 421 
3 464 417 422 
3 464 463 417 
3 465 421 420 
3 465 464 421 
3 466 420 419 
3 466 465 420 
3 467 466 419 
3 468 419 418 
3 468 467 419 
3 469 418 423 
3 469 468 418 
3 471 423 416 
3 471 469 423 
3 472 416 415 
3 472 471 416 
3 473 415 414 
3 473 472 415 
3 474 414 413 
3 474 473 414 
3 475 413 412 
3 475 474 413 
3 476 412 411 
3 476 475 412 
3 470 411 410 
3 470 476 411 
3 405 470 410 
3 462 470 405 
3 445 427 426 
3 445 447 427 
3 446 426 425 
3 446 445 426 
3 448 425 429 
3 448 446 425 
3 447 429 427 
3 447 448 429 
3 433 444 439 
3 433 432 444 
3 512 433 439 
3 432 442 444 
3 432 434 442 
3 442 436 443 
3 434 436 442 
3 443 435 437 
3 436 435 443 
3 510 439 438 
3 510 512 439 
3 511 438 441 
3 511 510 438 
3 509 441 440 
3 509 511 441 
3 538 512 513 
3 538 433 512 
3 514 538 513 
3 281 538 514 
3 520 522 519 
3 521 522 520 
3 523 524 522 
3 522 524 519 
3 519 525 518 
3 524 525 519 
3 525 526 518 
3 532 527 528 
3 532 528 529 
3 532 529 530 
3 532 530 531 
3 534 535 527 
3 534 532 533 
3 534 527 532 
3 536 552 548 
3 548 552 549 
3 549 552 550 
3 550 552 551 
3 537 554 536 
3 552 554 553 
3 536 554 552 
3 544 542 541 
3 544 543 542 
3 546 545 544 
3 546 544 541 
3 547 541 539 
3 547 546 541 
3 540 547 539 
