ply
format ascii 1.0
comment Created by CloudCompare v2.11 alpha (Anoia)
comment Created 02/05/2019 16:07
obj_info Generated by CloudCompare!
element vertex 1375
property float x
property float y
property float z
end_header
0.008994 0.0366548 0.052629 
0.008979 0.0382912 0.052609 
0.008948 0.0415639 0.052569 
0.013282 0.0632611 0.054747 
0.013267 0.0648885 0.054727 
0.015064 0.0666787 0.055682 
0.015049 0.0683025 0.055662 
0.016485 0.0309501 0.054905 
0.014661 0.032336 0.053909 
0.014646 0.0339634 0.053889 
0.014631 0.0355908 0.05387 
0.014616 0.0372182 0.05385 
0.011888 0.0385102 0.052366 
0.011873 0.0401429 0.052346 
0.011858 0.0417757 0.052326 
0.011843 0.0434084 0.052307 
0.011828 0.0450412 0.052287 
0.011813 0.046674 0.052267 
0.011798 0.0483067 0.052247 
0.011783 0.0499395 0.052227 
0.011768 0.0515722 0.052208 
0.011753 0.053205 0.052188 
0.011738 0.0548378 0.052168 
0.011723 0.0564705 0.052148 
0.014422 0.0583743 0.053594 
0.014407 0.0600017 0.053574 
0.014392 0.0616291 0.053554 
0.014377 0.0632565 0.053534 
0.016171 0.0650503 0.054492 
0.016156 0.0666741 0.054472 
0.016141 0.0682979 0.054452 
0.016126 0.0699218 0.054433 
0.020317 0.0280709 0.055202 
0.020302 0.0296893 0.055183 
0.020287 0.0313078 0.055163 
0.017562 0.0325693 0.053675 
0.017548 0.0341931 0.053656 
0.015726 0.0355862 0.052657 
0.015711 0.0372136 0.052637 
0.015696 0.038841 0.052618 
0.015681 0.0404684 0.052598 
0.015666 0.0420958 0.052578 
0.015651 0.0437232 0.052559 
0.015636 0.0453506 0.052539 
0.012911 0.0466693 0.05105 
0.012896 0.0483021 0.051031 
0.012881 0.0499349 0.051011 
0.012866 0.0515676 0.050991 
0.012851 0.0532004 0.050971 
0.012836 0.0548332 0.050951 
0.015531 0.0567423 0.052401 
0.015516 0.0583697 0.052381 
0.015501 0.0599971 0.052361 
0.015486 0.0616245 0.052342 
0.015471 0.0632519 0.052322 
0.017263 0.0650457 0.053282 
0.017248 0.0666695 0.053262 
0.017233 0.0682934 0.053243 
0.017218 0.0699172 0.053223 
0.017203 0.071541 0.053203 
0.01422 0.0238061 0.050111 
0.02142 0.0264478 0.054016 
0.021405 0.0280663 0.053997 
0.021391 0.0296847 0.053977 
0.01867 0.0309409 0.052485 
0.018655 0.0325647 0.052466 
0.01864 0.0341885 0.052446 
0.016821 0.0355816 0.051445 
0.016806 0.037209 0.051425 
0.016791 0.0388364 0.051405 
0.016776 0.0404638 0.051385 
0.016761 0.0420912 0.051366 
0.016746 0.0437186 0.051346 
0.016731 0.045346 0.051326 
0.016716 0.0469734 0.051307 
0.016701 0.0486007 0.051287 
0.01398 0.0499302 0.049794 
0.013964 0.051563 0.049774 
0.013949 0.0531958 0.049755 
0.016641 0.0551103 0.051208 
0.016626 0.0567377 0.051188 
0.016611 0.0583651 0.051169 
0.016596 0.0599925 0.051149 
0.016581 0.0616199 0.051129 
0.016566 0.0632473 0.051109 
0.016551 0.0648747 0.05109 
0.018341 0.0666649 0.052052 
0.018326 0.0682888 0.052033 
0.018311 0.0699126 0.052013 
0.016491 0.0713843 0.051011 
0.018021 0.0241852 0.05037 
0.019807 0.0260648 0.051334 
0.019792 0.0276887 0.051315 
0.019777 0.0293125 0.051295 
0.019762 0.0309363 0.051275 
0.019747 0.0325601 0.051256 
0.017931 0.0339496 0.050252 
0.017916 0.035577 0.050232 
0.017901 0.0372044 0.050212 
0.017886 0.0388318 0.050193 
0.017871 0.0404592 0.050173 
0.017856 0.0420865 0.050153 
0.017841 0.0437139 0.050133 
0.017826 0.0453413 0.050114 
0.017811 0.0469687 0.050094 
0.017796 0.0485961 0.050074 
0.017781 0.0502235 0.050055 
0.017766 0.0518509 0.050035 
0.017751 0.0534783 0.050015 
0.017736 0.0551057 0.049995 
0.017721 0.0567331 0.049976 
0.017706 0.0583605 0.049956 
0.017691 0.0599879 0.049936 
0.017676 0.0616153 0.049917 
0.017661 0.0632427 0.049897 
0.017646 0.0648701 0.049877 
0.017631 0.0664975 0.049857 
0.017616 0.0681249 0.049838 
0.017601 0.0697523 0.049818 
0.014882 0.0711515 0.04832 
0.014633 0.0219046 0.046711 
0.019115 0.0241806 0.049158 
0.020899 0.0260603 0.050124 
0.020884 0.0276841 0.050105 
0.020869 0.0293079 0.050085 
0.019055 0.0306902 0.049079 
0.01904 0.0323176 0.049059 
0.019025 0.033945 0.049039 
0.01901 0.0355724 0.04902 
0.018995 0.0371998 0.049 
0.01898 0.0388272 0.04898 
0.018965 0.0404546 0.04896 
0.01895 0.0420819 0.048941 
0.018935 0.0437093 0.048921 
0.01892 0.0453367 0.048901 
0.018905 0.0469641 0.048881 
0.01889 0.0485915 0.048862 
0.018875 0.0502189 0.048842 
0.01886 0.0518463 0.048822 
0.018845 0.0534737 0.048803 
0.01883 0.0551011 0.048783 
0.018815 0.0567285 0.048763 
0.0188 0.0583559 0.048743 
0.018785 0.0599833 0.048724 
0.016071 0.0613503 0.047223 
0.016056 0.0629831 0.047203 
0.01874 0.0648655 0.048665 
0.018725 0.0664929 0.048645 
0.01871 0.0681203 0.048625 
0.018695 0.0697477 0.048605 
0.015981 0.0711469 0.047104 
0.015966 0.0727797 0.047084 
0.017515 0.0237922 0.046461 
0.020195 0.0258034 0.047925 
0.02018 0.0274308 0.047906 
0.020165 0.0290582 0.047886 
0.02015 0.0306856 0.047866 
0.020135 0.032313 0.047846 
0.02012 0.0339404 0.047827 
0.020105 0.0355678 0.047807 
0.02009 0.0371952 0.047787 
0.020075 0.0388225 0.047768 
0.02006 0.0404499 0.047748 
0.020045 0.0420773 0.047728 
0.02003 0.0437047 0.047708 
0.020015 0.0453321 0.047689 
0.02 0.0469595 0.047669 
0.019985 0.0485869 0.047649 
0.01997 0.0502143 0.047629 
0.019955 0.0518417 0.04761 
0.01994 0.0534691 0.04759 
0.019925 0.0550965 0.04757 
0.01991 0.0567239 0.047551 
0.019895 0.0583513 0.047531 
0.017184 0.059713 0.046026 
0.017169 0.0613457 0.046006 
0.017154 0.0629785 0.045986 
0.017139 0.0646112 0.045967 
0.01982 0.0664883 0.047432 
0.017109 0.0678768 0.045927 
0.017094 0.0695095 0.045907 
0.017079 0.0711423 0.045887 
0.017064 0.072775 0.045868 
0.015251 0.0742628 0.0448573 
0.016819 0.0235317 0.0442528 
0.018599 0.0254203 0.045225 
0.018583 0.0270531 0.045205 
0.018568 0.0286859 0.045185 
0.018553 0.0303186 0.045165 
0.018538 0.0319514 0.045146 
0.018523 0.0335841 0.045126 
0.018508 0.0352169 0.045106 
0.018493 0.0368497 0.045086 
0.02117 0.0388179 0.046555 
0.021155 0.0404453 0.046535 
0.02114 0.0420727 0.046516 
0.021125 0.0437001 0.046496 
0.02111 0.0453275 0.046476 
0.021095 0.0469549 0.046456 
0.02108 0.0485823 0.046437 
0.021065 0.0502097 0.046417 
0.02105 0.0518371 0.046397 
0.021035 0.0534645 0.046377 
0.02102 0.0550919 0.046358 
0.021005 0.0567193 0.046338 
0.018298 0.0580756 0.0448291 
0.018283 0.0597083 0.0448093 
0.018268 0.0613411 0.0447895 
0.018252 0.0629738 0.0447698 
0.018237 0.0646066 0.04475 
0.018222 0.0662394 0.0447302 
0.018207 0.0678721 0.0447104 
0.018192 0.0695049 0.0446906 
0.018177 0.0711377 0.0446708 
0.018162 0.0727704 0.044651 
0.018147 0.0744032 0.0446312 
0.016337 0.0758945 0.0436182 
0.013629 0.0773241 0.0421084 
0.01792 0.0235271 0.0430336 
0.017905 0.0251634 0.0430137 
0.01789 0.0267998 0.0429939 
0.017875 0.0284361 0.0429741 
0.019652 0.030314 0.0439489 
0.019637 0.0319468 0.0439292 
0.019622 0.0335795 0.0439094 
0.019607 0.0352123 0.0438896 
0.019592 0.036845 0.0438698 
0.019576 0.0384778 0.04385 
0.019561 0.0401106 0.0438302 
0.019546 0.0417433 0.0438104 
0.019531 0.0433761 0.0437906 
0.019516 0.0450088 0.0437709 
0.019501 0.0466416 0.0437511 
0.019486 0.0482744 0.0437313 
0.019471 0.0499071 0.0437115 
0.019456 0.0515399 0.0436917 
0.019441 0.0531727 0.0436719 
0.019426 0.0548054 0.0436521 
0.019411 0.0564382 0.0436323 
0.019396 0.0580709 0.0436126 
0.019381 0.0597037 0.0435928 
0.019366 0.0613365 0.043573 
0.019351 0.0629692 0.0435532 
0.019336 0.064602 0.0435334 
0.019321 0.0662347 0.0435136 
0.019306 0.0678675 0.0434938 
0.019291 0.0695003 0.0434741 
0.019276 0.071133 0.0434543 
0.01926 0.0727658 0.0434345 
0.017453 0.0742536 0.0424188 
0.017438 0.0758899 0.042399 
0.017423 0.0775262 0.0423792 
0.014718 0.0789612 0.0408653 
0.016352 0.0214969 0.0403384 
0.016337 0.0231386 0.0403185 
0.019006 0.0251588 0.0417945 
0.018991 0.0267951 0.0417747 
0.018976 0.0284315 0.0417548 
0.018961 0.0300678 0.041735 
0.020735 0.0319421 0.0427126 
0.02072 0.0335749 0.0426928 
0.020705 0.0352077 0.042673 
0.02069 0.0368404 0.0426532 
0.020675 0.0384732 0.0426335 
0.02066 0.0401059 0.0426137 
0.020645 0.0417387 0.0425939 
0.02063 0.0433715 0.0425741 
0.020615 0.0450042 0.0425543 
0.0206 0.046637 0.0425345 
0.020585 0.0482698 0.0425147 
0.020569 0.0499025 0.0424949 
0.020554 0.0515353 0.0424752 
0.020539 0.053168 0.0424554 
0.020524 0.0548008 0.0424356 
0.020509 0.0564336 0.0424158 
0.018704 0.0578855 0.0413979 
0.018689 0.0595219 0.0413781 
0.018674 0.0611582 0.0413582 
0.018659 0.0627946 0.0413384 
0.020434 0.0645974 0.0423169 
0.020419 0.0662301 0.0422971 
0.020404 0.0678629 0.0422773 
0.020389 0.0694957 0.0422575 
0.018584 0.0709762 0.0412393 
0.018569 0.0726126 0.0412194 
0.018553 0.0742489 0.0411996 
0.018538 0.0758853 0.0411798 
0.018523 0.0775216 0.0411599 
0.015823 0.0789565 0.0396421 
0.015807 0.0805982 0.0396222 
0.01567 0.0212328 0.0381154 
0.017441 0.023134 0.0390953 
0.017426 0.0247757 0.0390754 
0.017411 0.0264174 0.0390555 
0.020076 0.0284268 0.0405356 
0.020061 0.0300632 0.0405158 
0.020046 0.0316995 0.040496 
0.020031 0.0333358 0.0404761 
0.020016 0.0349722 0.0404563 
0.020001 0.0366085 0.0404365 
0.021773 0.0384686 0.0414169 
0.019971 0.0398812 0.0403968 
0.021743 0.0417341 0.0413773 
0.021728 0.0433668 0.0413575 
0.021713 0.0449996 0.0413378 
0.021698 0.0466324 0.041318 
0.019895 0.0480629 0.0402977 
0.01988 0.0496992 0.0402778 
0.019865 0.0513356 0.040258 
0.01985 0.0529719 0.0402382 
0.019835 0.0546082 0.0402183 
0.01982 0.0562446 0.0401985 
0.019805 0.0578809 0.0401787 
0.01979 0.0595173 0.0401589 
0.019775 0.0611536 0.040139 
0.01976 0.0627899 0.0401192 
0.019745 0.0644263 0.0400994 
0.01973 0.0660626 0.0400795 
0.019715 0.0676989 0.0400597 
0.019699 0.0693353 0.0400399 
0.019684 0.0709716 0.0400201 
0.019669 0.072608 0.0400002 
0.019654 0.0742443 0.0399804 
0.019639 0.0758806 0.0399606 
0.019624 0.077517 0.0399407 
0.016927 0.0789519 0.0384189 
0.016912 0.0805936 0.038399 
0.0141 0.0208389 0.0353857 
0.016761 0.0228734 0.0368695 
0.016746 0.0245187 0.0368496 
0.018515 0.0264127 0.0378323 
0.0185 0.0280544 0.0378124 
0.018485 0.0296961 0.0377925 
0.021147 0.0316949 0.0392767 
0.021132 0.0333312 0.0392569 
0.021117 0.0349676 0.0392371 
0.021102 0.0366039 0.0392173 
0.021087 0.0382402 0.0391974 
0.021072 0.0398766 0.0391776 
0.021057 0.0415129 0.0391578 
0.021041 0.0431492 0.0391379 
0.021026 0.0447856 0.0391181 
0.021011 0.0464219 0.0390983 
0.020996 0.0480583 0.0390784 
0.020981 0.0496946 0.0390586 
0.020966 0.0513309 0.0390388 
0.020951 0.0529673 0.039019 
0.020936 0.0546036 0.0389991 
0.020921 0.0562399 0.0389793 
0.020906 0.0578763 0.0389595 
0.020891 0.0595126 0.0389396 
0.020876 0.061149 0.0389198 
0.020861 0.0627853 0.0389 
0.020845 0.0644216 0.0388801 
0.02083 0.066058 0.0388603 
0.020815 0.0676943 0.0388405 
0.0208 0.0693307 0.0388207 
0.020785 0.070967 0.0388008 
0.02077 0.0726033 0.038781 
0.020755 0.0742397 0.0387612 
0.02074 0.075876 0.0387413 
0.018046 0.0773055 0.0372155 
0.018031 0.0789472 0.0371956 
0.018016 0.0805889 0.0371757 
0.01521 0.0208342 0.0341558 
0.015195 0.0224849 0.0341358 
0.017853 0.024514 0.0356237 
0.017838 0.0261593 0.0356038 
0.019605 0.0280498 0.0365892 
0.019589 0.0296915 0.0365693 
0.019574 0.0313332 0.0365494 
0.019559 0.0329749 0.0365295 
0.019544 0.0346166 0.0365096 
0.022202 0.0365993 0.037998 
0.022187 0.0382356 0.0379782 
0.022172 0.0398719 0.0379584 
0.022157 0.0415083 0.0379386 
0.022142 0.0431446 0.0379187 
0.022127 0.0447809 0.0378989 
0.022112 0.0464173 0.0378791 
0.022097 0.0480536 0.0378592 
0.022082 0.04969 0.0378394 
0.022067 0.0513263 0.0378196 
0.022052 0.0529626 0.0377997 
0.019363 0.054317 0.0362709 
0.019347 0.0559587 0.036251 
0.019332 0.0576004 0.0362311 
0.019317 0.0592421 0.0362112 
0.021976 0.0611443 0.0377006 
0.021961 0.0627807 0.0376808 
0.021946 0.064417 0.0376609 
0.021931 0.0660533 0.0376411 
0.021916 0.0676897 0.0376213 
0.021901 0.069326 0.0376014 
0.021886 0.0709624 0.0375816 
0.021871 0.0725987 0.0375618 
0.021856 0.074235 0.0375419 
0.019166 0.0756592 0.0360122 
0.019151 0.0773009 0.0359923 
0.019136 0.0789426 0.0359724 
0.01912 0.0805843 0.0359525 
0.014647 0.0819081 0.0334157 
0.014541 0.0205701 0.0319181 
0.016305 0.0224802 0.032906 
0.01629 0.0241309 0.0328859 
0.018944 0.0261547 0.0343779 
0.018929 0.0277999 0.034358 
0.020694 0.0296868 0.0353461 
0.020679 0.0313286 0.0353262 
0.020664 0.0329702 0.0353063 
0.020648 0.0346119 0.0352864 
0.020633 0.0362537 0.0352665 
0.023288 0.038231 0.036759 
0.020603 0.0395371 0.0352267 
0.023258 0.0415036 0.0367193 
0.023243 0.04314 0.0366995 
0.023228 0.0447763 0.0366797 
0.020543 0.0461039 0.0351471 
0.020527 0.0477456 0.0351272 
0.020512 0.0493873 0.0351073 
0.020497 0.051029 0.0350874 
0.020482 0.0526707 0.0350675 
0.020467 0.0543124 0.0350476 
0.020452 0.0559541 0.0350277 
0.020437 0.0575958 0.0350078 
0.020421 0.0592375 0.0349879 
0.020406 0.0608792 0.034968 
0.020391 0.0625209 0.0349482 
0.020376 0.0641626 0.0349283 
0.020361 0.0658043 0.0349084 
0.023017 0.067685 0.036402 
0.023002 0.0693214 0.0363822 
0.020316 0.0707294 0.0348487 
0.0203 0.0723711 0.0348288 
0.020285 0.0740128 0.0348089 
0.02027 0.0756545 0.034789 
0.020255 0.0772962 0.0347691 
0.02024 0.0789379 0.0347492 
0.020225 0.0805796 0.0347293 
0.015758 0.0819034 0.0321858 
0.015742 0.0835541 0.0321658 
0.015653 0.0205654 0.0306856 
0.017415 0.0224755 0.0316761 
0.0174 0.0241262 0.0316561 
0.020051 0.02615 0.033152 
0.020036 0.0277953 0.0331321 
0.021798 0.0296822 0.0341228 
0.021783 0.0313239 0.0341029 
0.021768 0.0329656 0.0340831 
0.021753 0.0346073 0.0340632 
0.021738 0.036249 0.0340433 
0.024389 0.0382263 0.0355398 
0.021707 0.0395324 0.0340035 
0.024359 0.041499 0.0355001 
0.024344 0.0431353 0.0354803 
0.024329 0.0447717 0.0354604 
0.021647 0.0460992 0.0339239 
0.021632 0.0477409 0.033904 
0.021617 0.0493826 0.0338841 
0.024268 0.051317 0.0353811 
0.024253 0.0529534 0.0353613 
0.021571 0.0543077 0.0338244 
0.021556 0.0559494 0.0338045 
0.021541 0.0575911 0.0337846 
0.021526 0.0592329 0.0337647 
0.024178 0.0611351 0.0352622 
0.024163 0.0627714 0.0352423 
0.024148 0.0644077 0.0352225 
0.024133 0.0660441 0.0352027 
0.024117 0.0676804 0.0351828 
0.024102 0.0693168 0.035163 
0.024087 0.0709531 0.0351432 
0.024072 0.0725894 0.0351233 
0.024057 0.0742258 0.0351035 
0.021375 0.0756499 0.0335658 
0.021359 0.0772916 0.0335459 
0.021344 0.0789333 0.033526 
0.021329 0.080575 0.0335061 
0.016868 0.0818988 0.030956 
0.016853 0.0835494 0.030936 
0.016766 0.0205607 0.029453 
0.018526 0.0224709 0.0304462 
0.018511 0.0241215 0.0304262 
0.021158 0.0261454 0.0319261 
0.021143 0.0277906 0.0319062 
0.021128 0.0294359 0.0318863 
0.022887 0.0313193 0.0328797 
0.022872 0.032961 0.0328598 
0.022857 0.0346027 0.0328399 
0.022842 0.0362444 0.03282 
0.022827 0.0378861 0.0328001 
0.022812 0.0395278 0.0327803 
0.022797 0.0411695 0.0327604 
0.022781 0.0428112 0.0327405 
0.022766 0.0444529 0.0327206 
0.022751 0.0460946 0.0327007 
0.022736 0.0477363 0.0326808 
0.022721 0.049378 0.0326609 
0.022706 0.0510197 0.032641 
0.022691 0.0526614 0.0326211 
0.022676 0.0543031 0.0326012 
0.02266 0.0559448 0.0325813 
0.022645 0.0575865 0.0325614 
0.02263 0.0592282 0.0325415 
0.022615 0.0608699 0.0325216 
0.0226 0.0625116 0.0325017 
0.022585 0.0641533 0.0324818 
0.02257 0.065795 0.0324619 
0.022555 0.0674367 0.032442 
0.022539 0.0690784 0.0324221 
0.022524 0.0707201 0.0324022 
0.022509 0.0723618 0.0323823 
0.022494 0.0740035 0.0323624 
0.022479 0.0756452 0.0323426 
0.022464 0.0772869 0.0323227 
0.022449 0.0789286 0.0323028 
0.022434 0.0805704 0.0322829 
0.017978 0.0818941 0.0297261 
0.017963 0.0835447 0.0297061 
0.01522 0.0201667 0.0266968 
0.017864 0.0222103 0.0282004 
0.019621 0.0241169 0.0291963 
0.019606 0.0257675 0.0291763 
0.022249 0.027786 0.0306803 
0.022234 0.0294313 0.0306604 
0.022219 0.0310765 0.0306404 
0.022204 0.0327218 0.0306205 
0.022189 0.0343671 0.0306006 
0.023946 0.0362397 0.0315968 
0.023931 0.0378814 0.0315769 
0.023916 0.0395231 0.031557 
0.023901 0.0411648 0.0315371 
0.023886 0.0428065 0.0315172 
0.022098 0.0442388 0.0304809 
0.022083 0.0458841 0.030461 
0.022067 0.0475293 0.0304411 
0.022052 0.0491746 0.0304211 
0.022037 0.0508199 0.0304012 
0.022022 0.0524652 0.0303813 
0.022007 0.0541105 0.0303613 
0.021992 0.0557557 0.0303414 
0.021977 0.057401 0.0303214 
0.021961 0.0590463 0.0303015 
0.021946 0.0606916 0.0302816 
0.021931 0.0623369 0.0302616 
0.021916 0.0639821 0.0302417 
0.023674 0.0657904 0.0312387 
0.023659 0.0674321 0.0312188 
0.023644 0.0690738 0.0311989 
0.023629 0.0707155 0.031179 
0.023613 0.0723572 0.0311591 
0.023598 0.0739989 0.0311392 
0.023583 0.0756406 0.0311193 
0.023568 0.0772823 0.0310995 
0.023553 0.078924 0.0310796 
0.023538 0.0805657 0.0310597 
0.019089 0.0818894 0.0284962 
0.019073 0.0835401 0.0284762 
0.017284 0.0850707 0.0274387 
0.016337 0.020162 0.0254602 
0.018976 0.0222056 0.0269679 
0.020731 0.0241122 0.0279664 
0.020716 0.0257628 0.0279464 
0.020701 0.0274135 0.0279264 
0.020686 0.0290641 0.0279064 
0.02067 0.0307148 0.0278864 
0.020655 0.0323654 0.0278664 
0.023296 0.0343624 0.0293747 
0.02328 0.0360077 0.0293548 
0.023265 0.037653 0.0293348 
0.02325 0.0392983 0.0293149 
0.023235 0.0409436 0.0292949 
0.02322 0.0425888 0.029275 
0.023205 0.0442341 0.0292551 
0.023189 0.0458794 0.0292351 
0.023174 0.0475247 0.0292152 
0.020503 0.0488719 0.0276664 
0.020488 0.0505225 0.0276464 
0.020473 0.0521731 0.0276264 
0.020458 0.0538238 0.0276064 
0.020442 0.0554744 0.0275864 
0.020427 0.0571251 0.0275664 
0.020412 0.0587757 0.0275464 
0.020397 0.0604264 0.0275264 
0.020381 0.062077 0.0275064 
0.023023 0.0639775 0.0290158 
0.023007 0.0656228 0.0289959 
0.022992 0.067268 0.0289759 
0.022977 0.0689133 0.028956 
0.022962 0.0705586 0.028936 
0.022947 0.0722039 0.0289161 
0.022932 0.0738492 0.0288962 
0.022916 0.0754944 0.0288762 
0.024672 0.0772776 0.0298762 
0.024657 0.0789194 0.0298563 
0.022871 0.0804303 0.0288164 
0.020199 0.0818847 0.0272663 
0.018412 0.0834118 0.0262262 
0.018397 0.085066 0.0262061 
0.015725 0.0865455 0.0246557 
0.017453 0.0201573 0.0242237 
0.020089 0.0222009 0.0257353 
0.020074 0.0238551 0.0257153 
0.021826 0.0257581 0.0267166 
0.021811 0.0274088 0.0266966 
0.021796 0.0290594 0.0266766 
0.021781 0.0307101 0.0266566 
0.021766 0.0323607 0.0266366 
0.02175 0.0340114 0.0266165 
0.021735 0.035662 0.0265965 
0.02172 0.0373127 0.0265765 
0.021705 0.0389633 0.0265565 
0.02169 0.040614 0.0265365 
0.021674 0.0422646 0.0265165 
0.021659 0.0439152 0.0264965 
0.021644 0.0455659 0.0264765 
0.021629 0.0472165 0.0264565 
0.021613 0.0488672 0.0264365 
0.021598 0.0505178 0.0264165 
0.021583 0.0521685 0.0263965 
0.021568 0.0538191 0.0263765 
0.021553 0.0554698 0.0263565 
0.021537 0.0571204 0.0263365 
0.021522 0.058771 0.0263165 
0.021507 0.0604217 0.0262965 
0.021492 0.0620723 0.0262765 
0.021477 0.063723 0.0262565 
0.021461 0.0653736 0.0262365 
0.024099 0.0672634 0.02775 
0.024084 0.0689087 0.0277301 
0.024069 0.0705539 0.0277102 
0.024054 0.0721992 0.0276902 
0.024038 0.0738445 0.0276703 
0.024023 0.0754898 0.0276504 
0.024008 0.0771351 0.0276304 
0.023993 0.0787803 0.0276105 
0.021324 0.0802294 0.0260564 
0.01954 0.0817529 0.0250137 
0.019525 0.0834071 0.0249936 
0.01951 0.0850613 0.0249736 
0.016841 0.0865408 0.0234192 
0.016826 0.0882004 0.0233991 
0.016819 0.0182299 0.0219835 
0.018569 0.0201526 0.0229871 
0.021202 0.0221962 0.0245028 
0.021187 0.0238504 0.0244827 
0.021171 0.0255046 0.0244627 
0.021156 0.0271589 0.0244427 
0.021141 0.0288131 0.0244226 
0.021126 0.0304673 0.0244026 
0.021111 0.0321215 0.0243825 
0.021095 0.0337757 0.0243625 
0.02108 0.03543 0.0243424 
0.021065 0.0370842 0.0243224 
0.02105 0.0387384 0.0243023 
0.021034 0.0403926 0.0242823 
0.021019 0.0420469 0.0242622 
0.021004 0.0437011 0.0242422 
0.020989 0.0453553 0.0242221 
0.020973 0.0470095 0.0242021 
0.020958 0.0486637 0.0241821 
0.020943 0.050318 0.024162 
0.020928 0.0519722 0.024142 
0.020912 0.0536264 0.0241219 
0.020897 0.0552806 0.0241019 
0.022648 0.0571157 0.0251066 
0.022633 0.0587664 0.0250866 
0.022617 0.060417 0.0250666 
0.022602 0.0620677 0.0250466 
0.022587 0.0637183 0.0250266 
0.022572 0.065369 0.0250066 
0.022557 0.0670196 0.0249866 
0.022541 0.0686702 0.0249666 
0.022526 0.0703209 0.0249466 
0.022511 0.0719715 0.0249266 
0.022496 0.0736222 0.0249066 
0.02248 0.0752728 0.0248866 
0.022465 0.0769235 0.0248666 
0.02245 0.0785741 0.0248466 
0.022435 0.0802248 0.0248266 
0.020653 0.0817482 0.0237811 
0.020638 0.0834024 0.0237611 
0.020623 0.0850566 0.023741 
0.017958 0.0865361 0.0221827 
0.017942 0.0881957 0.0221626 
0.017927 0.0898553 0.0221424 
0.015309 0.0161619 0.0192248 
0.017938 0.0182252 0.0207442 
0.017923 0.0198884 0.0207241 
0.019671 0.0218075 0.0217305 
0.022299 0.0238457 0.0232502 
0.022284 0.0255 0.0232302 
0.022269 0.0271542 0.0232101 
0.022254 0.0288084 0.0231901 
0.022239 0.0304626 0.02317 
0.022223 0.0321168 0.02315 
0.022208 0.0337711 0.0231299 
0.022193 0.0354253 0.0231099 
0.022178 0.0370795 0.0230898 
0.022162 0.0387337 0.0230698 
0.022147 0.040388 0.0230497 
0.022132 0.0420422 0.0230297 
0.022117 0.0436964 0.0230096 
0.022101 0.0453506 0.0229896 
0.022086 0.0470048 0.0229696 
0.022071 0.0486591 0.0229495 
0.022056 0.0503133 0.0229295 
0.02204 0.0519675 0.0229094 
0.022025 0.0536217 0.0228894 
0.02201 0.0552759 0.0228693 
0.021995 0.0569302 0.0228493 
0.021979 0.0585844 0.0228292 
0.021964 0.0602386 0.0228092 
0.021949 0.0618928 0.0227891 
0.021934 0.0635471 0.0227691 
0.021918 0.0652013 0.022749 
0.021903 0.0668555 0.022729 
0.021888 0.0685097 0.0227089 
0.021873 0.0701639 0.0226889 
0.021857 0.0718182 0.0226689 
0.021842 0.0734724 0.0226488 
0.021827 0.0751266 0.0226288 
0.021812 0.0767808 0.0226087 
0.021796 0.0784351 0.0225887 
0.021781 0.0800893 0.0225686 
0.021766 0.0817435 0.0225486 
0.021751 0.0833977 0.0225285 
0.019089 0.0848718 0.0209662 
0.019074 0.0865314 0.0209461 
0.019059 0.088191 0.020926 
0.019043 0.0898506 0.0209059 
0.019028 0.0915102 0.0208858 
0.014702 0.0125463 0.0169931 
0.014687 0.0142184 0.0169728 
0.016432 0.0161572 0.0179816 
0.016417 0.0178257 0.0179614 
0.019042 0.0198836 0.0194849 
0.019026 0.0215468 0.0194647 
0.020772 0.0234624 0.0204738 
0.020756 0.025122 0.0204537 
0.020741 0.0267816 0.0204336 
0.020726 0.0284412 0.0204135 
0.02071 0.0301008 0.0203934 
0.020695 0.0317603 0.0203733 
0.023321 0.0337664 0.0218974 
0.023306 0.0354206 0.0218773 
0.02329 0.0370748 0.0218573 
0.023275 0.038729 0.0218372 
0.02326 0.0403833 0.0218172 
0.023245 0.0420375 0.0217971 
0.023229 0.0436917 0.0217771 
0.023214 0.0453459 0.021757 
0.023199 0.0470002 0.021737 
0.023184 0.0486544 0.021717 
0.023168 0.0503086 0.0216969 
0.023153 0.0519628 0.0216769 
0.023138 0.053617 0.0216568 
0.023123 0.0552713 0.0216368 
0.023107 0.0569255 0.0216167 
0.023092 0.0585797 0.0215967 
0.023077 0.0602339 0.0215766 
0.023062 0.0618881 0.0215566 
0.023046 0.0635424 0.0215365 
0.023031 0.0651966 0.0215165 
0.023016 0.0668508 0.0214964 
0.023001 0.068505 0.0214764 
0.022985 0.0701593 0.0214564 
0.02297 0.0718135 0.0214363 
0.022955 0.0734677 0.0214163 
0.02294 0.0751219 0.0213962 
0.022924 0.0767761 0.0213762 
0.022909 0.0784304 0.0213561 
0.022894 0.0800846 0.0213361 
0.020236 0.0815479 0.0197699 
0.020221 0.0832075 0.0197498 
0.020206 0.0848671 0.0197297 
0.02019 0.0865267 0.0197096 
0.020175 0.0881863 0.0196895 
0.02016 0.0898459 0.0196694 
0.018383 0.0913997 0.0186182 
0.018367 0.0930628 0.0185981 
0.015843 0.0108694 0.0157675 
0.015827 0.0125415 0.0157472 
0.015812 0.0142136 0.0157269 
0.015796 0.0158857 0.0157067 
0.017539 0.017821 0.0167182 
0.017524 0.0194895 0.016698 
0.017508 0.0211581 0.0166778 
0.021888 0.0234577 0.0192373 
0.021873 0.0251173 0.0192172 
0.021857 0.0267769 0.0191971 
0.021842 0.0284365 0.019177 
0.021827 0.0300961 0.0191568 
0.021811 0.0317556 0.0191367 
0.021796 0.0334152 0.0191166 
0.021781 0.0350748 0.0190965 
0.021766 0.0367344 0.0190764 
0.02175 0.038394 0.0190563 
0.021735 0.0400536 0.0190362 
0.02172 0.0417132 0.0190161 
0.021704 0.0433727 0.018996 
0.021689 0.0450323 0.0189758 
0.021674 0.0466919 0.0189557 
0.021659 0.0483515 0.0189356 
0.021643 0.0500111 0.0189155 
0.021628 0.0516707 0.0188954 
0.021613 0.0533303 0.0188753 
0.021597 0.0549899 0.0188552 
0.021582 0.0566494 0.0188351 
0.021567 0.058309 0.0188149 
0.021551 0.0599686 0.0187948 
0.021536 0.0616282 0.0187747 
0.021521 0.0632878 0.0187546 
0.024144 0.0651919 0.020284 
0.024129 0.0668461 0.0202639 
0.021475 0.0682665 0.0186943 
0.02146 0.0699261 0.0186742 
0.021444 0.0715857 0.0186541 
0.021429 0.0732453 0.0186339 
0.021414 0.0749049 0.0186138 
0.024037 0.0767715 0.0201436 
0.024022 0.0784257 0.0201236 
0.024007 0.0800799 0.0201035 
0.021353 0.0815432 0.0185334 
0.021337 0.0832028 0.0185133 
0.021322 0.0848624 0.0184932 
0.021307 0.086522 0.0184731 
0.019532 0.0880686 0.0174193 
0.019517 0.0897318 0.0173992 
0.019501 0.091395 0.017379 
0.019486 0.0930581 0.0173589 
0.016967 0.0108647 0.0145216 
0.016952 0.0125368 0.0145013 
0.016937 0.0142089 0.0144811 
0.016921 0.015881 0.0144608 
0.016906 0.0175531 0.0144405 
0.01689 0.0192252 0.0144203 
0.018631 0.0211534 0.0154346 
0.021249 0.0232006 0.0169662 
0.021233 0.0248637 0.016946 
0.021218 0.0265269 0.0169259 
0.021203 0.0281901 0.0169057 
0.022943 0.0300914 0.0179203 
0.022928 0.0317509 0.0179002 
0.022913 0.0334105 0.0178801 
0.022897 0.0350701 0.01786 
0.022882 0.0367297 0.0178399 
0.022867 0.0383893 0.0178197 
0.022851 0.0400489 0.0177996 
0.022836 0.0417085 0.0177795 
0.022821 0.0433681 0.0177594 
0.022805 0.0450276 0.0177393 
0.02279 0.0466872 0.0177192 
0.022775 0.0483468 0.0176991 
0.02276 0.0500064 0.017679 
0.022744 0.051666 0.0176589 
0.022729 0.0533256 0.0176387 
0.022714 0.0549852 0.0176186 
0.022698 0.0566447 0.0175985 
0.022683 0.0583043 0.0175784 
0.022668 0.0599639 0.0175583 
0.022653 0.0616235 0.0175382 
0.022637 0.0632831 0.0175181 
0.022622 0.0649427 0.017498 
0.022607 0.0666023 0.0174778 
0.022591 0.0682619 0.0174577 
0.022576 0.0699214 0.0174376 
0.022561 0.071581 0.0174175 
0.022546 0.0732406 0.0173974 
0.02253 0.0749002 0.0173773 
0.022515 0.0765598 0.0173572 
0.0225 0.0782194 0.0173371 
0.022484 0.079879 0.017317 
0.022469 0.0815385 0.0172968 
0.022454 0.0831981 0.0172767 
0.022438 0.0848577 0.0172566 
0.020666 0.0864008 0.0162003 
0.020651 0.0880639 0.0161801 
0.020636 0.0897271 0.01616 
0.02062 0.0913903 0.0161398 
0.020605 0.0930534 0.0161197 
0.015478 0.0087663 0.0117407 
0.018092 0.01086 0.0132757 
0.018077 0.0125321 0.0132555 
0.018061 0.0142042 0.0132352 
0.018046 0.0158763 0.0132149 
0.01803 0.0175484 0.0131947 
0.018015 0.0192205 0.0131744 
0.018 0.0208926 0.0131541 
0.019738 0.0228172 0.0141711 
0.019722 0.0244857 0.0141509 
0.022337 0.0265222 0.0156866 
0.022321 0.0281854 0.0156665 
0.022306 0.0298485 0.0156463 
0.022291 0.0315117 0.0156262 
0.022275 0.0331748 0.015606 
0.02226 0.034838 0.0155859 
0.022245 0.0365012 0.0155657 
0.022229 0.0381643 0.0155456 
0.022214 0.0398275 0.0155254 
0.022199 0.0414907 0.0155052 
0.022183 0.0431538 0.0154851 
0.022168 0.044817 0.0154649 
0.022153 0.0464801 0.0154448 
0.022138 0.0481433 0.0154246 
0.022122 0.0498065 0.0154045 
0.022107 0.0514696 0.0153843 
0.022092 0.0531328 0.0153642 
0.022076 0.054796 0.015344 
0.022061 0.0564591 0.0153239 
0.022046 0.0581223 0.0153037 
0.02203 0.0597855 0.0152835 
0.022015 0.0614486 0.0152634 
0.022 0.0631118 0.0152432 
0.021984 0.0647749 0.0152231 
0.021969 0.0664381 0.0152029 
0.021954 0.0681013 0.0151828 
0.021938 0.0697644 0.0151626 
0.023677 0.0715763 0.016181 
0.023662 0.0732359 0.0161609 
0.023647 0.0748955 0.0161408 
0.023631 0.0765551 0.0161206 
0.023616 0.0782147 0.0161005 
0.023601 0.0798743 0.0160804 
0.023585 0.0815338 0.0160603 
0.02357 0.0831934 0.0160402 
0.0218 0.0847329 0.0149812 
0.021785 0.0863961 0.0149611 
0.02177 0.0880592 0.0149409 
0.021754 0.0897224 0.0149207 
0.023494 0.0914914 0.0159396 
0.023478 0.093151 0.0159195 
0.016606 0.0087615 0.0104908 
0.019217 0.0108552 0.0120298 
0.019202 0.0125273 0.0120096 
0.019186 0.0141994 0.0119893 
0.019171 0.0158716 0.0119691 
0.019155 0.0175437 0.0119488 
0.01914 0.0192158 0.0119285 
0.019124 0.0208879 0.0119083 
0.019109 0.02256 0.011888 
0.020845 0.024481 0.0129077 
0.020829 0.0261495 0.0128875 
0.020814 0.027818 0.0128673 
0.020798 0.0294866 0.0128471 
0.020783 0.0311551 0.0128268 
0.020768 0.0328236 0.0128066 
0.020752 0.0344921 0.0127864 
0.020737 0.0361607 0.0127662 
0.020722 0.0378292 0.0127459 
0.023333 0.0398228 0.0142862 
0.023318 0.0414859 0.014266 
0.023302 0.0431491 0.0142459 
0.023287 0.0448123 0.0142257 
0.023272 0.0464754 0.0142056 
0.023256 0.0481386 0.0141854 
0.023241 0.0498018 0.0141653 
0.023226 0.0514649 0.0141451 
0.020583 0.052846 0.012564 
0.020568 0.0545145 0.0125437 
0.020552 0.056183 0.0125235 
0.020537 0.0578515 0.0125033 
0.020522 0.0595201 0.0124831 
0.020506 0.0611886 0.0124629 
0.020491 0.0628571 0.0124426 
0.023103 0.0647702 0.0139839 
0.023088 0.0664334 0.0139637 
0.023072 0.0680966 0.0139436 
0.023057 0.0697597 0.0139234 
0.023042 0.0714229 0.0139033 
0.023026 0.073086 0.0138831 
0.023011 0.0747492 0.0138629 
0.022996 0.0764124 0.0138428 
0.02298 0.0780755 0.0138226 
0.022965 0.0797387 0.0138025 
0.02295 0.0814019 0.0137823 
0.022934 0.083065 0.0137622 
0.022919 0.0847282 0.013742 
0.022904 0.0863913 0.0137219 
0.022888 0.0880545 0.0137017 
0.022873 0.0897177 0.0136815 
0.022858 0.0913808 0.0136614 
0.024595 0.0931462 0.014683 
0.017735 0.0087568 0.0092409 
0.020342 0.0108505 0.010784 
0.020326 0.0125226 0.0107637 
0.020311 0.0141947 0.0107435 
0.020296 0.0158668 0.0107232 
0.02028 0.0175389 0.0107029 
0.020265 0.019211 0.0106827 
0.020249 0.0208831 0.0106624 
0.020234 0.0225552 0.0106421 
0.020218 0.0242273 0.0106219 
0.020203 0.0258995 0.0106016 
0.020188 0.0275716 0.0105814 
0.020172 0.0292437 0.0105611 
0.020157 0.0309158 0.0105408 
0.02189 0.0328189 0.0115634 
0.021875 0.0344874 0.0115432 
0.021859 0.0361559 0.011523 
0.021844 0.0378245 0.0115027 
0.021829 0.039493 0.0114825 
0.021813 0.0411615 0.0114623 
0.021798 0.0428301 0.0114421 
0.021782 0.0444986 0.0114219 
0.021767 0.0461671 0.0114016 
0.021752 0.0478356 0.0113814 
0.021736 0.0495042 0.0113612 
0.021721 0.0511727 0.011341 
0.021706 0.0528412 0.0113208 
0.02169 0.0545098 0.0113006 
0.021675 0.0561783 0.0112803 
0.021659 0.0578468 0.0112601 
0.021644 0.0595153 0.0112399 
0.021629 0.0611839 0.0112197 
0.021613 0.0628524 0.0111995 
0.021598 0.0645209 0.0111792 
0.021583 0.0661895 0.011159 
0.021567 0.067858 0.0111388 
0.021552 0.0695265 0.0111186 
0.021536 0.071195 0.0110984 
0.021521 0.0728636 0.0110781 
0.021506 0.0745321 0.0110579 
0.02149 0.0762006 0.0110377 
0.021475 0.0778692 0.0110175 
0.02146 0.0795377 0.0109973 
0.021444 0.0812062 0.010977 
0.021429 0.0828747 0.0109568 
0.021413 0.0845433 0.0109366 
0.021398 0.0862118 0.0109164 
0.021383 0.0878803 0.0108961 
0.023992 0.089713 0.0124423 
0.023977 0.0913761 0.0124222 
0.023961 0.0930393 0.012402 
0.018848 0.0104295 0.0079708 
0.018832 0.012107 0.0079504 
0.018817 0.0137844 0.0079301 
0.02142 0.0158621 0.0094773 
0.021405 0.0175342 0.0094571 
0.021389 0.0192063 0.0094368 
0.021374 0.0208784 0.0094165 
0.021359 0.0225505 0.0093963 
0.021343 0.0242226 0.009376 
0.021328 0.0258947 0.0093558 
0.021312 0.0275668 0.0093355 
0.021297 0.0292389 0.0093152 
0.021282 0.030911 0.009295 
0.021266 0.0325831 0.0092747 
0.021251 0.0342552 0.0092544 
0.021235 0.0359273 0.0092342 
0.02122 0.0375995 0.0092139 
0.021205 0.0392716 0.0091936 
0.021189 0.0409437 0.0091734 
0.021174 0.0426158 0.0091531 
0.022905 0.0444939 0.0101787 
0.022889 0.0461624 0.0101584 
0.021128 0.0476321 0.0090923 
0.021112 0.0493042 0.0090721 
0.021097 0.0509763 0.0090518 
0.021081 0.0526484 0.0090315 
0.021066 0.0543205 0.0090113 
0.02105 0.0559926 0.008991 
0.021035 0.0576647 0.0089707 
0.02102 0.0593368 0.0089505 
0.021004 0.0610089 0.0089302 
0.020989 0.062681 0.00891 
0.020973 0.0643531 0.0088897 
0.020958 0.0660252 0.0088694 
0.020943 0.0676973 0.0088492 
0.020927 0.0693694 0.0088289 
0.022659 0.0711903 0.0098551 
0.022643 0.0728588 0.0098349 
0.022628 0.0745274 0.0098147 
0.022613 0.0761959 0.0097945 
0.022597 0.0778644 0.0097743 
0.022582 0.079533 0.009754 
0.022567 0.0812015 0.0097338 
0.022551 0.08287 0.0097136 
0.022536 0.0845385 0.0096934 
0.02252 0.0862071 0.0096732 
0.022505 0.0878756 0.0096529 
0.02249 0.0895441 0.0096327 
0.022474 0.0912127 0.0096125 
0.02508 0.0930346 0.0111628 
0.022444 0.0945497 0.0095721 
0.018233 0.0101472 0.0056733 
0.019961 0.0121022 0.0067006 
0.019945 0.0137797 0.0066802 
0.01993 0.0154571 0.0066599 
0.019914 0.0171346 0.0066396 
0.019899 0.0188121 0.0066193 
0.019883 0.0204896 0.0065989 
0.019868 0.022167 0.0065786 
0.019853 0.0238445 0.0065583 
0.022453 0.02589 0.0081099 
0.022437 0.0275621 0.0080896 
0.022422 0.0292342 0.0080694 
0.022406 0.0309063 0.0080491 
0.022391 0.0325784 0.0080288 
0.022376 0.0342505 0.0080086 
0.02236 0.0359226 0.0079883 
0.022345 0.0375947 0.007968 
0.022329 0.0392668 0.0079478 
0.022314 0.0409389 0.0079275 
0.022299 0.042611 0.0079072 
0.022283 0.0442831 0.007887 
0.022268 0.0459552 0.0078667 
0.022252 0.0476273 0.0078465 
0.019621 0.0490066 0.0062533 
0.019605 0.050684 0.006233 
0.01959 0.0523615 0.0062127 
0.019574 0.054039 0.0061924 
0.019559 0.0557164 0.006172 
0.019543 0.0573939 0.0061517 
0.019528 0.0590714 0.0061314 
0.019512 0.0607488 0.006111 
0.019497 0.0624263 0.0060907 
0.022098 0.0643484 0.0076438 
0.022083 0.0660205 0.0076236 
0.022067 0.0676926 0.0076033 
0.022052 0.0693647 0.007583 
0.022037 0.0710368 0.0075628 
0.022021 0.0727089 0.0075425 
0.022006 0.074381 0.0075222 
0.02199 0.0760531 0.007502 
0.021975 0.0777252 0.0074817 
0.02196 0.0793973 0.0074614 
0.021944 0.0810695 0.0074412 
0.021929 0.0827416 0.0074209 
0.021913 0.0844137 0.0074007 
0.021898 0.0860858 0.0073804 
0.021883 0.0877579 0.0073601 
0.021867 0.08943 0.0073399 
0.021852 0.0911021 0.0073196 
0.023581 0.0928765 0.0083491 
0.021821 0.0944463 0.0072791 
0.019364 0.0101424 0.0044208 
0.019348 0.0118235 0.0044004 
0.021074 0.0137749 0.0054304 
0.021058 0.0154524 0.00541 
0.021043 0.0171299 0.0053897 
0.021027 0.0188073 0.0053694 
0.021012 0.0204848 0.0053491 
0.020996 0.0221623 0.0053287 
0.020981 0.0238398 0.0053084 
0.020966 0.0255172 0.0052881 
0.02095 0.0271947 0.0052677 
0.020935 0.0288722 0.0052474 
0.020919 0.0305496 0.0052271 
0.020904 0.0322271 0.0052068 
0.020888 0.0339046 0.0051864 
0.020873 0.035582 0.0051661 
0.020857 0.0372595 0.0051458 
0.020842 0.038937 0.0051254 
0.020826 0.0406144 0.0051051 
0.020811 0.0422919 0.0050848 
0.020795 0.0439694 0.0050645 
0.02078 0.0456469 0.0050441 
0.020765 0.0473243 0.0050238 
0.020749 0.0490018 0.0050035 
0.020734 0.0506793 0.0049831 
0.020718 0.0523567 0.0049628 
0.020703 0.0540342 0.0049425 
0.020687 0.0557117 0.0049222 
0.020672 0.0573891 0.0049018 
0.020656 0.0590666 0.0048815 
0.020641 0.0607441 0.0048612 
0.020625 0.0624216 0.0048408 
0.02061 0.064099 0.0048205 
0.020595 0.0657765 0.0048002 
0.023192 0.0676879 0.0063574 
0.023177 0.06936 0.0063372 
0.023161 0.0710321 0.0063169 
0.023146 0.0727042 0.0062966 
0.023131 0.0743763 0.0062764 
0.023115 0.0760484 0.0062561 
0.0231 0.0777205 0.0062358 
0.023084 0.0793926 0.0062156 
0.023069 0.0810647 0.0061953 
0.023054 0.0827368 0.0061751 
0.023038 0.0844089 0.0061548 
0.023023 0.086081 0.0061345 
0.023007 0.0877531 0.0061143 
0.022992 0.0894252 0.006094 
0.022977 0.0910974 0.0060737 
0.022961 0.0927695 0.0060535 
0.022946 0.0944416 0.0060332 
0.015294 0.0076132 2.99988e-05 
0.017887 0.0097213 0.0015889 
0.020479 0.0118187 0.0031478 
0.020463 0.0134998 0.0031275 
0.020448 0.0151808 0.0031071 
0.022171 0.0171251 0.0041398 
0.022156 0.0188026 0.0041195 
0.02214 0.0204801 0.0040992 
0.022125 0.0221575 0.0040789 
0.022109 0.023835 0.0040585 
0.022094 0.0255125 0.0040382 
0.022078 0.0271899 0.0040179 
0.022063 0.0288674 0.0039975 
0.022048 0.0305449 0.0039772 
0.022032 0.0322224 0.0039569 
0.022017 0.0338998 0.0039366 
0.022001 0.0355773 0.0039162 
0.021986 0.0372548 0.0038959 
0.02197 0.0389322 0.0038756 
0.021955 0.0406097 0.0038552 
0.021939 0.0422872 0.0038349 
0.021924 0.0439646 0.0038146 
0.021908 0.0456421 0.0037943 
0.021893 0.0473196 0.0037739 
0.021878 0.0489971 0.0037536 
0.020123 0.0504828 0.0026793 
0.020107 0.0521639 0.0026589 
0.020092 0.0538449 0.0026386 
0.020076 0.0555259 0.0026182 
0.0218 0.0573844 0.003652 
0.021785 0.0590619 0.0036316 
0.021769 0.0607393 0.0036113 
0.021754 0.0624168 0.003591 
0.021738 0.0640943 0.0035706 
0.021723 0.0657718 0.0035503 
0.021707 0.0674492 0.00353 
0.024302 0.0693552 0.0050913 
0.024286 0.0710274 0.005071 
0.024271 0.0726995 0.0050508 
0.024255 0.0743716 0.0050305 
0.02424 0.0760437 0.0050102 
0.024225 0.0777158 0.00499 
0.024209 0.0793879 0.0049697 
0.024194 0.08106 0.0049494 
0.024178 0.0827321 0.0049292 
0.024163 0.0844042 0.0049089 
0.021537 0.0859014 0.0033064 
0.021522 0.0875789 0.0032861 
0.021507 0.0892563 0.0032657 
0.021491 0.0909338 0.0032454 
0.024086 0.0927647 0.0048076 
0.02146 0.0942887 0.0032047 
0.014712 0.0056319 -0.0022656 
0.016432 0.0076084 -0.0012305 
0.019021 0.0097166 0.000332298 
0.019005 0.011403 0.000311901 
0.021594 0.013495 0.0018749 
0.021579 0.0151761 0.0018546 
0.021563 0.0168571 0.0018342 
0.021548 0.0185382 0.0018138 
0.021532 0.0202192 0.0017935 
0.021517 0.0219002 0.0017731 
0.021501 0.0235813 0.0017527 
0.021486 0.0252623 0.0017323 
0.02147 0.0269434 0.001712 
0.021455 0.0286244 0.0016916 
0.021439 0.0303055 0.0016712 
0.021424 0.0319865 0.0016509 
0.021408 0.0336676 0.0016305 
0.021393 0.0353486 0.0016101 
0.021377 0.0370297 0.0015897 
0.021362 0.0387107 0.0015694 
0.021346 0.0403918 0.001549 
0.021331 0.0420728 0.0015286 
0.021315 0.0437539 0.0015083 
0.0213 0.0454349 0.0014879 
0.021284 0.0471159 0.0014675 
0.021269 0.048797 0.0014471 
0.021253 0.050478 0.0014268 
0.021238 0.0521591 0.0014064 
0.021222 0.0538401 0.001386 
0.021207 0.0555212 0.0013657 
0.021191 0.0572022 0.0013453 
0.021176 0.0588833 0.0013249 
0.02116 0.0605643 0.0013045 
0.021145 0.0622454 0.0012842 
0.02113 0.0639264 0.0012638 
0.022851 0.065767 0.0023005 
0.022836 0.0674445 0.0022801 
0.02282 0.0691219 0.0022598 
0.022805 0.0707994 0.0022395 
0.025396 0.0726947 0.0038049 
0.02538 0.0743668 0.0037846 
0.022759 0.0758318 0.0021785 
0.022743 0.0775093 0.0021582 
0.022728 0.0791868 0.0021378 
0.022712 0.0808642 0.0021175 
0.022697 0.0825417 0.0020972 
0.022681 0.0842192 0.0020768 
0.022666 0.0858966 0.0020565 
0.02265 0.0875741 0.0020362 
0.022635 0.0892516 0.0020159 
0.022619 0.090929 0.0019955 
0.022604 0.0926065 0.0019752 
0.020851 0.0941853 0.000897099 
0.01757 0.0076037 -0.0024911 
0.017555 0.0092954 -0.0025116 
0.02014 0.0113982 -0.000944599 
0.020124 0.0130846 -0.000965099 
0.020109 0.014771 -0.0009855 
0.022694 0.0168523 0.000581699 
0.022679 0.0185334 0.000561298 
0.022663 0.0202145 0.000540901 
0.022648 0.0218955 0.000520599 
0.022632 0.0235765 0.000500198 
0.022617 0.0252576 0.000479801 
0.02 0.0265759 -0.0011285 
0.019984 0.0282623 -0.001149 
0.02257 0.0303007 0.000418701 
0.022555 0.0319818 0.0003983 
0.022539 0.0336628 0.000377998 
0.022524 0.0353439 0.000357601 
0.022508 0.0370249 0.0003372 
0.022493 0.038706 0.000316799 
0.022477 0.040387 0.000296501 
0.022462 0.0420681 0.0002761 
0.022446 0.0437491 0.000255699 
0.022431 0.0454301 0.000235401 
0.022415 0.0471112 0.000215 
0.0224 0.0487922 0.000194599 
0.022384 0.0504733 0.000174198 
0.022369 0.0521543 0.0001539 
0.022353 0.0538354 0.000133499 
0.022338 0.0555164 0.000113098 
0.022322 0.0571975 9.28001e-05 
0.022307 0.0588785 7.23991e-05 
0.022291 0.0605596 5.19981e-05 
0.022276 0.0622406 3.1601e-05 
0.02226 0.0639217 1.12991e-05 
0.022245 0.0656027 -9.10187e-06 
0.022229 0.0672838 -2.94991e-05 
0.023949 0.0691172 0.0010099 
0.023933 0.0707947 0.000989601 
0.023918 0.0724721 0.000969299 
0.023902 0.0741496 0.000948898 
0.023887 0.0758271 0.0009286 
0.023872 0.0775045 0.000908298 
0.023856 0.079182 0.000888 
0.023841 0.0808595 0.000867599 
0.023825 0.082537 0.000847301 
0.02381 0.0842144 0.000827 
0.023794 0.0858919 0.000806599 
0.023779 0.0875694 0.000786301 
0.023763 0.0892468 0.000765999 
0.023748 0.0909243 0.000745701 
0.021997 0.0924995 -0.000335098 
0.021259 0.0130799 -0.0022216 
0.021243 0.0147663 -0.002242 
0.021228 0.0164527 -0.0022625 
0.021212 0.0181391 -0.0022829 
0.021197 0.0198255 -0.0023033 
0.021181 0.0215119 -0.0023238 
0.021165 0.0231983 -0.0023442 
0.02115 0.0248847 -0.0023647 
0.021134 0.0265711 -0.0023851 
0.021119 0.0282576 -0.0024055 
0.021103 0.029944 -0.002426 
0.021088 0.0316304 -0.0024464 
0.021072 0.0333168 -0.0024668 
0.021057 0.0350032 -0.0024873 
0.021041 0.0366896 -0.0025077 
0.021026 0.038376 -0.0025281 
0.02101 0.0400624 -0.0025486 
0.02336 0.067279 -0.001282 
0.023345 0.06896 -0.0013024 
0.023329 0.0706411 -0.0013228 
0.023314 0.0723221 -0.0013431 
0.023298 0.0740032 -0.0013635 
0.025015 0.0758223 -0.000321201 
0.025 0.0774998 -0.000341599 
0.024984 0.0791773 -0.0003619 
0.023236 0.0807274 -0.001445 
0.023221 0.0824084 -0.0014654 
0.023205 0.0840895 -0.0014857 
0.02319 0.0857705 -0.0015061 
0.023174 0.0874516 -0.0015265 
0.023159 0.0891326 -0.0015468 
0.023143 0.0908136 -0.0015672 
