ply
format ascii 1.0
comment FreeCAD generated
element vertex 1375
property float x
property float y
property float z
end_header
8.99400 36.6548 52.6290 
8.97900 38.2912 52.6090 
8.94800 41.5639 52.5690 
13.2820 63.2611 54.7470 
13.2670 64.8885 54.7270 
15.0640 66.6787 55.6820 
15.0490 68.3025 55.6620 
16.4850 30.9501 54.9050 
14.6610 32.3360 53.9090 
14.6460 33.9634 53.8890 
14.6310 35.5908 53.8700 
14.6160 37.2182 53.8500 
11.8880 38.5102 52.3660 
11.8730 40.1429 52.3460 
11.8580 41.7757 52.3260 
11.8430 43.4084 52.3070 
11.8280 45.0412 52.2870 
11.8130 46.6740 52.2670 
11.7980 48.3067 52.2470 
11.7830 49.9395 52.2270 
11.7680 51.5722 52.2080 
11.7530 53.2050 52.1880 
11.7380 54.8378 52.1680 
11.7230 56.4705 52.1480 
14.4220 58.3743 53.5940 
14.4070 60.0017 53.5740 
14.3920 61.6291 53.5540 
14.3770 63.2565 53.5340 
16.1710 65.0503 54.4920 
16.1560 66.6741 54.4720 
16.1410 68.2979 54.4520 
16.1260 69.9218 54.4330 
20.3170 28.0709 55.2020 
20.3020 29.6893 55.1830 
20.2870 31.3078 55.1630 
17.5620 32.5693 53.6750 
17.5480 34.1931 53.6560 
15.7260 35.5862 52.6570 
15.7110 37.2136 52.6370 
15.6960 38.8410 52.6180 
15.6810 40.4684 52.5980 
15.6660 42.0958 52.5780 
15.6510 43.7232 52.5590 
15.6360 45.3506 52.5390 
12.9110 46.6693 51.0500 
12.8960 48.3021 51.0310 
12.8810 49.9349 51.0110 
12.8660 51.5676 50.9910 
12.8510 53.2004 50.9710 
12.8360 54.8332 50.9510 
15.5310 56.7423 52.4010 
15.5160 58.3697 52.3810 
15.5010 59.9971 52.3610 
15.4860 61.6245 52.3420 
15.4710 63.2519 52.3220 
17.2630 65.0457 53.2820 
17.2480 66.6695 53.2620 
17.2330 68.2934 53.2430 
17.2180 69.9172 53.2230 
17.2030 71.5410 53.2030 
14.2200 23.8061 50.1110 
21.4200 26.4478 54.0160 
21.4050 28.0663 53.9970 
21.3910 29.6847 53.9770 
18.6700 30.9409 52.4850 
18.6550 32.5647 52.4660 
18.6400 34.1885 52.4460 
16.8210 35.5816 51.4450 
16.8060 37.2090 51.4250 
16.7910 38.8364 51.4050 
16.7760 40.4638 51.3850 
16.7610 42.0912 51.3660 
16.7460 43.7186 51.3460 
16.7310 45.3460 51.3260 
16.7160 46.9734 51.3070 
16.7010 48.6007 51.2870 
13.9800 49.9302 49.7940 
13.9640 51.5630 49.7740 
13.9490 53.1958 49.7550 
16.6410 55.1103 51.2080 
16.6260 56.7377 51.1880 
16.6110 58.3651 51.1690 
16.5960 59.9925 51.1490 
16.5810 61.6199 51.1290 
16.5660 63.2473 51.1090 
16.5510 64.8747 51.0900 
18.3410 66.6649 52.0520 
18.3260 68.2888 52.0330 
18.3110 69.9126 52.0130 
16.4910 71.3843 51.0110 
18.0210 24.1852 50.3700 
19.8070 26.0648 51.3340 
19.7920 27.6887 51.3150 
19.7770 29.3125 51.2950 
19.7620 30.9363 51.2750 
19.7470 32.5601 51.2560 
17.9310 33.9496 50.2520 
17.9160 35.5770 50.2320 
17.9010 37.2044 50.2120 
17.8860 38.8318 50.1930 
17.8710 40.4592 50.1730 
17.8560 42.0865 50.1530 
17.8410 43.7139 50.1330 
17.8260 45.3413 50.1140 
17.8110 46.9687 50.0940 
17.7960 48.5961 50.0740 
17.7810 50.2235 50.0550 
17.7660 51.8509 50.0350 
17.7510 53.4783 50.0150 
17.7360 55.1057 49.9950 
17.7210 56.7331 49.9760 
17.7060 58.3605 49.9560 
17.6910 59.9879 49.9360 
17.6760 61.6153 49.9170 
17.6610 63.2427 49.8970 
17.6460 64.8701 49.8770 
17.6310 66.4975 49.8570 
17.6160 68.1249 49.8380 
17.6010 69.7523 49.8180 
14.8820 71.1515 48.3200 
14.6330 21.9046 46.7110 
19.1150 24.1806 49.1580 
20.8990 26.0603 50.1240 
20.8840 27.6841 50.1050 
20.8690 29.3079 50.0850 
19.0550 30.6902 49.0790 
19.0400 32.3176 49.0590 
19.0250 33.9450 49.0390 
19.0100 35.5724 49.0200 
18.9950 37.1998 49.0000 
18.9800 38.8272 48.9800 
18.9650 40.4546 48.9600 
18.9500 42.0819 48.9410 
18.9350 43.7093 48.9210 
18.9200 45.3367 48.9010 
18.9050 46.9641 48.8810 
18.8900 48.5915 48.8620 
18.8750 50.2189 48.8420 
18.8600 51.8463 48.8220 
18.8450 53.4737 48.8030 
18.8300 55.1011 48.7830 
18.8150 56.7285 48.7630 
18.8000 58.3559 48.7430 
18.7850 59.9833 48.7240 
16.0710 61.3503 47.2230 
16.0560 62.9831 47.2030 
18.7400 64.8655 48.6650 
18.7250 66.4929 48.6450 
18.7100 68.1203 48.6250 
18.6950 69.7477 48.6050 
15.9810 71.1469 47.1040 
15.9660 72.7797 47.0840 
17.5150 23.7922 46.4610 
20.1950 25.8034 47.9250 
20.1800 27.4308 47.9060 
20.1650 29.0582 47.8860 
20.1500 30.6856 47.8660 
20.1350 32.3130 47.8460 
20.1200 33.9404 47.8270 
20.1050 35.5678 47.8070 
20.0900 37.1952 47.7870 
20.0750 38.8225 47.7680 
20.0600 40.4499 47.7480 
20.0450 42.0773 47.7280 
20.0300 43.7047 47.7080 
20.0150 45.3321 47.6890 
20.0000 46.9595 47.6690 
19.9850 48.5869 47.6490 
19.9700 50.2143 47.6290 
19.9550 51.8417 47.6100 
19.9400 53.4691 47.5900 
19.9250 55.0965 47.5700 
19.9100 56.7239 47.5510 
19.8950 58.3513 47.5310 
17.1840 59.7130 46.0260 
17.1690 61.3457 46.0060 
17.1540 62.9785 45.9860 
17.1390 64.6112 45.9670 
19.8200 66.4883 47.4320 
17.1090 67.8768 45.9270 
17.0940 69.5095 45.9070 
17.0790 71.1423 45.8870 
17.0640 72.7750 45.8680 
15.2510 74.2628 44.8573 
16.8190 23.5317 44.2528 
18.5990 25.4203 45.2250 
18.5830 27.0531 45.2050 
18.5680 28.6859 45.1850 
18.5530 30.3186 45.1650 
18.5380 31.9514 45.1460 
18.5230 33.5841 45.1260 
18.5080 35.2169 45.1060 
18.4930 36.8497 45.0860 
21.1700 38.8179 46.5550 
21.1550 40.4453 46.5350 
21.1400 42.0727 46.5160 
21.1250 43.7001 46.4960 
21.1100 45.3275 46.4760 
21.0950 46.9549 46.4560 
21.0800 48.5823 46.4370 
21.0650 50.2097 46.4170 
21.0500 51.8371 46.3970 
21.0350 53.4645 46.3770 
21.0200 55.0919 46.3580 
21.0050 56.7193 46.3380 
18.2980 58.0756 44.8291 
18.2830 59.7083 44.8093 
18.2680 61.3411 44.7895 
18.2520 62.9738 44.7698 
18.2370 64.6066 44.7500 
18.2220 66.2394 44.7302 
18.2070 67.8721 44.7104 
18.1920 69.5049 44.6906 
18.1770 71.1377 44.6708 
18.1620 72.7704 44.6510 
18.1470 74.4032 44.6312 
16.3370 75.8945 43.6182 
13.6290 77.3241 42.1084 
17.9200 23.5271 43.0336 
17.9050 25.1634 43.0137 
17.8900 26.7998 42.9939 
17.8750 28.4361 42.9741 
19.6520 30.3140 43.9489 
19.6370 31.9468 43.9292 
19.6220 33.5795 43.9094 
19.6070 35.2123 43.8896 
19.5920 36.8450 43.8698 
19.5760 38.4778 43.8500 
19.5610 40.1106 43.8302 
19.5460 41.7433 43.8104 
19.5310 43.3761 43.7906 
19.5160 45.0088 43.7709 
19.5010 46.6416 43.7511 
19.4860 48.2744 43.7313 
19.4710 49.9071 43.7115 
19.4560 51.5399 43.6917 
19.4410 53.1727 43.6719 
19.4260 54.8054 43.6521 
19.4110 56.4382 43.6323 
19.3960 58.0709 43.6126 
19.3810 59.7037 43.5928 
19.3660 61.3365 43.5730 
19.3510 62.9692 43.5532 
19.3360 64.6020 43.5334 
19.3210 66.2347 43.5136 
19.3060 67.8675 43.4938 
19.2910 69.5003 43.4741 
19.2760 71.1330 43.4543 
19.2600 72.7658 43.4345 
17.4530 74.2536 42.4188 
17.4380 75.8899 42.3990 
17.4230 77.5262 42.3792 
14.7180 78.9612 40.8653 
16.3520 21.4969 40.3384 
16.3370 23.1386 40.3185 
19.0060 25.1588 41.7945 
18.9910 26.7951 41.7747 
18.9760 28.4315 41.7548 
18.9610 30.0678 41.7350 
20.7350 31.9421 42.7126 
20.7200 33.5749 42.6928 
20.7050 35.2077 42.6730 
20.6900 36.8404 42.6532 
20.6750 38.4732 42.6335 
20.6600 40.1059 42.6137 
20.6450 41.7387 42.5939 
20.6300 43.3715 42.5741 
20.6150 45.0042 42.5543 
20.6000 46.6370 42.5345 
20.5850 48.2698 42.5147 
20.5690 49.9025 42.4949 
20.5540 51.5353 42.4752 
20.5390 53.1680 42.4554 
20.5240 54.8008 42.4356 
20.5090 56.4336 42.4158 
18.7040 57.8855 41.3979 
18.6890 59.5219 41.3781 
18.6740 61.1582 41.3582 
18.6590 62.7946 41.3384 
20.4340 64.5974 42.3169 
20.4190 66.2301 42.2971 
20.4040 67.8629 42.2773 
20.3890 69.4957 42.2575 
18.5840 70.9762 41.2393 
18.5690 72.6126 41.2194 
18.5530 74.2489 41.1996 
18.5380 75.8853 41.1798 
18.5230 77.5216 41.1599 
15.8230 78.9565 39.6421 
15.8070 80.5982 39.6222 
15.6700 21.2328 38.1154 
17.4410 23.1340 39.0953 
17.4260 24.7757 39.0754 
17.4110 26.4174 39.0555 
20.0760 28.4268 40.5356 
20.0610 30.0632 40.5158 
20.0460 31.6995 40.4960 
20.0310 33.3358 40.4761 
20.0160 34.9722 40.4563 
20.0010 36.6085 40.4365 
21.7730 38.4686 41.4169 
19.9710 39.8812 40.3968 
21.7430 41.7341 41.3773 
21.7280 43.3668 41.3575 
21.7130 44.9996 41.3378 
21.6980 46.6324 41.3180 
19.8950 48.0629 40.2977 
19.8800 49.6992 40.2778 
19.8650 51.3356 40.2580 
19.8500 52.9719 40.2382 
19.8350 54.6082 40.2183 
19.8200 56.2446 40.1985 
19.8050 57.8809 40.1787 
19.7900 59.5173 40.1589 
19.7750 61.1536 40.1390 
19.7600 62.7899 40.1192 
19.7450 64.4263 40.0994 
19.7300 66.0626 40.0795 
19.7150 67.6989 40.0597 
19.6990 69.3353 40.0399 
19.6840 70.9716 40.0201 
19.6690 72.6080 40.0002 
19.6540 74.2443 39.9804 
19.6390 75.8806 39.9606 
19.6240 77.5170 39.9407 
16.9270 78.9519 38.4189 
16.9120 80.5936 38.3990 
14.1000 20.8389 35.3857 
16.7610 22.8734 36.8695 
16.7460 24.5187 36.8496 
18.5150 26.4127 37.8323 
18.5000 28.0544 37.8124 
18.4850 29.6961 37.7925 
21.1470 31.6949 39.2767 
21.1320 33.3312 39.2569 
21.1170 34.9676 39.2371 
21.1020 36.6039 39.2173 
21.0870 38.2402 39.1974 
21.0720 39.8766 39.1776 
21.0570 41.5129 39.1578 
21.0410 43.1492 39.1379 
21.0260 44.7856 39.1181 
21.0110 46.4219 39.0983 
20.9960 48.0583 39.0784 
20.9810 49.6946 39.0586 
20.9660 51.3309 39.0388 
20.9510 52.9673 39.0190 
20.9360 54.6036 38.9991 
20.9210 56.2399 38.9793 
20.9060 57.8763 38.9595 
20.8910 59.5126 38.9396 
20.8760 61.1490 38.9198 
20.8610 62.7853 38.9000 
20.8450 64.4216 38.8801 
20.8300 66.0580 38.8603 
20.8150 67.6943 38.8405 
20.8000 69.3307 38.8207 
20.7850 70.9670 38.8008 
20.7700 72.6033 38.7810 
20.7550 74.2397 38.7612 
20.7400 75.8760 38.7413 
18.0460 77.3055 37.2155 
18.0310 78.9472 37.1956 
18.0160 80.5889 37.1757 
15.2100 20.8342 34.1558 
15.1950 22.4849 34.1358 
17.8530 24.5140 35.6237 
17.8380 26.1593 35.6038 
19.6050 28.0498 36.5892 
19.5890 29.6915 36.5693 
19.5740 31.3332 36.5494 
19.5590 32.9749 36.5295 
19.5440 34.6166 36.5096 
22.2020 36.5993 37.9980 
22.1870 38.2356 37.9782 
22.1720 39.8719 37.9584 
22.1570 41.5083 37.9386 
22.1420 43.1446 37.9187 
22.1270 44.7809 37.8989 
22.1120 46.4173 37.8791 
22.0970 48.0536 37.8592 
22.0820 49.6900 37.8394 
22.0670 51.3263 37.8196 
22.0520 52.9626 37.7997 
19.3630 54.3170 36.2709 
19.3470 55.9587 36.2510 
19.3320 57.6004 36.2311 
19.3170 59.2421 36.2112 
21.9760 61.1443 37.7006 
21.9610 62.7807 37.6808 
21.9460 64.4170 37.6609 
21.9310 66.0533 37.6411 
21.9160 67.6897 37.6213 
21.9010 69.3260 37.6014 
21.8860 70.9624 37.5816 
21.8710 72.5987 37.5618 
21.8560 74.2350 37.5419 
19.1660 75.6592 36.0122 
19.1510 77.3009 35.9923 
19.1360 78.9426 35.9724 
19.1200 80.5843 35.9525 
14.6470 81.9081 33.4157 
14.5410 20.5701 31.9181 
16.3050 22.4802 32.9060 
16.2900 24.1309 32.8859 
18.9440 26.1547 34.3779 
18.9290 27.7999 34.3580 
20.6940 29.6868 35.3461 
20.6790 31.3286 35.3262 
20.6640 32.9702 35.3063 
20.6480 34.6119 35.2864 
20.6330 36.2537 35.2665 
23.2880 38.2310 36.7590 
20.6030 39.5371 35.2267 
23.2580 41.5036 36.7193 
23.2430 43.1400 36.6995 
23.2280 44.7763 36.6797 
20.5430 46.1039 35.1471 
20.5270 47.7456 35.1272 
20.5120 49.3873 35.1073 
20.4970 51.0290 35.0874 
20.4820 52.6707 35.0675 
20.4670 54.3124 35.0476 
20.4520 55.9541 35.0277 
20.4370 57.5958 35.0078 
20.4210 59.2375 34.9879 
20.4060 60.8792 34.9680 
20.3910 62.5209 34.9482 
20.3760 64.1626 34.9283 
20.3610 65.8043 34.9084 
23.0170 67.6850 36.4020 
23.0020 69.3214 36.3822 
20.3160 70.7294 34.8487 
20.3000 72.3711 34.8288 
20.2850 74.0128 34.8089 
20.2700 75.6545 34.7890 
20.2550 77.2962 34.7691 
20.2400 78.9379 34.7492 
20.2250 80.5796 34.7293 
15.7580 81.9034 32.1858 
15.7420 83.5541 32.1658 
15.6530 20.5654 30.6856 
17.4150 22.4755 31.6761 
17.4000 24.1262 31.6561 
20.0510 26.1500 33.1520 
20.0360 27.7953 33.1321 
21.7980 29.6822 34.1228 
21.7830 31.3239 34.1029 
21.7680 32.9656 34.0831 
21.7530 34.6073 34.0632 
21.7380 36.2490 34.0433 
24.3890 38.2263 35.5398 
21.7070 39.5324 34.0035 
24.3590 41.4990 35.5001 
24.3440 43.1353 35.4803 
24.3290 44.7717 35.4604 
21.6470 46.0992 33.9239 
21.6320 47.7409 33.9040 
21.6170 49.3826 33.8841 
24.2680 51.3170 35.3811 
24.2530 52.9534 35.3613 
21.5710 54.3077 33.8244 
21.5560 55.9494 33.8045 
21.5410 57.5911 33.7846 
21.5260 59.2329 33.7647 
24.1780 61.1351 35.2622 
24.1630 62.7714 35.2423 
24.1480 64.4077 35.2225 
24.1330 66.0441 35.2027 
24.1170 67.6804 35.1828 
24.1020 69.3168 35.1630 
24.0870 70.9531 35.1432 
24.0720 72.5894 35.1233 
24.0570 74.2258 35.1035 
21.3750 75.6499 33.5658 
21.3590 77.2916 33.5459 
21.3440 78.9333 33.5260 
21.3290 80.5750 33.5061 
16.8680 81.8988 30.9560 
16.8530 83.5494 30.9360 
16.7660 20.5607 29.4530 
18.5260 22.4709 30.4462 
18.5110 24.1215 30.4262 
21.1580 26.1454 31.9261 
21.1430 27.7906 31.9062 
21.1280 29.4359 31.8863 
22.8870 31.3193 32.8797 
22.8720 32.9610 32.8598 
22.8570 34.6027 32.8399 
22.8420 36.2444 32.8200 
22.8270 37.8861 32.8001 
22.8120 39.5278 32.7803 
22.7970 41.1695 32.7604 
22.7810 42.8112 32.7405 
22.7660 44.4529 32.7206 
22.7510 46.0946 32.7007 
22.7360 47.7363 32.6808 
22.7210 49.3780 32.6609 
22.7060 51.0197 32.6410 
22.6910 52.6614 32.6211 
22.6760 54.3031 32.6012 
22.6600 55.9448 32.5813 
22.6450 57.5865 32.5614 
22.6300 59.2282 32.5415 
22.6150 60.8699 32.5216 
22.6000 62.5116 32.5017 
22.5850 64.1533 32.4818 
22.5700 65.7950 32.4619 
22.5550 67.4367 32.4420 
22.5390 69.0784 32.4221 
22.5240 70.7201 32.4022 
22.5090 72.3618 32.3823 
22.4940 74.0035 32.3624 
22.4790 75.6452 32.3426 
22.4640 77.2869 32.3227 
22.4490 78.9286 32.3028 
22.4340 80.5704 32.2829 
17.9780 81.8941 29.7261 
17.9630 83.5447 29.7061 
15.2200 20.1667 26.6968 
17.8640 22.2103 28.2004 
19.6210 24.1169 29.1963 
19.6060 25.7675 29.1763 
22.2490 27.7860 30.6803 
22.2340 29.4313 30.6604 
22.2190 31.0765 30.6404 
22.2040 32.7218 30.6205 
22.1890 34.3671 30.6006 
23.9460 36.2397 31.5968 
23.9310 37.8814 31.5769 
23.9160 39.5231 31.5570 
23.9010 41.1648 31.5371 
23.8860 42.8065 31.5172 
22.0980 44.2388 30.4809 
22.0830 45.8841 30.4610 
22.0670 47.5293 30.4411 
22.0520 49.1746 30.4211 
22.0370 50.8199 30.4012 
22.0220 52.4652 30.3813 
22.0070 54.1105 30.3613 
21.9920 55.7557 30.3414 
21.9770 57.4010 30.3214 
21.9610 59.0463 30.3015 
21.9460 60.6916 30.2816 
21.9310 62.3369 30.2616 
21.9160 63.9821 30.2417 
23.6740 65.7904 31.2387 
23.6590 67.4321 31.2188 
23.6440 69.0738 31.1989 
23.6290 70.7155 31.1790 
23.6130 72.3572 31.1591 
23.5980 73.9989 31.1392 
23.5830 75.6406 31.1193 
23.5680 77.2823 31.0995 
23.5530 78.9240 31.0796 
23.5380 80.5657 31.0597 
19.0890 81.8894 28.4962 
19.0730 83.5401 28.4762 
17.2840 85.0707 27.4387 
16.3370 20.1620 25.4602 
18.9760 22.2056 26.9679 
20.7310 24.1122 27.9664 
20.7160 25.7628 27.9464 
20.7010 27.4135 27.9264 
20.6860 29.0641 27.9064 
20.6700 30.7148 27.8864 
20.6550 32.3654 27.8664 
23.2960 34.3624 29.3747 
23.2800 36.0077 29.3548 
23.2650 37.6530 29.3348 
23.2500 39.2983 29.3149 
23.2350 40.9436 29.2949 
23.2200 42.5888 29.2750 
23.2050 44.2341 29.2551 
23.1890 45.8794 29.2351 
23.1740 47.5247 29.2152 
20.5030 48.8719 27.6664 
20.4880 50.5225 27.6464 
20.4730 52.1731 27.6264 
20.4580 53.8238 27.6064 
20.4420 55.4744 27.5864 
20.4270 57.1251 27.5664 
20.4120 58.7757 27.5464 
20.3970 60.4264 27.5264 
20.3810 62.0770 27.5064 
23.0230 63.9775 29.0158 
23.0070 65.6228 28.9959 
22.9920 67.2680 28.9759 
22.9770 68.9133 28.9560 
22.9620 70.5586 28.9360 
22.9470 72.2039 28.9161 
22.9320 73.8492 28.8962 
22.9160 75.4944 28.8762 
24.6720 77.2776 29.8762 
24.6570 78.9194 29.8563 
22.8710 80.4303 28.8164 
20.1990 81.8847 27.2663 
18.4120 83.4118 26.2262 
18.3970 85.0660 26.2061 
15.7250 86.5455 24.6557 
17.4530 20.1573 24.2237 
20.0890 22.2009 25.7353 
20.0740 23.8551 25.7153 
21.8260 25.7581 26.7166 
21.8110 27.4088 26.6966 
21.7960 29.0594 26.6766 
21.7810 30.7101 26.6566 
21.7660 32.3607 26.6366 
21.7500 34.0114 26.6165 
21.7350 35.6620 26.5965 
21.7200 37.3127 26.5765 
21.7050 38.9633 26.5565 
21.6900 40.6140 26.5365 
21.6740 42.2646 26.5165 
21.6590 43.9152 26.4965 
21.6440 45.5659 26.4765 
21.6290 47.2165 26.4565 
21.6130 48.8672 26.4365 
21.5980 50.5178 26.4165 
21.5830 52.1685 26.3965 
21.5680 53.8191 26.3765 
21.5530 55.4698 26.3565 
21.5370 57.1204 26.3365 
21.5220 58.7710 26.3165 
21.5070 60.4217 26.2965 
21.4920 62.0723 26.2765 
21.4770 63.7230 26.2565 
21.4610 65.3736 26.2365 
24.0990 67.2634 27.7500 
24.0840 68.9087 27.7301 
24.0690 70.5539 27.7102 
24.0540 72.1992 27.6902 
24.0380 73.8445 27.6703 
24.0230 75.4898 27.6504 
24.0080 77.1351 27.6304 
23.9930 78.7803 27.6105 
21.3240 80.2294 26.0564 
19.5400 81.7529 25.0137 
19.5250 83.4071 24.9936 
19.5100 85.0613 24.9736 
16.8410 86.5408 23.4192 
16.8260 88.2004 23.3991 
16.8190 18.2299 21.9835 
18.5690 20.1526 22.9871 
21.2020 22.1962 24.5028 
21.1870 23.8504 24.4827 
21.1710 25.5046 24.4627 
21.1560 27.1589 24.4427 
21.1410 28.8131 24.4226 
21.1260 30.4673 24.4026 
21.1110 32.1215 24.3825 
21.0950 33.7757 24.3625 
21.0800 35.4300 24.3424 
21.0650 37.0842 24.3224 
21.0500 38.7384 24.3023 
21.0340 40.3926 24.2823 
21.0190 42.0469 24.2622 
21.0040 43.7011 24.2422 
20.9890 45.3553 24.2221 
20.9730 47.0095 24.2021 
20.9580 48.6637 24.1821 
20.9430 50.3180 24.1620 
20.9280 51.9722 24.1420 
20.9120 53.6264 24.1219 
20.8970 55.2806 24.1019 
22.6480 57.1157 25.1066 
22.6330 58.7664 25.0866 
22.6170 60.4170 25.0666 
22.6020 62.0677 25.0466 
22.5870 63.7183 25.0266 
22.5720 65.3690 25.0066 
22.5570 67.0196 24.9866 
22.5410 68.6702 24.9666 
22.5260 70.3209 24.9466 
22.5110 71.9715 24.9266 
22.4960 73.6222 24.9066 
22.4800 75.2728 24.8866 
22.4650 76.9235 24.8666 
22.4500 78.5741 24.8466 
22.4350 80.2248 24.8266 
20.6530 81.7482 23.7811 
20.6380 83.4024 23.7611 
20.6230 85.0566 23.7410 
17.9580 86.5361 22.1827 
17.9420 88.1957 22.1626 
17.9270 89.8553 22.1424 
15.3090 16.1619 19.2248 
17.9380 18.2252 20.7442 
17.9230 19.8884 20.7241 
19.6710 21.8075 21.7305 
22.2990 23.8457 23.2502 
22.2840 25.5000 23.2302 
22.2690 27.1542 23.2101 
22.2540 28.8084 23.1901 
22.2390 30.4626 23.1700 
22.2230 32.1168 23.1500 
22.2080 33.7711 23.1299 
22.1930 35.4253 23.1099 
22.1780 37.0795 23.0898 
22.1620 38.7337 23.0698 
22.1470 40.3880 23.0497 
22.1320 42.0422 23.0297 
22.1170 43.6964 23.0096 
22.1010 45.3506 22.9896 
22.0860 47.0048 22.9696 
22.0710 48.6591 22.9495 
22.0560 50.3133 22.9295 
22.0400 51.9675 22.9094 
22.0250 53.6217 22.8894 
22.0100 55.2759 22.8693 
21.9950 56.9302 22.8493 
21.9790 58.5844 22.8292 
21.9640 60.2386 22.8092 
21.9490 61.8928 22.7891 
21.9340 63.5471 22.7691 
21.9180 65.2013 22.7490 
21.9030 66.8555 22.7290 
21.8880 68.5097 22.7089 
21.8730 70.1639 22.6889 
21.8570 71.8182 22.6689 
21.8420 73.4724 22.6488 
21.8270 75.1266 22.6288 
21.8120 76.7808 22.6087 
21.7960 78.4351 22.5887 
21.7810 80.0893 22.5686 
21.7660 81.7435 22.5486 
21.7510 83.3977 22.5285 
19.0890 84.8718 20.9662 
19.0740 86.5314 20.9461 
19.0590 88.1910 20.9260 
19.0430 89.8506 20.9059 
19.0280 91.5102 20.8858 
14.7020 12.5463 16.9931 
14.6870 14.2184 16.9728 
16.4320 16.1572 17.9816 
16.4170 17.8257 17.9614 
19.0420 19.8836 19.4849 
19.0260 21.5468 19.4647 
20.7720 23.4624 20.4738 
20.7560 25.1220 20.4537 
20.7410 26.7816 20.4336 
20.7260 28.4412 20.4135 
20.7100 30.1008 20.3934 
20.6950 31.7603 20.3733 
23.3210 33.7664 21.8974 
23.3060 35.4206 21.8773 
23.2900 37.0748 21.8573 
23.2750 38.7290 21.8372 
23.2600 40.3833 21.8172 
23.2450 42.0375 21.7971 
23.2290 43.6917 21.7771 
23.2140 45.3459 21.7570 
23.1990 47.0002 21.7370 
23.1840 48.6544 21.7170 
23.1680 50.3086 21.6969 
23.1530 51.9628 21.6769 
23.1380 53.6170 21.6568 
23.1230 55.2713 21.6368 
23.1070 56.9255 21.6167 
23.0920 58.5797 21.5967 
23.0770 60.2339 21.5766 
23.0620 61.8881 21.5566 
23.0460 63.5424 21.5365 
23.0310 65.1966 21.5165 
23.0160 66.8508 21.4964 
23.0010 68.5050 21.4764 
22.9850 70.1593 21.4564 
22.9700 71.8135 21.4363 
22.9550 73.4677 21.4163 
22.9400 75.1219 21.3962 
22.9240 76.7761 21.3762 
22.9090 78.4304 21.3561 
22.8940 80.0846 21.3361 
20.2360 81.5479 19.7699 
20.2210 83.2075 19.7498 
20.2060 84.8671 19.7297 
20.1900 86.5267 19.7096 
20.1750 88.1863 19.6895 
20.1600 89.8459 19.6694 
18.3830 91.3997 18.6182 
18.3670 93.0628 18.5981 
15.8430 10.8694 15.7675 
15.8270 12.5415 15.7472 
15.8120 14.2136 15.7269 
15.7960 15.8857 15.7067 
17.5390 17.8210 16.7182 
17.5240 19.4895 16.6980 
17.5080 21.1581 16.6778 
21.8880 23.4577 19.2373 
21.8730 25.1173 19.2172 
21.8570 26.7769 19.1971 
21.8420 28.4365 19.1770 
21.8270 30.0961 19.1568 
21.8110 31.7556 19.1367 
21.7960 33.4152 19.1166 
21.7810 35.0748 19.0965 
21.7660 36.7344 19.0764 
21.7500 38.3940 19.0563 
21.7350 40.0536 19.0362 
21.7200 41.7132 19.0161 
21.7040 43.3727 18.9960 
21.6890 45.0323 18.9758 
21.6740 46.6919 18.9557 
21.6590 48.3515 18.9356 
21.6430 50.0111 18.9155 
21.6280 51.6707 18.8954 
21.6130 53.3303 18.8753 
21.5970 54.9899 18.8552 
21.5820 56.6494 18.8351 
21.5670 58.3090 18.8149 
21.5510 59.9686 18.7948 
21.5360 61.6282 18.7747 
21.5210 63.2878 18.7546 
24.1440 65.1919 20.2840 
24.1290 66.8461 20.2639 
21.4750 68.2665 18.6943 
21.4600 69.9261 18.6742 
21.4440 71.5857 18.6541 
21.4290 73.2453 18.6339 
21.4140 74.9049 18.6138 
24.0370 76.7715 20.1436 
24.0220 78.4257 20.1236 
24.0070 80.0799 20.1035 
21.3530 81.5432 18.5334 
21.3370 83.2028 18.5133 
21.3220 84.8624 18.4932 
21.3070 86.5220 18.4731 
19.5320 88.0686 17.4193 
19.5170 89.7318 17.3992 
19.5010 91.3950 17.3790 
19.4860 93.0581 17.3589 
16.9670 10.8647 14.5216 
16.9520 12.5368 14.5013 
16.9370 14.2089 14.4811 
16.9210 15.8810 14.4608 
16.9060 17.5531 14.4405 
16.8900 19.2252 14.4203 
18.6310 21.1534 15.4346 
21.2490 23.2006 16.9662 
21.2330 24.8637 16.9460 
21.2180 26.5269 16.9259 
21.2030 28.1901 16.9057 
22.9430 30.0914 17.9203 
22.9280 31.7509 17.9002 
22.9130 33.4105 17.8801 
22.8970 35.0701 17.8600 
22.8820 36.7297 17.8399 
22.8670 38.3893 17.8197 
22.8510 40.0489 17.7996 
22.8360 41.7085 17.7795 
22.8210 43.3681 17.7594 
22.8050 45.0276 17.7393 
22.7900 46.6872 17.7192 
22.7750 48.3468 17.6991 
22.7600 50.0064 17.6790 
22.7440 51.6660 17.6589 
22.7290 53.3256 17.6387 
22.7140 54.9852 17.6186 
22.6980 56.6447 17.5985 
22.6830 58.3043 17.5784 
22.6680 59.9639 17.5583 
22.6530 61.6235 17.5382 
22.6370 63.2831 17.5181 
22.6220 64.9427 17.4980 
22.6070 66.6023 17.4778 
22.5910 68.2619 17.4577 
22.5760 69.9214 17.4376 
22.5610 71.5810 17.4175 
22.5460 73.2406 17.3974 
22.5300 74.9002 17.3773 
22.5150 76.5598 17.3572 
22.5000 78.2194 17.3371 
22.4840 79.8790 17.3170 
22.4690 81.5385 17.2968 
22.4540 83.1981 17.2767 
22.4380 84.8577 17.2566 
20.6660 86.4008 16.2003 
20.6510 88.0639 16.1801 
20.6360 89.7271 16.1600 
20.6200 91.3903 16.1398 
20.6050 93.0534 16.1197 
15.4780 8.76630 11.7407 
18.0920 10.8600 13.2757 
18.0770 12.5321 13.2555 
18.0610 14.2042 13.2352 
18.0460 15.8763 13.2149 
18.0300 17.5484 13.1947 
18.0150 19.2205 13.1744 
18.0000 20.8926 13.1541 
19.7380 22.8172 14.1711 
19.7220 24.4857 14.1509 
22.3370 26.5222 15.6866 
22.3210 28.1854 15.6665 
22.3060 29.8485 15.6463 
22.2910 31.5117 15.6262 
22.2750 33.1748 15.6060 
22.2600 34.8380 15.5859 
22.2450 36.5012 15.5657 
22.2290 38.1643 15.5456 
22.2140 39.8275 15.5254 
22.1990 41.4907 15.5052 
22.1830 43.1538 15.4851 
22.1680 44.8170 15.4649 
22.1530 46.4801 15.4448 
22.1380 48.1433 15.4246 
22.1220 49.8065 15.4045 
22.1070 51.4696 15.3843 
22.0920 53.1328 15.3642 
22.0760 54.7960 15.3440 
22.0610 56.4591 15.3239 
22.0460 58.1223 15.3037 
22.0300 59.7855 15.2835 
22.0150 61.4486 15.2634 
22.0000 63.1118 15.2432 
21.9840 64.7749 15.2231 
21.9690 66.4381 15.2029 
21.9540 68.1013 15.1828 
21.9380 69.7644 15.1626 
23.6770 71.5763 16.1810 
23.6620 73.2359 16.1609 
23.6470 74.8955 16.1408 
23.6310 76.5551 16.1206 
23.6160 78.2147 16.1005 
23.6010 79.8743 16.0804 
23.5850 81.5338 16.0603 
23.5700 83.1934 16.0402 
21.8000 84.7329 14.9812 
21.7850 86.3961 14.9611 
21.7700 88.0592 14.9409 
21.7540 89.7224 14.9207 
23.4940 91.4914 15.9396 
23.4780 93.1510 15.9195 
16.6060 8.76150 10.4908 
19.2170 10.8552 12.0298 
19.2020 12.5273 12.0096 
19.1860 14.1994 11.9893 
19.1710 15.8716 11.9691 
19.1550 17.5437 11.9488 
19.1400 19.2158 11.9285 
19.1240 20.8879 11.9083 
19.1090 22.5600 11.8880 
20.8450 24.4810 12.9077 
20.8290 26.1495 12.8875 
20.8140 27.8180 12.8673 
20.7980 29.4866 12.8471 
20.7830 31.1551 12.8268 
20.7680 32.8236 12.8066 
20.7520 34.4921 12.7864 
20.7370 36.1607 12.7662 
20.7220 37.8292 12.7459 
23.3330 39.8228 14.2862 
23.3180 41.4859 14.2660 
23.3020 43.1491 14.2459 
23.2870 44.8123 14.2257 
23.2720 46.4754 14.2056 
23.2560 48.1386 14.1854 
23.2410 49.8018 14.1653 
23.2260 51.4649 14.1451 
20.5830 52.8460 12.5640 
20.5680 54.5145 12.5437 
20.5520 56.1830 12.5235 
20.5370 57.8515 12.5033 
20.5220 59.5201 12.4831 
20.5060 61.1886 12.4629 
20.4910 62.8571 12.4426 
23.1030 64.7702 13.9839 
23.0880 66.4334 13.9637 
23.0720 68.0966 13.9436 
23.0570 69.7597 13.9234 
23.0420 71.4229 13.9033 
23.0260 73.0860 13.8831 
23.0110 74.7492 13.8629 
22.9960 76.4124 13.8428 
22.9800 78.0755 13.8226 
22.9650 79.7387 13.8025 
22.9500 81.4019 13.7823 
22.9340 83.0650 13.7622 
22.9190 84.7282 13.7420 
22.9040 86.3913 13.7219 
22.8880 88.0545 13.7017 
22.8730 89.7177 13.6815 
22.8580 91.3808 13.6614 
24.5950 93.1462 14.6830 
17.7350 8.75680 9.24090 
20.3420 10.8505 10.7840 
20.3260 12.5226 10.7637 
20.3110 14.1947 10.7435 
20.2960 15.8668 10.7232 
20.2800 17.5389 10.7029 
20.2650 19.2110 10.6827 
20.2490 20.8831 10.6624 
20.2340 22.5552 10.6421 
20.2180 24.2273 10.6219 
20.2030 25.8995 10.6016 
20.1880 27.5716 10.5814 
20.1720 29.2437 10.5611 
20.1570 30.9158 10.5408 
21.8900 32.8189 11.5634 
21.8750 34.4874 11.5432 
21.8590 36.1559 11.5230 
21.8440 37.8245 11.5027 
21.8290 39.4930 11.4825 
21.8130 41.1615 11.4623 
21.7980 42.8301 11.4421 
21.7820 44.4986 11.4219 
21.7670 46.1671 11.4016 
21.7520 47.8356 11.3814 
21.7360 49.5042 11.3612 
21.7210 51.1727 11.3410 
21.7060 52.8412 11.3208 
21.6900 54.5098 11.3006 
21.6750 56.1783 11.2803 
21.6590 57.8468 11.2601 
21.6440 59.5153 11.2399 
21.6290 61.1839 11.2197 
21.6130 62.8524 11.1995 
21.5980 64.5209 11.1792 
21.5830 66.1895 11.1590 
21.5670 67.8580 11.1388 
21.5520 69.5265 11.1186 
21.5360 71.1950 11.0984 
21.5210 72.8636 11.0781 
21.5060 74.5321 11.0579 
21.4900 76.2006 11.0377 
21.4750 77.8692 11.0175 
21.4600 79.5377 10.9973 
21.4440 81.2062 10.9770 
21.4290 82.8747 10.9568 
21.4130 84.5433 10.9366 
21.3980 86.2118 10.9164 
21.3830 87.8803 10.8961 
23.9920 89.7130 12.4423 
23.9770 91.3761 12.4222 
23.9610 93.0393 12.4020 
18.8480 10.4295 7.97080 
18.8320 12.1070 7.95040 
18.8170 13.7844 7.93010 
21.4200 15.8621 9.47730 
21.4050 17.5342 9.45710 
21.3890 19.2063 9.43680 
21.3740 20.8784 9.41650 
21.3590 22.5505 9.39630 
21.3430 24.2226 9.37600 
21.3280 25.8947 9.35580 
21.3120 27.5668 9.33550 
21.2970 29.2389 9.31520 
21.2820 30.9110 9.29500 
21.2660 32.5831 9.27470 
21.2510 34.2552 9.25440 
21.2350 35.9273 9.23420 
21.2200 37.5995 9.21390 
21.2050 39.2716 9.19360 
21.1890 40.9437 9.17340 
21.1740 42.6158 9.15310 
22.9050 44.4939 10.1787 
22.8890 46.1624 10.1584 
21.1280 47.6321 9.09230 
21.1120 49.3042 9.07210 
21.0970 50.9763 9.05180 
21.0810 52.6484 9.03150 
21.0660 54.3205 9.01130 
21.0500 55.9926 8.99100 
21.0350 57.6647 8.97070 
21.0200 59.3368 8.95050 
21.0040 61.0089 8.93020 
20.9890 62.6810 8.91000 
20.9730 64.3531 8.88970 
20.9580 66.0252 8.86940 
20.9430 67.6973 8.84920 
20.9270 69.3694 8.82890 
22.6590 71.1903 9.85510 
22.6430 72.8588 9.83490 
22.6280 74.5274 9.81470 
22.6130 76.1959 9.79450 
22.5970 77.8644 9.77430 
22.5820 79.5330 9.75400 
22.5670 81.2015 9.73380 
22.5510 82.8700 9.71360 
22.5360 84.5385 9.69340 
22.5200 86.2071 9.67320 
22.5050 87.8756 9.65290 
22.4900 89.5441 9.63270 
22.4740 91.2127 9.61250 
25.0800 93.0346 11.1628 
22.4440 94.5497 9.57210 
18.2330 10.1472 5.67330 
19.9610 12.1022 6.70060 
19.9450 13.7797 6.68020 
19.9300 15.4571 6.65990 
19.9140 17.1346 6.63960 
19.8990 18.8121 6.61930 
19.8830 20.4896 6.59890 
19.8680 22.1670 6.57860 
19.8530 23.8445 6.55830 
22.4530 25.8900 8.10990 
22.4370 27.5621 8.08960 
22.4220 29.2342 8.06940 
22.4060 30.9063 8.04910 
22.3910 32.5784 8.02880 
22.3760 34.2505 8.00860 
22.3600 35.9226 7.98830 
22.3450 37.5947 7.96800 
22.3290 39.2668 7.94780 
22.3140 40.9389 7.92750 
22.2990 42.6110 7.90720 
22.2830 44.2831 7.88700 
22.2680 45.9552 7.86670 
22.2520 47.6273 7.84650 
19.6210 49.0066 6.25330 
19.6050 50.6840 6.23300 
19.5900 52.3615 6.21270 
19.5740 54.0390 6.19240 
19.5590 55.7164 6.17200 
19.5430 57.3939 6.15170 
19.5280 59.0714 6.13140 
19.5120 60.7488 6.11100 
19.4970 62.4263 6.09070 
22.0980 64.3484 7.64380 
22.0830 66.0205 7.62360 
22.0670 67.6926 7.60330 
22.0520 69.3647 7.58300 
22.0370 71.0368 7.56280 
22.0210 72.7089 7.54250 
22.0060 74.3810 7.52220 
21.9900 76.0531 7.50200 
21.9750 77.7252 7.48170 
21.9600 79.3973 7.46140 
21.9440 81.0695 7.44120 
21.9290 82.7416 7.42090 
21.9130 84.4137 7.40070 
21.8980 86.0858 7.38040 
21.8830 87.7579 7.36010 
21.8670 89.4300 7.33990 
21.8520 91.1021 7.31960 
23.5810 92.8765 8.34910 
21.8210 94.4463 7.27910 
19.3640 10.1424 4.42080 
19.3480 11.8235 4.40040 
21.0740 13.7749 5.43040 
21.0580 15.4524 5.41000 
21.0430 17.1299 5.38970 
21.0270 18.8073 5.36940 
21.0120 20.4848 5.34910 
20.9960 22.1623 5.32870 
20.9810 23.8398 5.30840 
20.9660 25.5172 5.28810 
20.9500 27.1947 5.26770 
20.9350 28.8722 5.24740 
20.9190 30.5496 5.22710 
20.9040 32.2271 5.20680 
20.8880 33.9046 5.18640 
20.8730 35.5820 5.16610 
20.8570 37.2595 5.14580 
20.8420 38.9370 5.12540 
20.8260 40.6144 5.10510 
20.8110 42.2919 5.08480 
20.7950 43.9694 5.06450 
20.7800 45.6469 5.04410 
20.7650 47.3243 5.02380 
20.7490 49.0018 5.00350 
20.7340 50.6793 4.98310 
20.7180 52.3567 4.96280 
20.7030 54.0342 4.94250 
20.6870 55.7117 4.92220 
20.6720 57.3891 4.90180 
20.6560 59.0666 4.88150 
20.6410 60.7441 4.86120 
20.6250 62.4216 4.84080 
20.6100 64.0990 4.82050 
20.5950 65.7765 4.80020 
23.1920 67.6879 6.35740 
23.1770 69.3600 6.33720 
23.1610 71.0321 6.31690 
23.1460 72.7042 6.29660 
23.1310 74.3763 6.27640 
23.1150 76.0484 6.25610 
23.1000 77.7205 6.23580 
23.0840 79.3926 6.21560 
23.0690 81.0647 6.19530 
23.0540 82.7368 6.17510 
23.0380 84.4089 6.15480 
23.0230 86.0810 6.13450 
23.0070 87.7531 6.11430 
22.9920 89.4252 6.09400 
22.9770 91.0974 6.07370 
22.9610 92.7695 6.05350 
22.9460 94.4416 6.03320 
15.2940 7.61320 0.0299988 
17.8870 9.72130 1.58890 
20.4790 11.8187 3.14780 
20.4630 13.4998 3.12750 
20.4480 15.1808 3.10710 
22.1710 17.1251 4.13980 
22.1560 18.8026 4.11950 
22.1400 20.4801 4.09920 
22.1250 22.1575 4.07890 
22.1090 23.8350 4.05850 
22.0940 25.5125 4.03820 
22.0780 27.1899 4.01790 
22.0630 28.8674 3.99750 
22.0480 30.5449 3.97720 
22.0320 32.2224 3.95690 
22.0170 33.8998 3.93660 
22.0010 35.5773 3.91620 
21.9860 37.2548 3.89590 
21.9700 38.9322 3.87560 
21.9550 40.6097 3.85520 
21.9390 42.2872 3.83490 
21.9240 43.9646 3.81460 
21.9080 45.6421 3.79430 
21.8930 47.3196 3.77390 
21.8780 48.9971 3.75360 
20.1230 50.4828 2.67930 
20.1070 52.1639 2.65890 
20.0920 53.8449 2.63860 
20.0760 55.5259 2.61820 
21.8000 57.3844 3.65200 
21.7850 59.0619 3.63160 
21.7690 60.7393 3.61130 
21.7540 62.4168 3.59100 
21.7380 64.0943 3.57060 
21.7230 65.7718 3.55030 
21.7070 67.4492 3.53000 
24.3020 69.3552 5.09130 
24.2860 71.0274 5.07100 
24.2710 72.6995 5.05080 
24.2550 74.3716 5.03050 
24.2400 76.0437 5.01020 
24.2250 77.7158 4.99000 
24.2090 79.3879 4.96970 
24.1940 81.0600 4.94940 
24.1780 82.7321 4.92920 
24.1630 84.4042 4.90890 
21.5370 85.9014 3.30640 
21.5220 87.5789 3.28610 
21.5070 89.2563 3.26570 
21.4910 90.9338 3.24540 
24.0860 92.7647 4.80760 
21.4600 94.2887 3.20470 
14.7120 5.63190 -2.26560 
16.4320 7.60840 -1.23050 
19.0210 9.71660 0.332298 
19.0050 11.4030 0.311901 
21.5940 13.4950 1.87490 
21.5790 15.1761 1.85460 
21.5630 16.8571 1.83420 
21.5480 18.5382 1.81380 
21.5320 20.2192 1.79350 
21.5170 21.9002 1.77310 
21.5010 23.5813 1.75270 
21.4860 25.2623 1.73230 
21.4700 26.9434 1.71200 
21.4550 28.6244 1.69160 
21.4390 30.3055 1.67120 
21.4240 31.9865 1.65090 
21.4080 33.6676 1.63050 
21.3930 35.3486 1.61010 
21.3770 37.0297 1.58970 
21.3620 38.7107 1.56940 
21.3460 40.3918 1.54900 
21.3310 42.0728 1.52860 
21.3150 43.7539 1.50830 
21.3000 45.4349 1.48790 
21.2840 47.1159 1.46750 
21.2690 48.7970 1.44710 
21.2530 50.4780 1.42680 
21.2380 52.1591 1.40640 
21.2220 53.8401 1.38600 
21.2070 55.5212 1.36570 
21.1910 57.2022 1.34530 
21.1760 58.8833 1.32490 
21.1600 60.5643 1.30450 
21.1450 62.2454 1.28420 
21.1300 63.9264 1.26380 
22.8510 65.7670 2.30050 
22.8360 67.4445 2.28010 
22.8200 69.1219 2.25980 
22.8050 70.7994 2.23950 
25.3960 72.6947 3.80490 
25.3800 74.3668 3.78460 
22.7590 75.8318 2.17850 
22.7430 77.5093 2.15820 
22.7280 79.1868 2.13780 
22.7120 80.8642 2.11750 
22.6970 82.5417 2.09720 
22.6810 84.2192 2.07680 
22.6660 85.8966 2.05650 
22.6500 87.5741 2.03620 
22.6350 89.2516 2.01590 
22.6190 90.9290 1.99550 
22.6040 92.6065 1.97520 
20.8510 94.1853 0.897099 
17.5700 7.60370 -2.49110 
17.5550 9.29540 -2.51160 
20.1400 11.3982 -0.944599 
20.1240 13.0846 -0.965099 
20.1090 14.7710 -0.985500 
22.6940 16.8523 0.581699 
22.6790 18.5334 0.561298 
22.6630 20.2145 0.540901 
22.6480 21.8955 0.520599 
22.6320 23.5765 0.500198 
22.6170 25.2576 0.479801 
20.0000 26.5759 -1.12850 
19.9840 28.2623 -1.14900 
22.5700 30.3007 0.418701 
22.5550 31.9818 0.398300 
22.5390 33.6628 0.377998 
22.5240 35.3439 0.357601 
22.5080 37.0249 0.337200 
22.4930 38.7060 0.316799 
22.4770 40.3870 0.296501 
22.4620 42.0681 0.276100 
22.4460 43.7491 0.255699 
22.4310 45.4301 0.235401 
22.4150 47.1112 0.215000 
22.4000 48.7922 0.194599 
22.3840 50.4733 0.174198 
22.3690 52.1543 0.153900 
22.3530 53.8354 0.133499 
22.3380 55.5164 0.113098 
22.3220 57.1975 0.0928001 
22.3070 58.8785 0.0723991 
22.2910 60.5596 0.0519981 
22.2760 62.2406 0.0316010 
22.2600 63.9217 0.0112991 
22.2450 65.6027 -0.00910187 
22.2290 67.2838 -0.0294991 
23.9490 69.1172 1.00990 
23.9330 70.7947 0.989601 
23.9180 72.4721 0.969299 
23.9020 74.1496 0.948898 
23.8870 75.8271 0.928600 
23.8720 77.5045 0.908298 
23.8560 79.1820 0.888000 
23.8410 80.8595 0.867599 
23.8250 82.5370 0.847301 
23.8100 84.2144 0.827000 
23.7940 85.8919 0.806599 
23.7790 87.5694 0.786301 
23.7630 89.2468 0.765999 
23.7480 90.9243 0.745701 
21.9970 92.4995 -0.335098 
21.2590 13.0799 -2.22160 
21.2430 14.7663 -2.24200 
21.2280 16.4527 -2.26250 
21.2120 18.1391 -2.28290 
21.1970 19.8255 -2.30330 
21.1810 21.5119 -2.32380 
21.1650 23.1983 -2.34420 
21.1500 24.8847 -2.36470 
21.1340 26.5711 -2.38510 
21.1190 28.2576 -2.40550 
21.1030 29.9440 -2.42600 
21.0880 31.6304 -2.44640 
21.0720 33.3168 -2.46680 
21.0570 35.0032 -2.48730 
21.0410 36.6896 -2.50770 
21.0260 38.3760 -2.52810 
21.0100 40.0624 -2.54860 
23.3600 67.2790 -1.28200 
23.3450 68.9600 -1.30240 
23.3290 70.6411 -1.32280 
23.3140 72.3221 -1.34310 
23.2980 74.0032 -1.36350 
25.0150 75.8223 -0.321201 
25.0000 77.4998 -0.341599 
24.9840 79.1773 -0.361900 
23.2360 80.7274 -1.44500 
23.2210 82.4084 -1.46540 
23.2050 84.0895 -1.48570 
23.1900 85.7705 -1.50610 
23.1740 87.4516 -1.52650 
23.1590 89.1326 -1.54680 
23.1430 90.8136 -1.56720 
