ply
format ascii 1.0
comment Created by CloudCompare v2.11 alpha (Anoia)
comment Created 15/04/2019 16:50
obj_info Generated by CloudCompare!
element vertex 1375
property float x
property float y
property float z
end_header
376.994 11.6548 107.629 
376.979 13.2912 107.609 
376.948 16.5639 107.569 
381.282 38.2611 109.747 
381.267 39.8885 109.727 
383.064 41.6787 110.682 
383.049 43.3025 110.662 
384.485 5.9501 109.905 
382.661 7.33599 108.909 
382.646 8.96339 108.889 
382.631 10.5908 108.87 
382.616 12.2182 108.85 
379.888 13.5102 107.366 
379.873 15.1429 107.346 
379.858 16.7757 107.326 
379.843 18.4084 107.307 
379.828 20.0412 107.287 
379.813 21.674 107.267 
379.798 23.3067 107.247 
379.783 24.9395 107.227 
379.768 26.5722 107.208 
379.753 28.205 107.188 
379.738 29.8378 107.168 
379.723 31.4705 107.148 
382.422 33.3743 108.594 
382.407 35.0017 108.574 
382.392 36.6291 108.554 
382.377 38.2565 108.534 
384.171 40.0503 109.492 
384.156 41.6741 109.472 
384.141 43.2979 109.452 
384.126 44.9218 109.433 
388.317 3.07086 110.202 
388.302 4.68931 110.183 
388.287 6.30777 110.163 
385.562 7.56932 108.675 
385.548 9.19314 108.656 
383.726 10.5862 107.657 
383.711 12.2136 107.637 
383.696 13.841 107.618 
383.681 15.4684 107.598 
383.666 17.0958 107.578 
383.651 18.7232 107.559 
383.636 20.3506 107.539 
380.911 21.6693 106.05 
380.896 23.3021 106.031 
380.881 24.9349 106.011 
380.866 26.5676 105.991 
380.851 28.2004 105.971 
380.836 29.8332 105.951 
383.531 31.7423 107.401 
383.516 33.3697 107.381 
383.501 34.9971 107.361 
383.486 36.6245 107.342 
383.471 38.2519 107.322 
385.263 40.0457 108.282 
385.248 41.6695 108.262 
385.233 43.2934 108.243 
385.218 44.9172 108.223 
385.203 46.541 108.203 
382.22 -1.19393 105.111 
389.42 1.44782 109.016 
389.405 3.06628 108.997 
389.391 4.68473 108.977 
386.67 5.94091 107.485 
386.655 7.56472 107.466 
386.64 9.18854 107.446 
384.821 10.5816 106.445 
384.806 12.209 106.425 
384.791 13.8364 106.405 
384.776 15.4638 106.385 
384.761 17.0912 106.366 
384.746 18.7186 106.346 
384.731 20.346 106.326 
384.716 21.9734 106.307 
384.701 23.6007 106.287 
381.98 24.9302 104.794 
381.964 26.563 104.774 
381.949 28.1958 104.755 
384.641 30.1103 106.208 
384.626 31.7377 106.188 
384.611 33.3651 106.169 
384.596 34.9925 106.149 
384.581 36.6199 106.129 
384.566 38.2473 106.109 
384.551 39.8747 106.09 
386.341 41.6649 107.052 
386.326 43.2888 107.033 
386.311 44.9126 107.013 
384.491 46.3843 106.011 
386.021 -0.814807 105.37 
387.807 1.06485 106.334 
387.792 2.68867 106.315 
387.777 4.31249 106.295 
387.762 5.93631 106.275 
387.747 7.56013 106.256 
385.931 8.94957 105.252 
385.916 10.577 105.232 
385.901 12.2044 105.212 
385.886 13.8318 105.193 
385.871 15.4592 105.173 
385.856 17.0865 105.153 
385.841 18.7139 105.133 
385.826 20.3413 105.114 
385.811 21.9687 105.094 
385.796 23.5961 105.074 
385.781 25.2235 105.055 
385.766 26.8509 105.035 
385.751 28.4783 105.015 
385.736 30.1057 104.995 
385.721 31.7331 104.976 
385.706 33.3605 104.956 
385.691 34.9879 104.936 
385.676 36.6153 104.917 
385.661 38.2427 104.897 
385.646 39.8701 104.877 
385.631 41.4975 104.857 
385.616 43.1249 104.838 
385.601 44.7523 104.818 
382.882 46.1515 103.32 
382.633 -3.09536 101.711 
387.115 -0.819414 104.158 
388.899 1.06026 105.124 
388.884 2.68407 105.105 
388.869 4.30789 105.085 
387.055 5.69017 104.079 
387.04 7.31757 104.059 
387.025 8.94497 104.039 
387.01 10.5724 104.02 
386.995 12.1998 104 
386.98 13.8272 103.98 
386.965 15.4546 103.96 
386.95 17.0819 103.941 
386.935 18.7093 103.921 
386.92 20.3367 103.901 
386.905 21.9641 103.881 
386.89 23.5915 103.862 
386.875 25.2189 103.842 
386.86 26.8463 103.822 
386.845 28.4737 103.803 
386.83 30.1011 103.783 
386.815 31.7285 103.763 
386.8 33.3559 103.743 
386.785 34.9833 103.724 
384.071 36.3503 102.223 
384.056 37.9831 102.203 
386.74 39.8655 103.665 
386.725 41.4929 103.645 
386.71 43.1203 103.625 
386.695 44.7477 103.605 
383.981 46.1469 102.104 
383.966 47.7797 102.084 
385.515 -1.2078 101.461 
388.195 0.803378 102.925 
388.18 2.43078 102.906 
388.165 4.05817 102.886 
388.15 5.68557 102.866 
388.135 7.31296 102.846 
388.12 8.94036 102.827 
388.105 10.5678 102.807 
388.09 12.1952 102.787 
388.075 13.8225 102.768 
388.06 15.4499 102.748 
388.045 17.0773 102.728 
388.03 18.7047 102.708 
388.015 20.3321 102.689 
388 21.9595 102.669 
387.985 23.5869 102.649 
387.97 25.2143 102.629 
387.955 26.8417 102.61 
387.94 28.4691 102.59 
387.925 30.0965 102.57 
387.91 31.7239 102.551 
387.895 33.3513 102.531 
385.184 34.713 101.026 
385.169 36.3457 101.006 
385.154 37.9785 100.986 
385.139 39.6112 100.967 
387.82 41.4883 102.432 
385.109 42.8768 100.927 
385.094 44.5095 100.907 
385.079 46.1423 100.887 
385.064 47.775 100.868 
383.251 49.2628 99.8573 
384.819 -1.46829 99.2528 
386.599 0.420342 100.225 
386.583 2.0531 100.205 
386.568 3.68586 100.185 
386.553 5.31862 100.165 
386.538 6.95138 100.146 
386.523 8.58414 100.126 
386.508 10.2169 100.106 
386.493 11.8497 100.086 
389.17 13.8179 101.555 
389.155 15.4453 101.535 
389.14 17.0727 101.516 
389.125 18.7001 101.496 
389.11 20.3275 101.476 
389.095 21.9549 101.456 
389.08 23.5823 101.437 
389.065 25.2097 101.417 
389.05 26.8371 101.397 
389.035 28.4645 101.377 
389.02 30.0919 101.358 
389.005 31.7193 101.338 
386.298 33.0756 99.8291 
386.283 34.7083 99.8093 
386.268 36.3411 99.7895 
386.252 37.9738 99.7698 
386.237 39.6066 99.75 
386.222 41.2394 99.7302 
386.207 42.8721 99.7104 
386.192 44.5049 99.6906 
386.177 46.1377 99.6708 
386.162 47.7704 99.651 
386.147 49.4032 99.6312 
384.337 50.8945 98.6182 
381.629 52.3241 97.1084 
385.92 -1.47292 98.0336 
385.905 0.163419 98.0137 
385.89 1.79976 97.9939 
385.875 3.4361 97.9741 
387.652 5.314 98.9489 
387.637 6.94676 98.9292 
387.622 8.57952 98.9094 
387.607 10.2123 98.8896 
387.592 11.845 98.8698 
387.576 13.4778 98.85 
387.561 15.1106 98.8302 
387.546 16.7433 98.8104 
387.531 18.3761 98.7906 
387.516 20.0088 98.7709 
387.501 21.6416 98.7511 
387.486 23.2744 98.7313 
387.471 24.9071 98.7115 
387.456 26.5399 98.6917 
387.441 28.1727 98.6719 
387.426 29.8054 98.6521 
387.411 31.4382 98.6323 
387.396 33.0709 98.6126 
387.381 34.7037 98.5928 
387.366 36.3365 98.573 
387.351 37.9692 98.5532 
387.336 39.602 98.5334 
387.321 41.2347 98.5136 
387.306 42.8675 98.4938 
387.291 44.5003 98.4741 
387.276 46.133 98.4543 
387.26 47.7658 98.4345 
385.453 49.2536 97.4188 
385.438 50.8899 97.399 
385.423 52.5262 97.3792 
382.718 53.9612 95.8653 
384.352 -3.50308 95.3384 
384.337 -1.86138 95.3185 
387.006 0.158788 96.7945 
386.991 1.79513 96.7747 
386.976 3.43146 96.7548 
386.961 5.0678 96.735 
388.735 6.94214 97.7126 
388.72 8.5749 97.6928 
388.705 10.2077 97.673 
388.69 11.8404 97.6532 
388.675 13.4732 97.6335 
388.66 15.1059 97.6137 
388.645 16.7387 97.5939 
388.63 18.3715 97.5741 
388.615 20.0042 97.5543 
388.6 21.637 97.5345 
388.585 23.2698 97.5147 
388.569 24.9025 97.4949 
388.554 26.5353 97.4752 
388.539 28.168 97.4554 
388.524 29.8008 97.4356 
388.509 31.4336 97.4158 
386.704 32.8855 96.3979 
386.689 34.5219 96.3781 
386.674 36.1582 96.3582 
386.659 37.7946 96.3384 
388.434 39.5974 97.3169 
388.419 41.2301 97.2971 
388.404 42.8629 97.2773 
388.389 44.4957 97.2575 
386.584 45.9762 96.2393 
386.569 47.6126 96.2194 
386.553 49.2489 96.1996 
386.538 50.8853 96.1798 
386.523 52.5216 96.1599 
383.823 53.9565 94.6421 
383.807 55.5982 94.6222 
383.67 -3.7672 93.1154 
385.441 -1.86603 94.0953 
385.426 -0.224327 94.0754 
385.411 1.41738 94.0555 
388.076 3.42683 95.5356 
388.061 5.06317 95.5158 
388.046 6.69951 95.496 
388.031 8.33585 95.4761 
388.016 9.97218 95.4563 
388.001 11.6085 95.4365 
389.773 13.4686 96.4169 
387.971 14.8812 95.3968 
389.743 16.7341 96.3773 
389.728 18.3668 96.3575 
389.713 19.9996 96.3378 
389.698 21.6324 96.318 
387.895 23.0629 95.2977 
387.88 24.6992 95.2778 
387.865 26.3356 95.258 
387.85 27.9719 95.2382 
387.835 29.6082 95.2183 
387.82 31.2446 95.1985 
387.805 32.8809 95.1787 
387.79 34.5173 95.1589 
387.775 36.1536 95.139 
387.76 37.7899 95.1192 
387.745 39.4263 95.0994 
387.73 41.0626 95.0795 
387.715 42.6989 95.0597 
387.699 44.3353 95.0399 
387.684 45.9716 95.0201 
387.669 47.608 95.0002 
387.654 49.2443 94.9804 
387.639 50.8806 94.9606 
387.624 52.517 94.9407 
384.927 53.9519 93.4189 
384.912 55.5936 93.399 
382.1 -4.16108 90.3857 
384.761 -2.12657 91.8695 
384.746 -0.481297 91.8496 
386.515 1.41273 92.8323 
386.5 3.05444 92.8124 
386.485 4.69614 92.7925 
389.147 6.69488 94.2767 
389.132 8.33121 94.2569 
389.117 9.96755 94.2371 
389.102 11.6039 94.2173 
389.087 13.2402 94.1974 
389.072 14.8766 94.1776 
389.057 16.5129 94.1578 
389.041 18.1492 94.1379 
389.026 19.7856 94.1181 
389.011 21.4219 94.0983 
388.996 23.0583 94.0784 
388.981 24.6946 94.0586 
388.966 26.3309 94.0388 
388.951 27.9673 94.019 
388.936 29.6036 93.9991 
388.921 31.2399 93.9793 
388.906 32.8763 93.9595 
388.891 34.5126 93.9396 
388.876 36.149 93.9198 
388.861 37.7853 93.9 
388.845 39.4216 93.8801 
388.83 41.058 93.8603 
388.815 42.6943 93.8405 
388.8 44.3307 93.8207 
388.785 45.967 93.8008 
388.77 47.6033 93.781 
388.755 49.2397 93.7612 
388.74 50.876 93.7413 
386.046 52.3055 92.2155 
386.031 53.9472 92.1956 
386.016 55.5889 92.1757 
383.21 -4.16575 89.1558 
383.195 -2.51511 89.1358 
385.853 -0.485954 90.6237 
385.838 1.15933 90.6038 
387.605 3.04979 91.5892 
387.589 4.69149 91.5693 
387.574 6.33319 91.5494 
387.559 7.9749 91.5295 
387.544 9.6166 91.5096 
390.202 11.5993 92.998 
390.187 13.2356 92.9782 
390.172 14.8719 92.9584 
390.157 16.5083 92.9386 
390.142 18.1446 92.9187 
390.127 19.7809 92.8989 
390.112 21.4173 92.8791 
390.097 23.0536 92.8592 
390.082 24.69 92.8394 
390.067 26.3263 92.8196 
390.052 27.9626 92.7997 
387.363 29.317 91.2709 
387.347 30.9587 91.251 
387.332 32.6004 91.2311 
387.317 34.2421 91.2112 
389.976 36.1443 92.7006 
389.961 37.7807 92.6808 
389.946 39.417 92.6609 
389.931 41.0533 92.6411 
389.916 42.6897 92.6213 
389.901 44.326 92.6014 
389.886 45.9624 92.5816 
389.871 47.5987 92.5618 
389.856 49.235 92.5419 
387.166 50.6592 91.0122 
387.151 52.3009 90.9923 
387.136 53.9426 90.9724 
387.12 55.5843 90.9525 
382.647 56.9081 88.4157 
382.541 -4.42993 86.9181 
384.305 -2.51978 87.906 
384.29 -0.869132 87.8859 
386.944 1.15467 89.3779 
386.929 2.79995 89.358 
388.694 4.68685 90.3461 
388.679 6.32855 90.3262 
388.664 7.97025 90.3063 
388.648 9.61195 90.2864 
388.633 11.2537 90.2665 
391.288 13.231 91.759 
388.603 14.5371 90.2267 
391.258 16.5036 91.7193 
391.243 18.14 91.6995 
391.228 19.7763 91.6797 
388.543 21.1039 90.1471 
388.527 22.7456 90.1272 
388.512 24.3873 90.1073 
388.497 26.029 90.0874 
388.482 27.6707 90.0675 
388.467 29.3124 90.0476 
388.452 30.9541 90.0277 
388.437 32.5958 90.0078 
388.421 34.2375 89.9879 
388.406 35.8792 89.968 
388.391 37.5209 89.9482 
388.376 39.1626 89.9283 
388.361 40.8043 89.9084 
391.017 42.685 91.402 
391.002 44.3214 91.3822 
388.316 45.7294 89.8487 
388.3 47.3711 89.8288 
388.285 49.0128 89.8089 
388.27 50.6545 89.789 
388.255 52.2962 89.7691 
388.24 53.9379 89.7492 
388.225 55.5796 89.7293 
383.758 56.9034 87.1858 
383.742 58.5541 87.1658 
383.653 -4.43461 85.6856 
385.415 -2.52445 86.6761 
385.4 -0.873804 86.6561 
388.051 1.15002 88.152 
388.036 2.79529 88.1321 
389.798 4.6822 89.1228 
389.783 6.3239 89.1029 
389.768 7.9656 89.0831 
389.753 9.6073 89.0632 
389.738 11.249 89.0433 
392.389 13.2263 90.5398 
389.707 14.5324 89.0035 
392.359 16.499 90.5001 
392.344 18.1353 90.4803 
392.329 19.7717 90.4604 
389.647 21.0992 88.9239 
389.632 22.7409 88.904 
389.617 24.3826 88.8841 
392.268 26.317 90.3811 
392.253 27.9534 90.3613 
389.571 29.3077 88.8244 
389.556 30.9494 88.8045 
389.541 32.5911 88.7846 
389.526 34.2329 88.7647 
392.178 36.1351 90.2622 
392.163 37.7714 90.2423 
392.148 39.4077 90.2225 
392.133 41.0441 90.2027 
392.117 42.6804 90.1828 
392.102 44.3168 90.163 
392.087 45.9531 90.1432 
392.072 47.5894 90.1233 
392.057 49.2258 90.1035 
389.375 50.6499 88.5658 
389.359 52.2916 88.5459 
389.344 53.9333 88.526 
389.329 55.575 88.5061 
384.868 56.8988 85.956 
384.853 58.5494 85.936 
384.766 -4.43929 84.453 
386.526 -2.52912 85.4462 
386.511 -0.878476 85.4262 
389.158 1.14536 86.9261 
389.143 2.79064 86.9062 
389.128 4.43591 86.8863 
390.887 6.31925 87.8797 
390.872 7.96096 87.8598 
390.857 9.60266 87.8399 
390.842 11.2444 87.82 
390.827 12.8861 87.8001 
390.812 14.5278 87.7803 
390.797 16.1695 87.7604 
390.781 17.8112 87.7405 
390.766 19.4529 87.7206 
390.751 21.0946 87.7007 
390.736 22.7363 87.6808 
390.721 24.378 87.6609 
390.706 26.0197 87.641 
390.691 27.6614 87.6211 
390.676 29.3031 87.6012 
390.66 30.9448 87.5813 
390.645 32.5865 87.5614 
390.63 34.2282 87.5415 
390.615 35.8699 87.5216 
390.6 37.5116 87.5017 
390.585 39.1533 87.4818 
390.57 40.795 87.4619 
390.555 42.4367 87.442 
390.539 44.0784 87.4221 
390.524 45.7201 87.4022 
390.509 47.3618 87.3823 
390.494 49.0035 87.3624 
390.479 50.6452 87.3426 
390.464 52.2869 87.3227 
390.449 53.9286 87.3028 
390.434 55.5704 87.2829 
385.978 56.8941 84.7261 
385.963 58.5447 84.7061 
383.22 -4.83327 81.6968 
385.864 -2.78975 83.2004 
387.621 -0.883148 84.1963 
387.606 0.767493 84.1763 
390.249 2.78598 85.6803 
390.234 4.43126 85.6604 
390.219 6.07654 85.6404 
390.204 7.72182 85.6205 
390.189 9.3671 85.6006 
391.946 11.2397 86.5968 
391.931 12.8814 86.5769 
391.916 14.5231 86.557 
391.901 16.1648 86.5371 
391.886 17.8065 86.5172 
390.098 19.2388 85.4809 
390.083 20.8841 85.461 
390.067 22.5293 85.4411 
390.052 24.1746 85.4211 
390.037 25.8199 85.4012 
390.022 27.4652 85.3813 
390.007 29.1105 85.3613 
389.992 30.7557 85.3414 
389.977 32.401 85.3214 
389.961 34.0463 85.3015 
389.946 35.6916 85.2816 
389.931 37.3369 85.2616 
389.916 38.9821 85.2417 
391.674 40.7904 86.2387 
391.659 42.4321 86.2188 
391.644 44.0738 86.1989 
391.629 45.7155 86.179 
391.613 47.3572 86.1591 
391.598 48.9989 86.1392 
391.583 50.6406 86.1193 
391.568 52.2823 86.0995 
391.553 53.924 86.0796 
391.538 55.5657 86.0597 
387.089 56.8894 83.4962 
387.073 58.5401 83.4762 
385.284 60.0707 82.4387 
384.337 -4.83797 80.4602 
386.976 -2.79443 81.9679 
388.731 -0.88782 82.9664 
388.716 0.762821 82.9464 
388.701 2.41347 82.9264 
388.686 4.06411 82.9064 
388.67 5.71476 82.8864 
388.655 7.3654 82.8664 
391.296 9.36244 84.3747 
391.28 11.0077 84.3548 
391.265 12.653 84.3348 
391.25 14.2983 84.3149 
391.235 15.9436 84.2949 
391.22 17.5888 84.275 
391.205 19.2341 84.2551 
391.189 20.8794 84.2351 
391.174 22.5247 84.2152 
388.503 23.8719 82.6664 
388.488 25.5225 82.6464 
388.473 27.1731 82.6264 
388.458 28.8238 82.6064 
388.442 30.4744 82.5864 
388.427 32.1251 82.5664 
388.412 33.7757 82.5464 
388.397 35.4264 82.5264 
388.381 37.077 82.5064 
391.023 38.9775 84.0158 
391.007 40.6228 83.9959 
390.992 42.268 83.9759 
390.977 43.9133 83.956 
390.962 45.5586 83.936 
390.947 47.2039 83.9161 
390.932 48.8492 83.8962 
390.916 50.4944 83.8762 
392.672 52.2776 84.8762 
392.657 53.9194 84.8563 
390.871 55.4303 83.8164 
388.199 56.8847 82.2663 
386.412 58.4118 81.2262 
386.397 60.066 81.2061 
383.725 61.5455 79.6557 
385.453 -4.84267 79.2237 
388.089 -2.79911 80.7353 
388.074 -1.1449 80.7153 
389.826 0.758149 81.7166 
389.811 2.4088 81.6966 
389.796 4.05944 81.6766 
389.781 5.71009 81.6566 
389.766 7.36073 81.6366 
389.75 9.01138 81.6165 
389.735 10.662 81.5965 
389.72 12.3127 81.5765 
389.705 13.9633 81.5565 
389.69 15.614 81.5365 
389.674 17.2646 81.5165 
389.659 18.9152 81.4965 
389.644 20.5659 81.4765 
389.629 22.2165 81.4565 
389.613 23.8672 81.4365 
389.598 25.5178 81.4165 
389.583 27.1685 81.3965 
389.568 28.8191 81.3765 
389.553 30.4698 81.3565 
389.537 32.1204 81.3365 
389.522 33.771 81.3165 
389.507 35.4217 81.2965 
389.492 37.0723 81.2765 
389.477 38.723 81.2565 
389.461 40.3736 81.2365 
392.099 42.2634 82.75 
392.084 43.9087 82.7301 
392.069 45.5539 82.7102 
392.054 47.1992 82.6902 
392.038 48.8445 82.6703 
392.023 50.4898 82.6504 
392.008 52.1351 82.6304 
391.993 53.7803 82.6105 
389.324 55.2294 81.0564 
387.54 56.7529 80.0137 
387.525 58.4071 79.9936 
387.51 60.0613 79.9736 
384.841 61.5408 78.4192 
384.826 63.2004 78.3991 
384.819 -6.7701 76.9835 
386.569 -4.84737 77.9871 
389.202 -2.8038 79.5028 
389.187 -1.14958 79.4827 
389.171 0.504647 79.4627 
389.156 2.15886 79.4427 
389.141 3.81309 79.4226 
389.126 5.46731 79.4026 
389.111 7.12153 79.3825 
389.095 8.77575 79.3625 
389.08 10.43 79.3424 
389.065 12.0842 79.3224 
389.05 13.7384 79.3023 
389.034 15.3926 79.2823 
389.019 17.0469 79.2622 
389.004 18.7011 79.2422 
388.989 20.3553 79.2221 
388.973 22.0095 79.2021 
388.958 23.6637 79.1821 
388.943 25.318 79.162 
388.928 26.9722 79.142 
388.912 28.6264 79.1219 
388.897 30.2806 79.1019 
390.648 32.1157 80.1066 
390.633 33.7664 80.0866 
390.617 35.417 80.0666 
390.602 37.0677 80.0466 
390.587 38.7183 80.0266 
390.572 40.369 80.0066 
390.557 42.0196 79.9866 
390.541 43.6702 79.9666 
390.526 45.3209 79.9466 
390.511 46.9715 79.9266 
390.496 48.6222 79.9066 
390.48 50.2728 79.8866 
390.465 51.9235 79.8666 
390.45 53.5741 79.8466 
390.435 55.2248 79.8266 
388.653 56.7482 78.7811 
388.638 58.4024 78.7611 
388.623 60.0566 78.741 
385.958 61.5361 77.1827 
385.942 63.1957 77.1626 
385.927 64.8553 77.1424 
383.309 -8.83806 74.2248 
385.938 -6.7748 75.7442 
385.923 -5.11164 75.7241 
387.671 -3.19247 76.7305 
390.299 -1.15426 78.2502 
390.284 0.499965 78.2302 
390.269 2.15418 78.2101 
390.254 3.80841 78.1901 
390.239 5.46262 78.17 
390.223 7.11685 78.15 
390.208 8.77107 78.1299 
390.193 10.4253 78.1099 
390.178 12.0795 78.0898 
390.162 13.7337 78.0698 
390.147 15.388 78.0497 
390.132 17.0422 78.0297 
390.117 18.6964 78.0096 
390.101 20.3506 77.9896 
390.086 22.0048 77.9696 
390.071 23.6591 77.9495 
390.056 25.3133 77.9295 
390.04 26.9675 77.9094 
390.025 28.6217 77.8894 
390.01 30.2759 77.8693 
389.995 31.9302 77.8493 
389.979 33.5844 77.8292 
389.964 35.2386 77.8092 
389.949 36.8928 77.7891 
389.934 38.5471 77.7691 
389.918 40.2013 77.749 
389.903 41.8555 77.729 
389.888 43.5097 77.7089 
389.873 45.1639 77.6889 
389.857 46.8182 77.6689 
389.842 48.4724 77.6488 
389.827 50.1266 77.6288 
389.812 51.7808 77.6087 
389.796 53.4351 77.5887 
389.781 55.0893 77.5686 
389.766 56.7435 77.5486 
389.751 58.3977 77.5285 
387.089 59.8718 75.9662 
387.074 61.5314 75.9461 
387.059 63.191 75.926 
387.043 64.8506 75.9059 
387.028 66.5102 75.8858 
382.702 -12.4537 71.9931 
382.687 -10.7816 71.9728 
384.432 -8.84278 72.9816 
384.417 -7.17425 72.9614 
387.042 -5.11635 74.4849 
387.026 -3.45318 74.4647 
388.772 -1.53758 75.4738 
388.756 0.121997 75.4537 
388.741 1.78159 75.4336 
388.726 3.44117 75.4135 
388.71 5.10076 75.3934 
388.695 6.76034 75.3733 
391.321 8.76639 76.8974 
391.306 10.4206 76.8773 
391.29 12.0748 76.8573 
391.275 13.729 76.8372 
391.26 15.3833 76.8172 
391.245 17.0375 76.7971 
391.229 18.6917 76.7771 
391.214 20.3459 76.757 
391.199 22.0002 76.737 
391.184 23.6544 76.717 
391.168 25.3086 76.6969 
391.153 26.9628 76.6769 
391.138 28.617 76.6568 
391.123 30.2713 76.6368 
391.107 31.9255 76.6167 
391.092 33.5797 76.5967 
391.077 35.2339 76.5766 
391.062 36.8881 76.5566 
391.046 38.5424 76.5365 
391.031 40.1966 76.5165 
391.016 41.8508 76.4964 
391.001 43.505 76.4764 
390.985 45.1593 76.4564 
390.97 46.8135 76.4363 
390.955 48.4677 76.4163 
390.94 50.1219 76.3962 
390.924 51.7761 76.3762 
390.909 53.4304 76.3561 
390.894 55.0846 76.3361 
388.236 56.5479 74.7699 
388.221 58.2075 74.7498 
388.206 59.8671 74.7297 
388.19 61.5267 74.7096 
388.175 63.1863 74.6895 
388.16 64.8459 74.6694 
386.383 66.3997 73.6182 
386.367 68.0628 73.5981 
383.843 -14.1306 70.7675 
383.827 -12.4585 70.7472 
383.812 -10.7864 70.7269 
383.796 -9.11425 70.7067 
385.539 -7.17897 71.7182 
385.524 -5.51045 71.698 
385.508 -3.84192 71.6778 
389.888 -1.54228 74.2373 
389.873 0.1173 74.2172 
389.857 1.77689 74.1971 
389.842 3.43648 74.177 
389.827 5.09607 74.1568 
389.811 6.75565 74.1367 
389.796 8.41523 74.1166 
389.781 10.0748 74.0965 
389.766 11.7344 74.0764 
389.75 13.394 74.0563 
389.735 15.0536 74.0362 
389.72 16.7132 74.0161 
389.704 18.3727 73.996 
389.689 20.0323 73.9758 
389.674 21.6919 73.9557 
389.659 23.3515 73.9356 
389.643 25.0111 73.9155 
389.628 26.6707 73.8954 
389.613 28.3303 73.8753 
389.597 29.9899 73.8552 
389.582 31.6494 73.8351 
389.567 33.309 73.8149 
389.551 34.9686 73.7948 
389.536 36.6282 73.7747 
389.521 38.2878 73.7546 
392.144 40.1919 75.284 
392.129 41.8461 75.2639 
389.475 43.2665 73.6943 
389.46 44.9261 73.6742 
389.444 46.5857 73.6541 
389.429 48.2453 73.6339 
389.414 49.9049 73.6138 
392.037 51.7715 75.1436 
392.022 53.4257 75.1236 
392.007 55.0799 75.1035 
389.353 56.5432 73.5334 
389.337 58.2028 73.5133 
389.322 59.8624 73.4932 
389.307 61.522 73.4731 
387.532 63.0686 72.4193 
387.517 64.7318 72.3992 
387.501 66.395 72.379 
387.486 68.0581 72.3589 
384.967 -14.1353 69.5216 
384.952 -12.4632 69.5013 
384.937 -10.7911 69.4811 
384.921 -9.11898 69.4608 
384.906 -7.44688 69.4405 
384.89 -5.77477 69.4203 
386.631 -3.84664 70.4346 
389.249 -1.79943 71.9662 
389.233 -0.136268 71.946 
389.218 1.5269 71.9259 
389.203 3.19005 71.9057 
390.943 5.09137 72.9203 
390.928 6.75095 72.9002 
390.913 8.41054 72.8801 
390.897 10.0701 72.86 
390.882 11.7297 72.8399 
390.867 13.3893 72.8197 
390.851 15.0489 72.7996 
390.836 16.7085 72.7795 
390.821 18.3681 72.7594 
390.805 20.0276 72.7393 
390.79 21.6872 72.7192 
390.775 23.3468 72.6991 
390.76 25.0064 72.679 
390.744 26.666 72.6589 
390.729 28.3256 72.6387 
390.714 29.9852 72.6186 
390.698 31.6447 72.5985 
390.683 33.3043 72.5784 
390.668 34.9639 72.5583 
390.653 36.6235 72.5382 
390.637 38.2831 72.5181 
390.622 39.9427 72.498 
390.607 41.6023 72.4778 
390.591 43.2619 72.4577 
390.576 44.9214 72.4376 
390.561 46.581 72.4175 
390.546 48.2406 72.3974 
390.53 49.9002 72.3773 
390.515 51.5598 72.3572 
390.5 53.2194 72.3371 
390.484 54.879 72.317 
390.469 56.5385 72.2968 
390.454 58.1981 72.2767 
390.438 59.8577 72.2566 
388.666 61.4008 71.2003 
388.651 63.0639 71.1801 
388.636 64.7271 71.16 
388.62 66.3903 71.1398 
388.605 68.0534 71.1197 
383.478 -16.2337 66.7407 
386.092 -14.14 68.2757 
386.077 -12.4679 68.2555 
386.061 -10.7958 68.2352 
386.046 -9.12371 68.2149 
386.03 -7.45161 68.1947 
386.015 -5.77951 68.1744 
386 -4.1074 68.1541 
387.738 -2.18283 69.1711 
387.722 -0.514306 69.1509 
390.337 1.52219 70.6866 
390.321 3.18535 70.6665 
390.306 4.84851 70.6463 
390.291 6.51167 70.6262 
390.275 8.17484 70.606 
390.26 9.838 70.5859 
390.245 11.5012 70.5657 
390.229 13.1643 70.5456 
390.214 14.8275 70.5254 
390.199 16.4907 70.5052 
390.183 18.1538 70.4851 
390.168 19.817 70.4649 
390.153 21.4801 70.4448 
390.138 23.1433 70.4246 
390.122 24.8065 70.4045 
390.107 26.4696 70.3843 
390.092 28.1328 70.3642 
390.076 29.796 70.344 
390.061 31.4591 70.3239 
390.046 33.1223 70.3037 
390.03 34.7855 70.2835 
390.015 36.4486 70.2634 
390 38.1118 70.2432 
389.984 39.7749 70.2231 
389.969 41.4381 70.2029 
389.954 43.1013 70.1828 
389.938 44.7644 70.1626 
391.677 46.5763 71.181 
391.662 48.2359 71.1609 
391.647 49.8955 71.1408 
391.631 51.5551 71.1206 
391.616 53.2147 71.1005 
391.601 54.8743 71.0804 
391.585 56.5338 71.0603 
391.57 58.1934 71.0402 
389.8 59.7329 69.9812 
389.785 61.3961 69.9611 
389.77 63.0592 69.9409 
389.754 64.7224 69.9207 
391.494 66.4914 70.9396 
391.478 68.151 70.9195 
384.606 -16.2385 65.4908 
387.217 -14.1448 67.0298 
387.202 -12.4727 67.0096 
387.186 -10.8006 66.9893 
387.171 -9.12845 66.9691 
387.155 -7.45634 66.9488 
387.14 -5.78424 66.9285 
387.124 -4.11213 66.9083 
387.109 -2.44002 66.888 
388.845 -0.519029 67.9077 
388.829 1.1495 67.8875 
388.814 2.81803 67.8673 
388.798 4.48656 67.8471 
388.783 6.15508 67.8268 
388.768 7.82361 67.8066 
388.752 9.49214 67.7864 
388.737 11.1607 67.7662 
388.722 12.8292 67.7459 
391.333 14.8228 69.2862 
391.318 16.4859 69.266 
391.302 18.1491 69.2459 
391.287 19.8123 69.2257 
391.272 21.4754 69.2056 
391.256 23.1386 69.1854 
391.241 24.8018 69.1653 
391.226 26.4649 69.1451 
388.583 27.846 67.564 
388.568 29.5145 67.5437 
388.552 31.183 67.5235 
388.537 32.8515 67.5033 
388.522 34.5201 67.4831 
388.506 36.1886 67.4629 
388.491 37.8571 67.4426 
391.103 39.7702 68.9839 
391.088 41.4334 68.9637 
391.072 43.0966 68.9436 
391.057 44.7597 68.9234 
391.042 46.4229 68.9033 
391.026 48.086 68.8831 
391.011 49.7492 68.8629 
390.996 51.4124 68.8428 
390.98 53.0755 68.8226 
390.965 54.7387 68.8025 
390.95 56.4019 68.7823 
390.934 58.065 68.7622 
390.919 59.7282 68.742 
390.904 61.3913 68.7219 
390.888 63.0545 68.7017 
390.873 64.7177 68.6815 
390.858 66.3808 68.6614 
392.595 68.1462 69.683 
385.735 -16.2432 64.2409 
388.342 -14.1495 65.784 
388.326 -12.4774 65.7637 
388.311 -10.8053 65.7435 
388.296 -9.13318 65.7232 
388.28 -7.46108 65.7029 
388.265 -5.78897 65.6827 
388.249 -4.11687 65.6624 
388.234 -2.44476 65.6421 
388.218 -0.772653 65.6219 
388.203 0.899451 65.6016 
388.188 2.57156 65.5814 
388.172 4.24366 65.5611 
388.157 5.91576 65.5408 
389.89 7.81889 66.5634 
389.875 9.48742 66.5432 
389.859 11.1559 66.523 
389.844 12.8245 66.5027 
389.829 14.493 66.4825 
389.813 16.1615 66.4623 
389.798 17.8301 66.4421 
389.782 19.4986 66.4219 
389.767 21.1671 66.4016 
389.752 22.8356 66.3814 
389.736 24.5042 66.3612 
389.721 26.1727 66.341 
389.706 27.8412 66.3208 
389.69 29.5098 66.3006 
389.675 31.1783 66.2803 
389.659 32.8468 66.2601 
389.644 34.5153 66.2399 
389.629 36.1839 66.2197 
389.613 37.8524 66.1995 
389.598 39.5209 66.1792 
389.583 41.1895 66.159 
389.567 42.858 66.1388 
389.552 44.5265 66.1186 
389.536 46.195 66.0984 
389.521 47.8636 66.0781 
389.506 49.5321 66.0579 
389.49 51.2006 66.0377 
389.475 52.8692 66.0175 
389.46 54.5377 65.9973 
389.444 56.2062 65.977 
389.429 57.8747 65.9568 
389.413 59.5433 65.9366 
389.398 61.2118 65.9164 
389.383 62.8803 65.8961 
391.992 64.713 67.4423 
391.977 66.3761 67.4222 
391.961 68.0393 67.402 
386.848 -14.5705 62.9708 
386.832 -12.893 62.9504 
386.817 -11.2156 62.9301 
389.42 -9.13791 64.4773 
389.405 -7.46581 64.4571 
389.389 -5.7937 64.4368 
389.374 -4.1216 64.4165 
389.359 -2.44949 64.3963 
389.343 -0.777386 64.376 
389.328 0.894718 64.3558 
389.312 2.56682 64.3355 
389.297 4.23893 64.3152 
389.282 5.91103 64.295 
389.266 7.58313 64.2747 
389.251 9.25524 64.2544 
389.235 10.9273 64.2342 
389.22 12.5995 64.2139 
389.205 14.2716 64.1936 
389.189 15.9437 64.1734 
389.174 17.6158 64.1531 
390.905 19.4939 65.1787 
390.889 21.1624 65.1584 
389.128 22.6321 64.0923 
389.112 24.3042 64.0721 
389.097 25.9763 64.0518 
389.081 27.6484 64.0315 
389.066 29.3205 64.0113 
389.05 30.9926 63.991 
389.035 32.6647 63.9707 
389.02 34.3368 63.9505 
389.004 36.0089 63.9302 
388.989 37.681 63.91 
388.973 39.3531 63.8897 
388.958 41.0252 63.8694 
388.943 42.6973 63.8492 
388.927 44.3694 63.8289 
390.659 46.1903 64.8551 
390.643 47.8588 64.8349 
390.628 49.5274 64.8147 
390.613 51.1959 64.7945 
390.597 52.8644 64.7743 
390.582 54.533 64.754 
390.567 56.2015 64.7338 
390.551 57.87 64.7136 
390.536 59.5385 64.6934 
390.52 61.2071 64.6732 
390.505 62.8756 64.6529 
390.49 64.5441 64.6327 
390.474 66.2127 64.6125 
393.08 68.0346 66.1628 
390.444 69.5497 64.5721 
386.233 -14.8528 60.6733 
387.961 -12.8978 61.7006 
387.945 -11.2203 61.6802 
387.93 -9.54285 61.6599 
387.914 -7.86538 61.6396 
387.899 -6.18791 61.6193 
387.883 -4.51044 61.5989 
387.868 -2.83297 61.5786 
387.853 -1.1555 61.5583 
390.453 0.889986 63.1099 
390.437 2.56209 63.0896 
390.422 4.23419 63.0694 
390.406 5.9063 63.0491 
390.391 7.5784 63.0288 
390.376 9.2505 63.0086 
390.36 10.9226 62.9883 
390.345 12.5947 62.968 
390.329 14.2668 62.9478 
390.314 15.9389 62.9275 
390.299 17.611 62.9072 
390.283 19.2831 62.887 
390.268 20.9552 62.8667 
390.252 22.6273 62.8465 
387.621 24.0066 61.2533 
387.605 25.684 61.233 
387.59 27.3615 61.2127 
387.574 29.039 61.1924 
387.559 30.7164 61.172 
387.543 32.3939 61.1517 
387.528 34.0714 61.1314 
387.512 35.7488 61.111 
387.497 37.4263 61.0907 
390.098 39.3484 62.6438 
390.083 41.0205 62.6236 
390.067 42.6926 62.6033 
390.052 44.3647 62.583 
390.037 46.0368 62.5628 
390.021 47.7089 62.5425 
390.006 49.381 62.5222 
389.99 51.0531 62.502 
389.975 52.7252 62.4817 
389.96 54.3973 62.4614 
389.944 56.0695 62.4412 
389.929 57.7416 62.4209 
389.913 59.4137 62.4007 
389.898 61.0858 62.3804 
389.883 62.7579 62.3601 
389.867 64.43 62.3399 
389.852 66.1021 62.3196 
391.581 67.8765 63.3491 
389.821 69.4463 62.2791 
387.364 -14.8576 59.4208 
387.348 -13.1765 59.4004 
389.074 -11.2251 60.4304 
389.058 -9.5476 60.41 
389.043 -7.87013 60.3897 
389.027 -6.19266 60.3694 
389.012 -4.51519 60.3491 
388.996 -2.83772 60.3287 
388.981 -1.16025 60.3084 
388.966 0.517217 60.2881 
388.95 2.19469 60.2677 
388.935 3.87216 60.2474 
388.919 5.54963 60.2271 
388.904 7.2271 60.2068 
388.888 8.90457 60.1864 
388.873 10.582 60.1661 
388.857 12.2595 60.1458 
388.842 13.937 60.1254 
388.826 15.6144 60.1051 
388.811 17.2919 60.0848 
388.795 18.9694 60.0645 
388.78 20.6469 60.0441 
388.765 22.3243 60.0238 
388.749 24.0018 60.0035 
388.734 25.6793 59.9831 
388.718 27.3567 59.9628 
388.703 29.0342 59.9425 
388.687 30.7117 59.9222 
388.672 32.3891 59.9018 
388.656 34.0666 59.8815 
388.641 35.7441 59.8612 
388.625 37.4216 59.8408 
388.61 39.099 59.8205 
388.595 40.7765 59.8002 
391.192 42.6879 61.3574 
391.177 44.36 61.3372 
391.161 46.0321 61.3169 
391.146 47.7042 61.2966 
391.131 49.3763 61.2764 
391.115 51.0484 61.2561 
391.1 52.7205 61.2358 
391.084 54.3926 61.2156 
391.069 56.0647 61.1953 
391.054 57.7368 61.1751 
391.038 59.4089 61.1548 
391.023 61.081 61.1345 
391.007 62.7531 61.1143 
390.992 64.4252 61.094 
390.977 66.0974 61.0737 
390.961 67.7695 61.0535 
390.946 69.4416 61.0332 
383.294 -17.3868 55.03 
385.887 -15.2787 56.5889 
388.479 -13.1813 58.1478 
388.463 -11.5002 58.1275 
388.448 -9.81918 58.1071 
390.171 -7.87488 59.1398 
390.156 -6.19741 59.1195 
390.14 -4.51993 59.0992 
390.125 -2.84247 59.0789 
390.109 -1.165 59.0585 
390.094 0.512469 59.0382 
390.078 2.18994 59.0179 
390.063 3.86741 58.9975 
390.048 5.54488 58.9772 
390.032 7.22235 58.9569 
390.017 8.89982 58.9366 
390.001 10.5773 58.9162 
389.986 12.2548 58.8959 
389.97 13.9322 58.8756 
389.955 15.6097 58.8552 
389.939 17.2872 58.8349 
389.924 18.9646 58.8146 
389.908 20.6421 58.7943 
389.893 22.3196 58.7739 
389.878 23.9971 58.7536 
388.123 25.4828 57.6793 
388.107 27.1639 57.6589 
388.092 28.8449 57.6386 
388.076 30.5259 57.6182 
389.8 32.3844 58.652 
389.785 34.0619 58.6316 
389.769 35.7393 58.6113 
389.754 37.4168 58.591 
389.738 39.0943 58.5706 
389.723 40.7718 58.5503 
389.707 42.4492 58.53 
392.302 44.3552 60.0913 
392.286 46.0274 60.071 
392.271 47.6995 60.0508 
392.255 49.3716 60.0305 
392.24 51.0437 60.0102 
392.225 52.7158 59.99 
392.209 54.3879 59.9697 
392.194 56.06 59.9494 
392.178 57.7321 59.9292 
392.163 59.4042 59.9089 
389.537 60.9014 58.3064 
389.522 62.5789 58.2861 
389.507 64.2563 58.2657 
389.491 65.9338 58.2454 
392.086 67.7647 59.8076 
389.46 69.2887 58.2047 
382.712 -19.3681 52.7344 
384.432 -17.3916 53.7695 
387.021 -15.2834 55.3323 
387.005 -13.597 55.3119 
389.594 -11.505 56.8749 
389.579 -9.82394 56.8546 
389.563 -8.14289 56.8342 
389.548 -6.46184 56.8138 
389.532 -4.78079 56.7935 
389.517 -3.09975 56.7731 
389.501 -1.4187 56.7527 
389.486 0.262346 56.7323 
389.47 1.94339 56.712 
389.455 3.62444 56.6916 
389.439 5.30548 56.6712 
389.424 6.98653 56.6509 
389.408 8.66758 56.6305 
389.393 10.3486 56.6101 
389.377 12.0297 56.5897 
389.362 13.7107 56.5694 
389.346 15.3918 56.549 
389.331 17.0728 56.5286 
389.315 18.7539 56.5083 
389.3 20.4349 56.4879 
389.284 22.1159 56.4675 
389.269 23.797 56.4471 
389.253 25.478 56.4268 
389.238 27.1591 56.4064 
389.222 28.8401 56.386 
389.207 30.5212 56.3657 
389.191 32.2022 56.3453 
389.176 33.8833 56.3249 
389.16 35.5643 56.3045 
389.145 37.2454 56.2842 
389.13 38.9264 56.2638 
390.851 40.767 57.3005 
390.836 42.4445 57.2801 
390.82 44.1219 57.2598 
390.805 45.7994 57.2395 
393.396 47.6947 58.8049 
393.38 49.3668 58.7846 
390.759 50.8318 57.1785 
390.743 52.5093 57.1582 
390.728 54.1868 57.1378 
390.712 55.8642 57.1175 
390.697 57.5417 57.0972 
390.681 59.2192 57.0768 
390.666 60.8966 57.0565 
390.65 62.5741 57.0362 
390.635 64.2516 57.0159 
390.619 65.929 56.9955 
390.604 67.6065 56.9752 
388.851 69.1853 55.8971 
385.57 -17.3963 52.5089 
385.555 -15.7046 52.4884 
388.14 -13.6018 54.0554 
388.124 -11.9154 54.0349 
388.109 -10.229 54.0145 
390.694 -8.14765 55.5817 
390.679 -6.4666 55.5613 
390.663 -4.78555 55.5409 
390.648 -3.10451 55.5206 
390.632 -1.42346 55.5002 
390.617 0.257587 55.4798 
388 1.57591 53.8715 
387.984 3.26233 53.851 
390.57 5.30073 55.4187 
390.555 6.98178 55.3983 
390.539 8.66282 55.378 
390.524 10.3439 55.3576 
390.508 12.0249 55.3372 
390.493 13.706 55.3168 
390.477 15.387 55.2965 
390.462 17.0681 55.2761 
390.446 18.7491 55.2557 
390.431 20.4301 55.2354 
390.415 22.1112 55.215 
390.4 23.7922 55.1946 
390.384 25.4733 55.1742 
390.369 27.1543 55.1539 
390.353 28.8354 55.1335 
390.338 30.5164 55.1131 
390.322 32.1975 55.0928 
390.307 33.8785 55.0724 
390.291 35.5596 55.052 
390.276 37.2406 55.0316 
390.26 38.9217 55.0113 
390.245 40.6027 54.9909 
390.229 42.2838 54.9705 
391.949 44.1172 56.0099 
391.933 45.7947 55.9896 
391.918 47.4721 55.9693 
391.902 49.1496 55.9489 
391.887 50.8271 55.9286 
391.872 52.5045 55.9083 
391.856 54.182 55.888 
391.841 55.8595 55.8676 
391.825 57.537 55.8473 
391.81 59.2144 55.827 
391.794 60.8919 55.8066 
391.779 62.5694 55.7863 
391.763 64.2468 55.766 
391.748 65.9243 55.7457 
389.997 67.4995 54.6649 
389.259 -11.9201 52.7784 
389.243 -10.2337 52.758 
389.228 -8.54733 52.7375 
389.212 -6.86092 52.7171 
389.197 -5.1745 52.6967 
389.181 -3.48809 52.6762 
389.165 -1.80168 52.6558 
389.15 -0.115267 52.6353 
389.134 1.57114 52.6149 
389.119 3.25756 52.5945 
389.103 4.94396 52.574 
389.088 6.63038 52.5536 
389.072 8.31679 52.5332 
389.057 10.0032 52.5127 
389.041 11.6896 52.4923 
389.026 13.376 52.4719 
389.01 15.0624 52.4514 
391.36 42.279 53.718 
391.345 43.96 53.6976 
391.329 45.6411 53.6772 
391.314 47.3221 53.6569 
391.298 49.0032 53.6365 
393.015 50.8223 54.6788 
393 52.4998 54.6584 
392.984 54.1773 54.6381 
391.236 55.7274 53.555 
391.221 57.4084 53.5346 
391.205 59.0895 53.5143 
391.19 60.7705 53.4939 
391.174 62.4516 53.4735 
391.159 64.1326 53.4532 
391.143 65.8136 53.4328 
