ply
format ascii 1.0
comment Created by CloudCompare v2.11 alpha (Anoia)
comment Created 15/04/2019 17:08
obj_info Generated by CloudCompare!
element vertex 1375
property float x
property float y
property float z
end_header
-0.011006 -0.0133452 0.052629 
-0.011021 -0.0117088 0.052609 
-0.011052 -0.0084361 0.052569 
-0.00671799 0.0132611 0.054747 
-0.006733 0.0148885 0.054727 
-0.004936 0.0166787 0.055682 
-0.00495099 0.0183025 0.055662 
-0.00351501 -0.0190499 0.054905 
-0.00533899 -0.017664 0.053909 
-0.005354 -0.0160366 0.053889 
-0.00536899 -0.0144092 0.05387 
-0.005384 -0.0127818 0.05385 
-0.008112 -0.0114898 0.052366 
-0.00812701 -0.0098571 0.052346 
-0.008142 -0.0082243 0.052326 
-0.00815701 -0.0065916 0.052307 
-0.008172 -0.0049588 0.052287 
-0.00818701 -0.003326 0.052267 
-0.008202 -0.0016933 0.052247 
-0.00821701 -6.04992e-05 0.052227 
-0.00823199 0.0015722 0.052208 
-0.00824701 0.003205 0.052188 
-0.00826199 0.0048378 0.052168 
-0.00827701 0.0064705 0.052148 
-0.005578 0.0083743 0.053594 
-0.00559299 0.0100017 0.053574 
-0.005608 0.0116291 0.053554 
-0.00562299 0.0132565 0.053534 
-0.00382901 0.0150503 0.054492 
-0.00384399 0.0166741 0.054472 
-0.00385901 0.0182979 0.054452 
-0.00387399 0.0199218 0.054433 
0.000316986 -0.0219291 0.055202 
0.000302002 -0.0203107 0.055183 
0.000286987 -0.0186922 0.055163 
-0.00243799 -0.0174307 0.053675 
-0.002452 -0.0158069 0.053656 
-0.00427399 -0.0144138 0.052657 
-0.004289 -0.0127864 0.052637 
-0.00430399 -0.011159 0.052618 
-0.004319 -0.0095316 0.052598 
-0.00433401 -0.0079042 0.052578 
-0.004349 -0.0062768 0.052559 
-0.00436401 -0.0046494 0.052539 
-0.00708899 -0.0033307 0.05105 
-0.007104 -0.0016979 0.051031 
-0.00711899 -6.50997e-05 0.051011 
-0.007134 0.0015676 0.050991 
-0.00714899 0.0032004 0.050971 
-0.007164 0.0048332 0.050951 
-0.00446899 0.0067423 0.052401 
-0.00448401 0.0083697 0.052381 
-0.00449899 0.0099971 0.052361 
-0.00451401 0.0116245 0.052342 
-0.00452899 0.0132519 0.052322 
-0.002737 0.0150457 0.053282 
-0.00275201 0.0166695 0.053262 
-0.002767 0.0182934 0.053243 
-0.00278201 0.0199172 0.053223 
-0.002797 0.021541 0.053203 
-0.00578 -0.0261939 0.050111 
0.00142001 -0.0235522 0.054016 
0.001405 -0.0219337 0.053997 
0.00139099 -0.0203153 0.053977 
-0.00132999 -0.0190591 0.052485 
-0.001345 -0.0174353 0.052466 
-0.00135999 -0.0158115 0.052446 
-0.00317899 -0.0144184 0.051445 
-0.003194 -0.012791 0.051425 
-0.00320901 -0.0111636 0.051405 
-0.003224 -0.0095362 0.051385 
-0.00323901 -0.0079088 0.051366 
-0.003254 -0.0062814 0.051346 
-0.00326901 -0.004654 0.051326 
-0.003284 -0.0030266 0.051307 
-0.00329901 -0.0013993 0.051287 
-0.00601999 -6.97994e-05 0.049794 
-0.00603601 0.001563 0.049774 
-0.00605099 0.0031958 0.049755 
-0.00335901 0.0051103 0.051208 
-0.00337399 0.0067377 0.051188 
-0.00338901 0.0083651 0.051169 
-0.00340399 0.0099925 0.051149 
-0.00341901 0.0116199 0.051129 
-0.00343399 0.0132473 0.051109 
-0.00344901 0.0148747 0.05109 
-0.001659 0.0166649 0.052052 
-0.00167401 0.0182888 0.052033 
-0.001689 0.0199126 0.052013 
-0.003509 0.0213843 0.051011 
-0.001979 -0.0258148 0.05037 
-0.000192993 -0.0239352 0.051334 
-0.000208008 -0.0223113 0.051315 
-0.000222992 -0.0206875 0.051295 
-0.000238007 -0.0190637 0.051275 
-0.000252991 -0.0174399 0.051256 
-0.002069 -0.0160504 0.050252 
-0.00208401 -0.014423 0.050232 
-0.002099 -0.0127956 0.050212 
-0.00211401 -0.0111682 0.050193 
-0.002129 -0.0095408 0.050173 
-0.00214401 -0.0079135 0.050153 
-0.002159 -0.0062861 0.050133 
-0.00217401 -0.0046587 0.050114 
-0.002189 -0.0030313 0.050094 
-0.00220401 -0.0014039 0.050074 
-0.00221899 0.000223499 0.050055 
-0.00223401 0.0018509 0.050035 
-0.00224899 0.0034783 0.050015 
-0.00226401 0.0051057 0.049995 
-0.00227899 0.0067331 0.049976 
-0.00229401 0.0083605 0.049956 
-0.00230899 0.0099879 0.049936 
-0.00232401 0.0116153 0.049917 
-0.00233899 0.0132427 0.049897 
-0.002354 0.0148701 0.049877 
-0.00236899 0.0164975 0.049857 
-0.002384 0.0181249 0.049838 
-0.00239899 0.0197523 0.049818 
-0.00511801 0.0211515 0.04832 
-0.005367 -0.0280954 0.046711 
-0.00088501 -0.0258194 0.049158 
0.000898987 -0.0239397 0.050124 
0.000884003 -0.0223159 0.050105 
0.000868988 -0.0206921 0.050085 
-0.000945007 -0.0193098 0.049079 
-0.000959991 -0.0176824 0.049059 
-0.000975006 -0.016055 0.049039 
-0.00098999 -0.0144276 0.04902 
-0.001005 -0.0128002 0.049 
-0.00101999 -0.0111728 0.04898 
-0.001035 -0.0095454 0.04896 
-0.00104999 -0.0079181 0.048941 
-0.001065 -0.0062907 0.048921 
-0.00107999 -0.0046633 0.048901 
-0.001095 -0.0030359 0.048881 
-0.00110999 -0.0014085 0.048862 
-0.001125 0.000218901 0.048842 
-0.00114001 0.0018463 0.048822 
-0.001155 0.0034737 0.048803 
-0.00117001 0.0051011 0.048783 
-0.001185 0.0067285 0.048763 
-0.00120001 0.0083559 0.048743 
-0.001215 0.0099833 0.048724 
-0.00392899 0.0113503 0.047223 
-0.003944 0.0129831 0.047203 
-0.00126001 0.0148655 0.048665 
-0.00127499 0.0164929 0.048645 
-0.00129001 0.0181203 0.048625 
-0.00130499 0.0197477 0.048605 
-0.00401901 0.0211469 0.047104 
-0.004034 0.0227797 0.047084 
-0.00248499 -0.0262078 0.046461 
0.000195007 -0.0241966 0.047925 
0.000179993 -0.0225692 0.047906 
0.000165009 -0.0209418 0.047886 
0.000149994 -0.0193144 0.047866 
0.00013501 -0.017687 0.047846 
0.000119995 -0.0160596 0.047827 
0.000105011 -0.0144322 0.047807 
8.99963e-05 -0.0128048 0.047787 
7.50122e-05 -0.0111775 0.047768 
5.99976e-05 -0.0095501 0.047748 
4.50134e-05 -0.0079227 0.047728 
2.99988e-05 -0.0062953 0.047708 
1.50146e-05 -0.0046679 0.047689 
0 -0.0030405 0.047669 
-1.50146e-05 -0.0014131 0.047649 
-2.99988e-05 0.0002143 0.047629 
-4.50134e-05 0.0018417 0.04761 
-5.99976e-05 0.0034691 0.04759 
-7.50122e-05 0.0050965 0.04757 
-8.99963e-05 0.0067239 0.047551 
-0.000105011 0.0083513 0.047531 
-0.00281601 0.009713 0.046026 
-0.00283099 0.0113457 0.046006 
-0.00284601 0.0129785 0.045986 
-0.00286099 0.0146112 0.045967 
-0.000179993 0.0164883 0.047432 
-0.00289099 0.0178768 0.045927 
-0.00290601 0.0195095 0.045907 
-0.00292099 0.0211423 0.045887 
-0.002936 0.022775 0.045868 
-0.00474899 0.0242628 0.0448573 
-0.003181 -0.0264683 0.0442528 
-0.001401 -0.0245797 0.045225 
-0.00141699 -0.0229469 0.045205 
-0.00143201 -0.0213141 0.045185 
-0.00144699 -0.0196814 0.045165 
-0.00146201 -0.0180486 0.045146 
-0.00147699 -0.0164159 0.045126 
-0.001492 -0.0147831 0.045106 
-0.00150699 -0.0131503 0.045086 
0.00117001 -0.0111821 0.046555 
0.001155 -0.0095547 0.046535 
0.00114001 -0.0079273 0.046516 
0.001125 -0.0062999 0.046496 
0.00110999 -0.0046725 0.046476 
0.001095 -0.0030451 0.046456 
0.00107999 -0.0014177 0.046437 
0.001065 0.0002097 0.046417 
0.00104999 0.0018371 0.046397 
0.001035 0.0034645 0.046377 
0.00101999 0.0050919 0.046358 
0.001005 0.0067193 0.046338 
-0.001702 0.0080756 0.0448291 
-0.00171701 0.0097083 0.0448093 
-0.00173199 0.0113411 0.0447895 
-0.00174799 0.0129738 0.0447698 
-0.001763 0.0146066 0.04475 
-0.00177802 0.0162394 0.0447302 
-0.001793 0.0178721 0.0447104 
-0.00180801 0.0195049 0.0446906 
-0.001823 0.0211377 0.0446708 
-0.00183801 0.0227704 0.044651 
-0.001853 0.0244032 0.0446312 
-0.00366299 0.0258945 0.0436182 
-0.006371 0.0273241 0.0421084 
-0.00207999 -0.0264729 0.0430336 
-0.002095 -0.0248366 0.0430137 
-0.00210999 -0.0232002 0.0429939 
-0.002125 -0.0215639 0.0429741 
-0.000347992 -0.019686 0.0439489 
-0.000363007 -0.0180532 0.0439292 
-0.000377991 -0.0164205 0.0439094 
-0.000393005 -0.0147877 0.0438896 
-0.00040799 -0.013155 0.0438698 
-0.000424011 -0.0115222 0.04385 
-0.000438995 -0.0098894 0.0438302 
-0.00045401 -0.0082567 0.0438104 
-0.000468994 -0.0066239 0.0437906 
-0.000484009 -0.0049912 0.0437709 
-0.000498993 -0.0033584 0.0437511 
-0.000514008 -0.0017256 0.0437313 
-0.000528992 -9.28993e-05 0.0437115 
-0.000544006 0.0015399 0.0436917 
-0.00055899 0.0031727 0.0436719 
-0.000574005 0.0048054 0.0436521 
-0.000588989 0.0064382 0.0436323 
-0.000604004 0.0080709 0.0436126 
-0.000618988 0.0097037 0.0435928 
-0.000634003 0.0113365 0.043573 
-0.000648987 0.0129692 0.0435532 
-0.000664001 0.014602 0.0435334 
-0.000678986 0.0162347 0.0435136 
-0.000694 0.0178675 0.0434938 
-0.000709015 0.0195003 0.0434741 
-0.000723999 0.021133 0.0434543 
-0.00073999 0.0227658 0.0434345 
-0.002547 0.0242536 0.0424188 
-0.00256201 0.0258899 0.042399 
-0.002577 0.0275262 0.0423792 
-0.00528201 0.0289612 0.0408653 
-0.00364801 -0.0285031 0.0403384 
-0.00366299 -0.0268614 0.0403185 
-0.000993988 -0.0248412 0.0417945 
-0.001009 -0.0232049 0.0417747 
-0.00102399 -0.0215685 0.0417548 
-0.001039 -0.0199322 0.041735 
0.000734985 -0.0180579 0.0427126 
0.000720001 -0.0164251 0.0426928 
0.000704987 -0.0147923 0.042673 
0.000690002 -0.0131596 0.0426532 
0.000674988 -0.0115268 0.0426335 
0.000660004 -0.0098941 0.0426137 
0.000644989 -0.0082613 0.0425939 
0.000630005 -0.0066285 0.0425741 
0.00061499 -0.0049958 0.0425543 
0.000600006 -0.003363 0.0425345 
0.000584991 -0.0017302 0.0425147 
0.000569 -9.74998e-05 0.0424949 
0.000553986 0.0015353 0.0424752 
0.000539001 0.003168 0.0424554 
0.000523987 0.0048008 0.0424356 
0.000509003 0.0064336 0.0424158 
-0.00129599 0.0078855 0.0413979 
-0.001311 0.0095219 0.0413781 
-0.00132599 0.0111582 0.0413582 
-0.001341 0.0127946 0.0413384 
0.00043399 0.0145974 0.0423169 
0.000419006 0.0162301 0.0422971 
0.000403992 0.0178629 0.0422773 
0.000389008 0.0194957 0.0422575 
-0.00141599 0.0209762 0.0412393 
-0.001431 0.0226126 0.0412194 
-0.00144699 0.0242489 0.0411996 
-0.00146201 0.0258853 0.0411798 
-0.00147699 0.0275216 0.0411599 
-0.004177 0.0289565 0.0396421 
-0.00419299 0.0305982 0.0396222 
-0.00432999 -0.0287672 0.0381154 
-0.00255899 -0.026866 0.0390953 
-0.00257401 -0.0252243 0.0390754 
-0.00258899 -0.0235826 0.0390555 
7.59888e-05 -0.0215732 0.0405356 
6.10046e-05 -0.0199368 0.0405158 
4.599e-05 -0.0183005 0.040496 
3.10059e-05 -0.0166642 0.0404761 
1.59912e-05 -0.0150278 0.0404563 
1.00708e-06 -0.0133915 0.0404365 
0.00177301 -0.0115314 0.0414169 
-2.89917e-05 -0.0101188 0.0403968 
0.00174301 -0.0082659 0.0413773 
0.001728 -0.0066332 0.0413575 
0.00171301 -0.0050004 0.0413378 
0.001698 -0.0033676 0.041318 
-0.000105011 -0.0019371 0.0402977 
-0.000119995 -0.0003008 0.0402778 
-0.00013501 0.0013356 0.040258 
-0.000149994 0.0029719 0.0402382 
-0.000165009 0.0046082 0.0402183 
-0.000179993 0.0062446 0.0401985 
-0.000195007 0.0078809 0.0401787 
-0.000209991 0.0095173 0.0401589 
-0.000225006 0.0111536 0.040139 
-0.00023999 0.0127899 0.0401192 
-0.000255005 0.0144263 0.0400994 
-0.000269989 0.0160626 0.0400795 
-0.000285004 0.0176989 0.0400597 
-0.000300995 0.0193353 0.0400399 
-0.00031601 0.0209716 0.0400201 
-0.000330994 0.022608 0.0400002 
-0.000346008 0.0242443 0.0399804 
-0.000360992 0.0258806 0.0399606 
-0.000376007 0.027517 0.0399407 
-0.003073 0.0289519 0.0384189 
-0.00308801 0.0305936 0.038399 
-0.00589999 -0.0291611 0.0353857 
-0.00323901 -0.0271266 0.0368695 
-0.003254 -0.0254813 0.0368496 
-0.00148499 -0.0235873 0.0378323 
-0.0015 -0.0219456 0.0378124 
-0.00151501 -0.0203039 0.0377925 
0.001147 -0.0183051 0.0392767 
0.00113199 -0.0166688 0.0392569 
0.001117 -0.0150324 0.0392371 
0.00110199 -0.0133961 0.0392173 
0.00108701 -0.0117598 0.0391974 
0.00107199 -0.0101234 0.0391776 
0.00105701 -0.0084871 0.0391578 
0.00104099 -0.0068508 0.0391379 
0.001026 -0.0052144 0.0391181 
0.00101099 -0.0035781 0.0390983 
0.000996002 -0.0019417 0.0390784 
0.000980988 -0.000305401 0.0390586 
0.000966003 0.0013309 0.0390388 
0.000950989 0.0029673 0.039019 
0.000936005 0.0046036 0.0389991 
0.00092099 0.0062399 0.0389793 
0.000906006 0.0078763 0.0389595 
0.000890991 0.0095126 0.0389396 
0.000876007 0.011149 0.0389198 
0.000860992 0.0127853 0.0389 
0.000845001 0.0144216 0.0388801 
0.000829987 0.016058 0.0388603 
0.000815002 0.0176943 0.0388405 
0.000799988 0.0193307 0.0388207 
0.000785004 0.020967 0.0388008 
0.000769989 0.0226033 0.038781 
0.000755005 0.0242397 0.0387612 
0.00073999 0.025876 0.0387413 
-0.00195401 0.0273055 0.0372155 
-0.00196899 0.0289472 0.0371956 
-0.00198401 0.0305889 0.0371757 
-0.00479001 -0.0291658 0.0341558 
-0.00480499 -0.0275151 0.0341358 
-0.002147 -0.025486 0.0356237 
-0.00216199 -0.0238407 0.0356038 
-0.000394989 -0.0219502 0.0365892 
-0.000411011 -0.0203085 0.0365693 
-0.000425995 -0.0186668 0.0365494 
-0.00044101 -0.0170251 0.0365295 
-0.000455994 -0.0153834 0.0365096 
0.002202 -0.0134007 0.037998 
0.00218701 -0.0117644 0.0379782 
0.002172 -0.0101281 0.0379584 
0.00215701 -0.0084917 0.0379386 
0.002142 -0.0068554 0.0379187 
0.00212701 -0.0052191 0.0378989 
0.002112 -0.0035827 0.0378791 
0.00209698 -0.0019464 0.0378592 
0.002082 -0.000309999 0.0378394 
0.00206699 0.0013263 0.0378196 
0.002052 0.0029626 0.0377997 
-0.000636993 0.004317 0.0362709 
-0.000653015 0.0059587 0.036251 
-0.000667999 0.0076004 0.0362311 
-0.000683014 0.0092421 0.0362112 
0.00197601 0.0111443 0.0377006 
0.001961 0.0127807 0.0376808 
0.00194601 0.014417 0.0376609 
0.001931 0.0160533 0.0376411 
0.00191599 0.0176897 0.0376213 
0.001901 0.019326 0.0376014 
0.00188599 0.0209624 0.0375816 
0.001871 0.0225987 0.0375618 
0.00185599 0.024235 0.0375419 
-0.000834015 0.0256592 0.0360122 
-0.000848999 0.0273009 0.0359923 
-0.000864014 0.0289426 0.0359724 
-0.000880005 0.0305843 0.0359525 
-0.005353 0.0319081 0.0334157 
-0.00545901 -0.0294299 0.0319181 
-0.00369501 -0.0275198 0.032906 
-0.00370999 -0.0258691 0.0328859 
-0.001056 -0.0238453 0.0343779 
-0.00107101 -0.0222001 0.034358 
0.000694 -0.0203132 0.0353461 
0.000678986 -0.0186714 0.0353262 
0.000664001 -0.0170298 0.0353063 
0.00064801 -0.0153881 0.0352864 
0.000632996 -0.0137463 0.0352665 
0.00328799 -0.011769 0.036759 
0.000602997 -0.0104629 0.0352267 
0.003258 -0.0084964 0.0367193 
0.00324301 -0.00686 0.0366995 
0.003228 -0.0052237 0.0366797 
0.000542999 -0.0038961 0.0351471 
0.000527008 -0.0022544 0.0351272 
0.000511993 -0.0006127 0.0351073 
0.000497009 0.001029 0.0350874 
0.000481995 0.0026707 0.0350675 
0.00046701 0.0043124 0.0350476 
0.000451996 0.0059541 0.0350277 
0.000437012 0.0075958 0.0350078 
0.00042099 0.0092375 0.0349879 
0.000406006 0.0108792 0.034968 
0.000390991 0.0125209 0.0349482 
0.000376007 0.0141626 0.0349283 
0.000360992 0.0158043 0.0349084 
0.003017 0.017685 0.036402 
0.00300201 0.0193214 0.0363822 
0.00031601 0.0207294 0.0348487 
0.000299988 0.0223711 0.0348288 
0.000285004 0.0240128 0.0348089 
0.000269989 0.0256545 0.034789 
0.000255005 0.0272962 0.0347691 
0.00023999 0.0289379 0.0347492 
0.000225006 0.0305796 0.0347293 
-0.004242 0.0319034 0.0321858 
-0.004258 0.0335541 0.0321658 
-0.00434698 -0.0294346 0.0306856 
-0.00258499 -0.0275245 0.0316761 
-0.00260001 -0.0258738 0.0316561 
5.09949e-05 -0.02385 0.033152 
3.60107e-05 -0.0222047 0.0331321 
0.001798 -0.0203178 0.0341228 
0.00178299 -0.0186761 0.0341029 
0.00176801 -0.0170344 0.0340831 
0.00175299 -0.0153927 0.0340632 
0.00173801 -0.013751 0.0340433 
0.00438901 -0.0117737 0.0355398 
0.001707 -0.0104676 0.0340035 
0.00435901 -0.008501 0.0355001 
0.00434399 -0.0068647 0.0354803 
0.00432901 -0.0052283 0.0354604 
0.001647 -0.0039008 0.0339239 
0.00163199 -0.0022591 0.033904 
0.001617 -0.000617399 0.0338841 
0.00426801 0.001317 0.0353811 
0.00425299 0.0029534 0.0353613 
0.00157101 0.0043077 0.0338244 
0.001556 0.0059494 0.0338045 
0.00154099 0.0075911 0.0337846 
0.001526 0.0092329 0.0337647 
0.00417801 0.0111351 0.0352622 
0.00416299 0.0127714 0.0352423 
0.00414801 0.0144077 0.0352225 
0.004133 0.0160441 0.0352027 
0.004117 0.0176804 0.0351828 
0.00410199 0.0193168 0.035163 
0.00408701 0.0209531 0.0351432 
0.00407199 0.0225894 0.0351233 
0.00405701 0.0242258 0.0351035 
0.001375 0.0256499 0.0335658 
0.00135901 0.0272916 0.0335459 
0.00134399 0.0289333 0.033526 
0.00132901 0.030575 0.0335061 
-0.00313199 0.0318988 0.030956 
-0.003147 0.0335494 0.030936 
-0.00323401 -0.0294393 0.029453 
-0.001474 -0.0275291 0.0304462 
-0.00148901 -0.0258785 0.0304262 
0.00115799 -0.0238546 0.0319261 
0.00114301 -0.0222094 0.0319062 
0.00112799 -0.0205641 0.0318863 
0.00288699 -0.0186807 0.0328797 
0.00287201 -0.017039 0.0328598 
0.00285699 -0.0153973 0.0328399 
0.00284201 -0.0137556 0.03282 
0.002827 -0.0121139 0.0328001 
0.00281201 -0.0104722 0.0327803 
0.002797 -0.0088305 0.0327604 
0.00278101 -0.0071888 0.0327405 
0.00276599 -0.0055471 0.0327206 
0.00275101 -0.0039054 0.0327007 
0.00273599 -0.0022637 0.0326808 
0.00272101 -0.000622 0.0326609 
0.00270599 0.0010197 0.032641 
0.00269101 0.0026614 0.0326211 
0.00267599 0.0043031 0.0326012 
0.00266 0.0059448 0.0325813 
0.00264499 0.0075865 0.0325614 
0.00263 0.0092282 0.0325415 
0.00261499 0.0108699 0.0325216 
0.00260001 0.0125116 0.0325017 
0.00258499 0.0141533 0.0324818 
0.00257001 0.015795 0.0324619 
0.00255499 0.0174367 0.032442 
0.002539 0.0190784 0.0324221 
0.00252399 0.0207201 0.0324022 
0.002509 0.0223618 0.0323823 
0.00249399 0.0240035 0.0323624 
0.002479 0.0256452 0.0323426 
0.00246399 0.0272869 0.0323227 
0.00244901 0.0289286 0.0323028 
0.00243399 0.0305704 0.0322829 
-0.002022 0.0318941 0.0297261 
-0.00203699 0.0335447 0.0297061 
-0.00478 -0.0298333 0.0266968 
-0.00213599 -0.0277897 0.0282004 
-0.000378998 -0.0258831 0.0291963 
-0.000394012 -0.0242325 0.0291763 
0.00224899 -0.022214 0.0306803 
0.00223401 -0.0205687 0.0306604 
0.00221899 -0.0189235 0.0306404 
0.00220401 -0.0172782 0.0306205 
0.002189 -0.0156329 0.0306006 
0.00394601 -0.0137603 0.0315968 
0.003931 -0.0121186 0.0315769 
0.00391599 -0.0104769 0.031557 
0.003901 -0.0088352 0.0315371 
0.00388599 -0.0071935 0.0315172 
0.00209799 -0.0057612 0.0304809 
0.00208301 -0.0041159 0.030461 
0.00206699 -0.0024707 0.0304411 
0.002052 -0.000825399 0.0304211 
0.00203699 0.000819901 0.0304012 
0.002022 0.0024652 0.0303813 
0.00200699 0.0041105 0.0303613 
0.001992 0.0057557 0.0303414 
0.00197699 0.007401 0.0303214 
0.001961 0.0090463 0.0303015 
0.00194601 0.0106916 0.0302816 
0.001931 0.0123369 0.0302616 
0.00191599 0.0139821 0.0302417 
0.00367401 0.0157904 0.0312387 
0.003659 0.0174321 0.0312188 
0.00364401 0.0190738 0.0311989 
0.003629 0.0207155 0.031179 
0.00361301 0.0223572 0.0311591 
0.00359799 0.0239989 0.0311392 
0.00358301 0.0256406 0.0311193 
0.00356799 0.0272823 0.0310995 
0.00355301 0.028924 0.0310796 
0.00353799 0.0305657 0.0310597 
-0.000911011 0.0318894 0.0284962 
-0.000927002 0.0335401 0.0284762 
-0.002716 0.0350707 0.0274387 
-0.00366299 -0.029838 0.0254602 
-0.00102399 -0.0277944 0.0269679 
0.000730988 -0.0258878 0.0279664 
0.000716003 -0.0242372 0.0279464 
0.000700989 -0.0225865 0.0279264 
0.000686005 -0.0209359 0.0279064 
0.000670013 -0.0192852 0.0278864 
0.000654999 -0.0176346 0.0278664 
0.00329599 -0.0156376 0.0293747 
0.00328 -0.0139923 0.0293548 
0.00326501 -0.012347 0.0293348 
0.00325 -0.0107017 0.0293149 
0.00323499 -0.0090564 0.0292949 
0.00322 -0.0074112 0.029275 
0.00320499 -0.0057659 0.0292551 
0.003189 -0.0041206 0.0292351 
0.00317401 -0.0024753 0.0292152 
0.000502991 -0.0011281 0.0276664 
0.000488007 0.000522499 0.0276464 
0.000472992 0.0021731 0.0276264 
0.000458008 0.0038238 0.0276064 
0.000441986 0.0054744 0.0275864 
0.000427002 0.0071251 0.0275664 
0.000411987 0.0087757 0.0275464 
0.000397003 0.0104264 0.0275264 
0.000381012 0.012077 0.0275064 
0.00302301 0.0139775 0.0290158 
0.00300699 0.0156228 0.0289959 
0.002992 0.017268 0.0289759 
0.00297699 0.0189133 0.028956 
0.00296201 0.0205586 0.028936 
0.00294699 0.0222039 0.0289161 
0.00293201 0.0238492 0.0288962 
0.00291599 0.0254944 0.0288762 
0.004672 0.0272776 0.0298762 
0.00465701 0.0289194 0.0298563 
0.002871 0.0304303 0.0288164 
0.000199005 0.0318847 0.0272663 
-0.00158801 0.0334118 0.0262262 
-0.001603 0.035066 0.0262061 
-0.00427499 0.0365455 0.0246557 
-0.002547 -0.0298427 0.0242237 
8.89893e-05 -0.0277991 0.0257353 
7.40051e-05 -0.0261449 0.0257153 
0.00182599 -0.0242419 0.0267166 
0.001811 -0.0225912 0.0266966 
0.00179599 -0.0209406 0.0266766 
0.00178101 -0.0192899 0.0266566 
0.00176599 -0.0176393 0.0266366 
0.00175 -0.0159886 0.0266165 
0.00173499 -0.014338 0.0265965 
0.00172 -0.0126873 0.0265765 
0.00170499 -0.0110367 0.0265565 
0.00169 -0.009386 0.0265365 
0.00167401 -0.0077354 0.0265165 
0.001659 -0.0060848 0.0264965 
0.00164401 -0.0044341 0.0264765 
0.001629 -0.0027835 0.0264565 
0.00161301 -0.0011328 0.0264365 
0.00159799 0.000517799 0.0264165 
0.00158301 0.0021685 0.0263965 
0.00156799 0.0038191 0.0263765 
0.00155301 0.0054698 0.0263565 
0.00153699 0.0071204 0.0263365 
0.001522 0.008771 0.0263165 
0.00150699 0.0104217 0.0262965 
0.001492 0.0120723 0.0262765 
0.00147699 0.013723 0.0262565 
0.001461 0.0153736 0.0262365 
0.004099 0.0172634 0.02775 
0.00408401 0.0189087 0.0277301 
0.004069 0.0205539 0.0277102 
0.00405399 0.0221992 0.0276902 
0.00403799 0.0238445 0.0276703 
0.00402301 0.0254898 0.0276504 
0.004008 0.0271351 0.0276304 
0.00399301 0.0287803 0.0276105 
0.00132401 0.0302294 0.0260564 
-0.000459991 0.0317529 0.0250137 
-0.000475006 0.0334071 0.0249936 
-0.00048999 0.0350613 0.0249736 
-0.003159 0.0365408 0.0234192 
-0.00317401 0.0382004 0.0233991 
-0.003181 -0.0317701 0.0219835 
-0.001431 -0.0298474 0.0229871 
0.001202 -0.0278038 0.0245028 
0.00118701 -0.0261496 0.0244827 
0.00117099 -0.0244954 0.0244627 
0.00115601 -0.0228411 0.0244427 
0.00114099 -0.0211869 0.0244226 
0.00112601 -0.0195327 0.0244026 
0.00111099 -0.0178785 0.0243825 
0.001095 -0.0162243 0.0243625 
0.00107999 -0.01457 0.0243424 
0.001065 -0.0129158 0.0243224 
0.00104999 -0.0112616 0.0243023 
0.001034 -0.0096074 0.0242823 
0.00101901 -0.0079531 0.0242622 
0.001004 -0.0062989 0.0242422 
0.000989014 -0.0046447 0.0242221 
0.000972992 -0.0029905 0.0242021 
0.000958008 -0.0013363 0.0241821 
0.000942993 0.000318001 0.024162 
0.000928009 0.0019722 0.024142 
0.000911987 0.0036264 0.0241219 
0.000897003 0.0052806 0.0241019 
0.00264801 0.0071157 0.0251066 
0.002633 0.0087664 0.0250866 
0.002617 0.010417 0.0250666 
0.00260199 0.0120677 0.0250466 
0.00258701 0.0137183 0.0250266 
0.00257199 0.015369 0.0250066 
0.00255701 0.0170196 0.0249866 
0.00254099 0.0186702 0.0249666 
0.002526 0.0203209 0.0249466 
0.00251099 0.0219715 0.0249266 
0.002496 0.0236222 0.0249066 
0.00248001 0.0252728 0.0248866 
0.002465 0.0269235 0.0248666 
0.00245001 0.0285741 0.0248466 
0.002435 0.0302248 0.0248266 
0.000653015 0.0317482 0.0237811 
0.000638 0.0334024 0.0237611 
0.000622986 0.0350566 0.023741 
-0.00204199 0.0365361 0.0221827 
-0.00205801 0.0381957 0.0221626 
-0.002073 0.0398553 0.0221424 
-0.00469101 -0.0338381 0.0192248 
-0.00206201 -0.0317748 0.0207442 
-0.002077 -0.0301116 0.0207241 
-0.00032901 -0.0281925 0.0217305 
0.00229901 -0.0261543 0.0232502 
0.002284 -0.0245 0.0232302 
0.00226901 -0.0228458 0.0232101 
0.002254 -0.0211916 0.0231901 
0.00223901 -0.0195374 0.02317 
0.00222299 -0.0178832 0.02315 
0.00220801 -0.0162289 0.0231299 
0.00219299 -0.0145747 0.0231099 
0.00217801 -0.0129205 0.0230898 
0.00216199 -0.0112663 0.0230698 
0.002147 -0.009612 0.0230497 
0.00213199 -0.0079578 0.0230297 
0.002117 -0.0063036 0.0230096 
0.00210101 -0.0046494 0.0229896 
0.002086 -0.0029952 0.0229696 
0.00207101 -0.0013409 0.0229495 
0.002056 0.000313299 0.0229295 
0.00204001 0.0019675 0.0229094 
0.00202499 0.0036217 0.0228894 
0.00201001 0.0052759 0.0228693 
0.001995 0.0069302 0.0228493 
0.001979 0.0085844 0.0228292 
0.00196399 0.0102386 0.0228092 
0.00194901 0.0118928 0.0227891 
0.00193399 0.0135471 0.0227691 
0.001918 0.0152013 0.022749 
0.00190302 0.0168555 0.022729 
0.001888 0.0185097 0.0227089 
0.00187299 0.0201639 0.0226889 
0.00185699 0.0218182 0.0226689 
0.00184201 0.0234724 0.0226488 
0.001827 0.0251266 0.0226288 
0.00181201 0.0267808 0.0226087 
0.00179599 0.0284351 0.0225887 
0.00178101 0.0300893 0.0225686 
0.00176599 0.0317435 0.0225486 
0.00175101 0.0333977 0.0225285 
-0.000911011 0.0348718 0.0209662 
-0.000925995 0.0365314 0.0209461 
-0.00094101 0.038191 0.020926 
-0.000957001 0.0398506 0.0209059 
-0.000971985 0.0415102 0.0208858 
-0.005298 -0.0374537 0.0169931 
-0.00531299 -0.0357816 0.0169728 
-0.00356799 -0.0338428 0.0179816 
-0.00358301 -0.0321743 0.0179614 
-0.000958008 -0.0301164 0.0194849 
-0.000973999 -0.0284532 0.0194647 
0.000772003 -0.0265376 0.0204738 
0.000756012 -0.024878 0.0204537 
0.000740997 -0.0232184 0.0204336 
0.000726013 -0.0215588 0.0204135 
0.000709991 -0.0198992 0.0203934 
0.000695007 -0.0182397 0.0203733 
0.00332101 -0.0162336 0.0218974 
0.003306 -0.0145794 0.0218773 
0.00329001 -0.0129252 0.0218573 
0.00327499 -0.011271 0.0218372 
0.00326001 -0.0096167 0.0218172 
0.003245 -0.0079625 0.0217971 
0.003229 -0.0063083 0.0217771 
0.00321399 -0.0046541 0.021757 
0.00319901 -0.0029998 0.021737 
0.00318399 -0.0013456 0.021717 
0.003168 0.000308599 0.0216969 
0.00315302 0.0019628 0.0216769 
0.003138 0.003617 0.0216568 
0.00312299 0.0052713 0.0216368 
0.00310699 0.0069255 0.0216167 
0.00309201 0.0085797 0.0215967 
0.003077 0.0102339 0.0215766 
0.00306201 0.0118881 0.0215566 
0.00304599 0.0135424 0.0215365 
0.00303101 0.0151966 0.0215165 
0.00301599 0.0168508 0.0214964 
0.00300101 0.018505 0.0214764 
0.00298499 0.0201593 0.0214564 
0.00297 0.0218135 0.0214363 
0.00295499 0.0234677 0.0214163 
0.00294 0.0251219 0.0213962 
0.00292401 0.0267761 0.0213762 
0.002909 0.0284304 0.0213561 
0.00289401 0.0300846 0.0213361 
0.000235992 0.0315479 0.0197699 
0.000221008 0.0332075 0.0197498 
0.000205994 0.0348671 0.0197297 
0.000190002 0.0365267 0.0197096 
0.000174988 0.0381863 0.0196895 
0.000160004 0.0398459 0.0196694 
-0.001617 0.0413997 0.0186182 
-0.001633 0.0430628 0.0185981 
-0.00415701 -0.0391306 0.0157675 
-0.004173 -0.0374585 0.0157472 
-0.00418799 -0.0357864 0.0157269 
-0.00420401 -0.0341143 0.0157067 
-0.002461 -0.032179 0.0167182 
-0.00247601 -0.0305105 0.016698 
-0.002492 -0.0288419 0.0166778 
0.001888 -0.0265423 0.0192373 
0.00187299 -0.0248827 0.0192172 
0.00185699 -0.0232231 0.0191971 
0.00184201 -0.0215635 0.019177 
0.001827 -0.0199039 0.0191568 
0.001811 -0.0182444 0.0191367 
0.00179599 -0.0165848 0.0191166 
0.00178101 -0.0149252 0.0190965 
0.00176599 -0.0132656 0.0190764 
0.00175 -0.011606 0.0190563 
0.00173499 -0.0099464 0.0190362 
0.00172 -0.0082868 0.0190161 
0.00170401 -0.0066273 0.018996 
0.001689 -0.0049677 0.0189758 
0.00167401 -0.0033081 0.0189557 
0.001659 -0.0016485 0.0189356 
0.00164301 1.11008e-05 0.0189155 
0.00162799 0.0016707 0.0188954 
0.00161301 0.0033303 0.0188753 
0.00159698 0.0049899 0.0188552 
0.001582 0.0066494 0.0188351 
0.00156699 0.008309 0.0188149 
0.00155099 0.0099686 0.0187948 
0.00153601 0.0116282 0.0187747 
0.001521 0.0132878 0.0187546 
0.00414401 0.0151919 0.020284 
0.004129 0.0168461 0.0202639 
0.00147501 0.0182665 0.0186943 
0.00145999 0.0199261 0.0186742 
0.001444 0.0215857 0.0186541 
0.00142899 0.0232453 0.0186339 
0.001414 0.0249049 0.0186138 
0.00403699 0.0267715 0.0201436 
0.004022 0.0284257 0.0201236 
0.00400699 0.0300799 0.0201035 
0.001353 0.0315432 0.0185334 
0.00133701 0.0332028 0.0185133 
0.00132199 0.0348624 0.0184932 
0.00130701 0.036522 0.0184731 
-0.000467987 0.0380686 0.0174193 
-0.000483002 0.0397318 0.0173992 
-0.000498993 0.041395 0.017379 
-0.000514008 0.0430581 0.0173589 
-0.00303299 -0.0391353 0.0145216 
-0.003048 -0.0374632 0.0145013 
-0.00306299 -0.0357911 0.0144811 
-0.00307901 -0.034119 0.0144608 
-0.00309399 -0.0324469 0.0144405 
-0.00310999 -0.0307748 0.0144203 
-0.00136899 -0.0288466 0.0154346 
0.00124899 -0.0267994 0.0169662 
0.001233 -0.0251363 0.016946 
0.00121799 -0.0234731 0.0169259 
0.001203 -0.0218099 0.0169057 
0.00294299 -0.0199086 0.0179203 
0.00292801 -0.0182491 0.0179002 
0.00291299 -0.0165895 0.0178801 
0.002897 -0.0149299 0.01786 
0.00288199 -0.0132703 0.0178399 
0.002867 -0.0116107 0.0178197 
0.00285101 -0.0099511 0.0177996 
0.002836 -0.0082915 0.0177795 
0.00282101 -0.0066319 0.0177594 
0.00280499 -0.0049724 0.0177393 
0.00279001 -0.0033128 0.0177192 
0.00277499 -0.0016532 0.0176991 
0.00276001 6.39915e-06 0.017679 
0.00274399 0.001666 0.0176589 
0.002729 0.0033256 0.0176387 
0.00271399 0.0049852 0.0176186 
0.002698 0.0066447 0.0175985 
0.00268301 0.0083043 0.0175784 
0.002668 0.0099639 0.0175583 
0.00265302 0.0116235 0.0175382 
0.00263699 0.0132831 0.0175181 
0.00262201 0.0149427 0.017498 
0.00260699 0.0166023 0.0174778 
0.002591 0.0182619 0.0174577 
0.00257599 0.0199214 0.0174376 
0.002561 0.021581 0.0174175 
0.00254599 0.0232406 0.0173974 
0.00253 0.0249002 0.0173773 
0.00251501 0.0265598 0.0173572 
0.0025 0.0282194 0.0173371 
0.00248401 0.029879 0.017317 
0.00246899 0.0315385 0.0172968 
0.00245401 0.0331981 0.0172767 
0.00243799 0.0348577 0.0172566 
0.000665985 0.0364008 0.0162003 
0.000651001 0.0380639 0.0161801 
0.000635986 0.0397271 0.01616 
0.000619995 0.0413903 0.0161398 
0.000605011 0.0430534 0.0161197 
-0.004522 -0.0412337 0.0117407 
-0.00190799 -0.03914 0.0132757 
-0.001923 -0.0374679 0.0132555 
-0.001939 -0.0357958 0.0132352 
-0.00195401 -0.0341237 0.0132149 
-0.00197 -0.0324516 0.0131947 
-0.00198499 -0.0307795 0.0131744 
-0.002 -0.0291074 0.0131541 
-0.000261993 -0.0271828 0.0141711 
-0.000278015 -0.0255143 0.0141509 
0.00233701 -0.0234778 0.0156866 
0.00232101 -0.0218146 0.0156665 
0.002306 -0.0201515 0.0156463 
0.00229099 -0.0184883 0.0156262 
0.00227499 -0.0168252 0.015606 
0.00226001 -0.015162 0.0155859 
0.002245 -0.0134988 0.0155657 
0.002229 -0.0118357 0.0155456 
0.00221399 -0.0101725 0.0155254 
0.00219901 -0.0085093 0.0155052 
0.00218301 -0.0068462 0.0154851 
0.002168 -0.005183 0.0154649 
0.00215302 -0.0035199 0.0154448 
0.002138 -0.0018567 0.0154246 
0.00212201 -0.000193501 0.0154045 
0.00210699 0.0014696 0.0153843 
0.00209201 0.0031328 0.0153642 
0.00207599 0.004796 0.015344 
0.002061 0.0064591 0.0153239 
0.00204599 0.0081223 0.0153037 
0.00203 0.0097855 0.0152835 
0.00201501 0.0114486 0.0152634 
0.002 0.0131118 0.0152432 
0.00198401 0.0147749 0.0152231 
0.00196899 0.0164381 0.0152029 
0.00195401 0.0181013 0.0151828 
0.00193799 0.0197644 0.0151626 
0.003677 0.0215763 0.016181 
0.00366199 0.0232359 0.0161609 
0.003647 0.0248955 0.0161408 
0.00363101 0.0265551 0.0161206 
0.003616 0.0282147 0.0161005 
0.00360101 0.0298743 0.0160804 
0.00358499 0.0315338 0.0160603 
0.00357001 0.0331934 0.0160402 
0.00179999 0.0347329 0.0149812 
0.001785 0.0363961 0.0149611 
0.00176999 0.0380592 0.0149409 
0.001754 0.0397224 0.0149207 
0.00349399 0.0414914 0.0159396 
0.003478 0.043151 0.0159195 
-0.00339401 -0.0412385 0.0104908 
-0.00078299 -0.0391448 0.0120298 
-0.000798004 -0.0374727 0.0120096 
-0.000813995 -0.0358006 0.0119893 
-0.00082901 -0.0341284 0.0119691 
-0.000845001 -0.0324563 0.0119488 
-0.000859985 -0.0307842 0.0119285 
-0.000876007 -0.0291121 0.0119083 
-0.000890991 -0.02744 0.011888 
0.000845001 -0.025519 0.0129077 
0.00082901 -0.0238505 0.0128875 
0.000813995 -0.022182 0.0128673 
0.000798004 -0.0205134 0.0128471 
0.00078299 -0.0188449 0.0128268 
0.000768005 -0.0171764 0.0128066 
0.000752014 -0.0155079 0.0127864 
0.000737 -0.0138393 0.0127662 
0.000721985 -0.0121708 0.0127459 
0.00333301 -0.0101772 0.0142862 
0.00331799 -0.0085141 0.014266 
0.003302 -0.0068509 0.0142459 
0.00328699 -0.0051877 0.0142257 
0.003272 -0.0035246 0.0142056 
0.00325601 -0.0018614 0.0141854 
0.003241 -0.0001982 0.0141653 
0.00322601 0.0014649 0.0141451 
0.000583008 0.002846 0.012564 
0.000567993 0.0045145 0.0125437 
0.000552002 0.006183 0.0125235 
0.000536987 0.0078515 0.0125033 
0.000522003 0.0095201 0.0124831 
0.000506012 0.0111886 0.0124629 
0.000490997 0.0128571 0.0124426 
0.003103 0.0147702 0.0139839 
0.00308801 0.0164334 0.0139637 
0.00307199 0.0180966 0.0139436 
0.00305701 0.0197597 0.0139234 
0.00304199 0.0214229 0.0139033 
0.003026 0.023086 0.0138831 
0.00301099 0.0247492 0.0138629 
0.002996 0.0264124 0.0138428 
0.00298001 0.0280755 0.0138226 
0.002965 0.0297387 0.0138025 
0.00295001 0.0314019 0.0137823 
0.00293399 0.033065 0.0137622 
0.00291901 0.0347282 0.013742 
0.00290399 0.0363913 0.0137219 
0.002888 0.0380545 0.0137017 
0.00287299 0.0397177 0.0136815 
0.002858 0.0413808 0.0136614 
0.004595 0.0431462 0.014683 
-0.00226501 -0.0412432 0.0092409 
0.00034201 -0.0391495 0.010784 
0.000325989 -0.0374774 0.0107637 
0.000311005 -0.0358053 0.0107435 
0.00029599 -0.0341332 0.0107232 
0.000279999 -0.0324611 0.0107029 
0.000265015 -0.030789 0.0106827 
0.000248993 -0.0291169 0.0106624 
0.000234009 -0.0274448 0.0106421 
0.000217987 -0.0257727 0.0106219 
0.000203003 -0.0241005 0.0106016 
0.000187988 -0.0224284 0.0105814 
0.000171997 -0.0207563 0.0105611 
0.000157013 -0.0190842 0.0105408 
0.00189001 -0.0171811 0.0115634 
0.001875 -0.0155126 0.0115432 
0.00185901 -0.0138441 0.011523 
0.00184399 -0.0121755 0.0115027 
0.00182901 -0.010507 0.0114825 
0.00181299 -0.0088385 0.0114623 
0.001798 -0.0071699 0.0114421 
0.00178201 -0.0055014 0.0114219 
0.001767 -0.0038329 0.0114016 
0.00175201 -0.0021644 0.0113814 
0.00173599 -0.0004958 0.0113612 
0.00172101 0.0011727 0.011341 
0.00170599 0.0028412 0.0113208 
0.00169 0.0045098 0.0113006 
0.00167499 0.0061783 0.0112803 
0.001659 0.0078468 0.0112601 
0.00164401 0.0095153 0.0112399 
0.001629 0.0111839 0.0112197 
0.00161301 0.0128524 0.0111995 
0.00159799 0.0145209 0.0111792 
0.00158301 0.0161895 0.011159 
0.00156699 0.017858 0.0111388 
0.001552 0.0195265 0.0111186 
0.00153601 0.021195 0.0110984 
0.001521 0.0228636 0.0110781 
0.00150601 0.0245321 0.0110579 
0.00148999 0.0262006 0.0110377 
0.00147501 0.0278692 0.0110175 
0.00145999 0.0295377 0.0109973 
0.001444 0.0312062 0.010977 
0.00142899 0.0328747 0.0109568 
0.00141299 0.0345433 0.0109366 
0.00139801 0.0362118 0.0109164 
0.001383 0.0378803 0.0108961 
0.003992 0.039713 0.0124423 
0.00397699 0.0413761 0.0124222 
0.003961 0.0430393 0.012402 
-0.00115201 -0.0395705 0.0079708 
-0.001168 -0.037893 0.0079504 
-0.00118301 -0.0362156 0.0079301 
0.00142001 -0.0341379 0.0094773 
0.001405 -0.0324658 0.0094571 
0.00138901 -0.0307937 0.0094368 
0.00137399 -0.0291216 0.0094165 
0.00135901 -0.0274495 0.0093963 
0.00134299 -0.0257774 0.009376 
0.001328 -0.0241053 0.0093558 
0.00131201 -0.0224332 0.0093355 
0.001297 -0.0207611 0.0093152 
0.00128201 -0.019089 0.009295 
0.00126599 -0.0174169 0.0092747 
0.00125101 -0.0157448 0.0092544 
0.00123499 -0.0140727 0.0092342 
0.00122 -0.0124005 0.0092139 
0.00120499 -0.0107284 0.0091936 
0.001189 -0.0090563 0.0091734 
0.00117401 -0.0073842 0.0091531 
0.002905 -0.0055061 0.0101787 
0.00288901 -0.0038376 0.0101584 
0.00112799 -0.0023679 0.0090923 
0.001112 -0.000695801 0.0090721 
0.00109698 0.000976299 0.0090518 
0.00108099 0.0026484 0.0090315 
0.00106601 0.0043205 0.0090113 
0.00104999 0.0059926 0.008991 
0.001035 0.0076647 0.0089707 
0.00101999 0.0093368 0.0089505 
0.001004 0.0110089 0.0089302 
0.000989014 0.012681 0.00891 
0.000972992 0.0143531 0.0088897 
0.000958008 0.0160252 0.0088694 
0.000942993 0.0176973 0.0088492 
0.000927002 0.0193694 0.0088289 
0.002659 0.0211903 0.0098551 
0.00264301 0.0228588 0.0098349 
0.00262799 0.0245274 0.0098147 
0.00261301 0.0261959 0.0097945 
0.00259698 0.0278644 0.0097743 
0.002582 0.029533 0.009754 
0.00256699 0.0312015 0.0097338 
0.00255099 0.03287 0.0097136 
0.00253601 0.0345385 0.0096934 
0.00251999 0.0362071 0.0096732 
0.002505 0.0378756 0.0096529 
0.00248999 0.0395441 0.0096327 
0.002474 0.0412127 0.0096125 
0.00507999 0.0430346 0.0111628 
0.002444 0.0445497 0.0095721 
-0.001767 -0.0398528 0.0056733 
-3.90015e-05 -0.0378978 0.0067006 
-5.49927e-05 -0.0362203 0.0066802 
-7.00073e-05 -0.0345429 0.0066599 
-8.59985e-05 -0.0328654 0.0066396 
-0.000101013 -0.0311879 0.0066193 
-0.000117004 -0.0295104 0.0065989 
-0.000131989 -0.027833 0.0065786 
-0.000147003 -0.0261555 0.0065583 
0.002453 -0.02411 0.0081099 
0.00243701 -0.0224379 0.0080896 
0.002422 -0.0207658 0.0080694 
0.00240601 -0.0190937 0.0080491 
0.00239099 -0.0174216 0.0080288 
0.00237601 -0.0157495 0.0080086 
0.00235999 -0.0140774 0.0079883 
0.002345 -0.0124053 0.007968 
0.00232901 -0.0107332 0.0079478 
0.002314 -0.0090611 0.0079275 
0.00229901 -0.007389 0.0079072 
0.00228299 -0.0057169 0.007887 
0.00226801 -0.0040448 0.0078667 
0.00225201 -0.0023727 0.0078465 
-0.000378998 -0.000993401 0.0062533 
-0.000394989 0.000684 0.006233 
-0.000410004 0.0023615 0.0062127 
-0.000425995 0.004039 0.0061924 
-0.00044101 0.0057164 0.006172 
-0.000457001 0.0073939 0.0061517 
-0.000471985 0.0090714 0.0061314 
-0.000488007 0.0107488 0.006111 
-0.000502991 0.0124263 0.0060907 
0.00209799 0.0143484 0.0076438 
0.00208301 0.0160205 0.0076236 
0.00206699 0.0176926 0.0076033 
0.002052 0.0193647 0.007583 
0.00203699 0.0210368 0.0075628 
0.002021 0.0227089 0.0075425 
0.00200601 0.024381 0.0075222 
0.00198999 0.0260531 0.007502 
0.00197501 0.0277252 0.0074817 
0.00195999 0.0293973 0.0074614 
0.001944 0.0310695 0.0074412 
0.00192899 0.0327416 0.0074209 
0.00191299 0.0344137 0.0074007 
0.00189801 0.0360858 0.0073804 
0.001883 0.0377579 0.0073601 
0.001867 0.03943 0.0073399 
0.00185199 0.0411021 0.0073196 
0.00358099 0.0428765 0.0083491 
0.00182101 0.0444463 0.0072791 
-0.000635986 -0.0398576 0.0044208 
-0.000652008 -0.0381765 0.0044004 
0.00107401 -0.0362251 0.0054304 
0.00105801 -0.0345476 0.00541 
0.001043 -0.0328701 0.0053897 
0.00102701 -0.0311927 0.0053694 
0.00101199 -0.0295152 0.0053491 
0.000996002 -0.0278377 0.0053287 
0.000980988 -0.0261602 0.0053084 
0.000966003 -0.0244828 0.0052881 
0.000950012 -0.0228053 0.0052677 
0.000934998 -0.0211278 0.0052474 
0.000919006 -0.0194504 0.0052271 
0.000903992 -0.0177729 0.0052068 
0.000888 -0.0160954 0.0051864 
0.000872986 -0.014418 0.0051661 
0.000856995 -0.0127405 0.0051458 
0.00084201 -0.011063 0.0051254 
0.000825989 -0.0093856 0.0051051 
0.000811005 -0.0077081 0.0050848 
0.000795013 -0.0060306 0.0050645 
0.000779999 -0.0043531 0.0050441 
0.000765015 -0.0026757 0.0050238 
0.000748993 -0.000998199 0.0050035 
0.000734009 0.0006793 0.0049831 
0.000717987 0.0023567 0.0049628 
0.000703003 0.0040342 0.0049425 
0.000687012 0.0057117 0.0049222 
0.000671997 0.0073891 0.0049018 
0.000656006 0.0090666 0.0048815 
0.000640991 0.0107441 0.0048612 
0.000625 0.0124216 0.0048408 
0.000609985 0.014099 0.0048205 
0.000595001 0.0157765 0.0048002 
0.00319199 0.0176879 0.0063574 
0.003177 0.01936 0.0063372 
0.00316101 0.0210321 0.0063169 
0.003146 0.0227042 0.0062966 
0.00313101 0.0243763 0.0062764 
0.00311499 0.0260484 0.0062561 
0.00310001 0.0277205 0.0062358 
0.00308401 0.0293926 0.0062156 
0.003069 0.0310647 0.0061953 
0.00305399 0.0327368 0.0061751 
0.00303799 0.0344089 0.0061548 
0.00302301 0.036081 0.0061345 
0.00300699 0.0377531 0.0061143 
0.002992 0.0394252 0.006094 
0.00297699 0.0410974 0.0060737 
0.002961 0.0427695 0.0060535 
0.00294601 0.0444416 0.0060332 
-0.00470599 -0.0423868 2.99988e-05 
-0.00211301 -0.0402787 0.0015889 
0.000479004 -0.0381813 0.0031478 
0.000463013 -0.0365002 0.0031275 
0.000447998 -0.0348192 0.0031071 
0.00217099 -0.0328749 0.0041398 
0.00215601 -0.0311974 0.0041195 
0.00214001 -0.0295199 0.0040992 
0.002125 -0.0278425 0.0040789 
0.00210901 -0.026165 0.0040585 
0.00209399 -0.0244875 0.0040382 
0.002078 -0.0228101 0.0040179 
0.00206299 -0.0211326 0.0039975 
0.002048 -0.0194551 0.0039772 
0.00203201 -0.0177776 0.0039569 
0.002017 -0.0161002 0.0039366 
0.00200101 -0.0144227 0.0039162 
0.00198599 -0.0127452 0.0038959 
0.00197 -0.0110678 0.0038756 
0.00195499 -0.0093903 0.0038552 
0.001939 -0.0077128 0.0038349 
0.00192401 -0.0060354 0.0038146 
0.00190799 -0.0043579 0.0037943 
0.00189301 -0.0026804 0.0037739 
0.00187799 -0.0010029 0.0037536 
0.000122986 0.0004828 0.0026793 
0.000106995 0.0021639 0.0026589 
9.20105e-05 0.0038449 0.0026386 
7.59888e-05 0.0055259 0.0026182 
0.00179999 0.0073844 0.003652 
0.001785 0.0090619 0.0036316 
0.00176901 0.0107393 0.0036113 
0.001754 0.0124168 0.003591 
0.00173801 0.0140943 0.0035706 
0.00172299 0.0157718 0.0035503 
0.001707 0.0174492 0.00353 
0.004302 0.0193552 0.0050913 
0.00428601 0.0210274 0.005071 
0.004271 0.0226995 0.0050508 
0.004255 0.0243716 0.0050305 
0.00423999 0.0260437 0.0050102 
0.00422501 0.0277158 0.00499 
0.00420901 0.0293879 0.0049697 
0.004194 0.03106 0.0049494 
0.00417801 0.0327321 0.0049292 
0.00416299 0.0344042 0.0049089 
0.00153699 0.0359014 0.0033064 
0.001522 0.0375789 0.0032861 
0.00150699 0.0392563 0.0032657 
0.001491 0.0409338 0.0032454 
0.004086 0.0427647 0.0048076 
0.00145999 0.0442887 0.0032047 
-0.00528799 -0.0443681 -0.0022656 
-0.00356799 -0.0423916 -0.0012305 
-0.000979004 -0.0402834 0.000332298 
-0.000994995 -0.038597 0.000311901 
0.00159399 -0.036505 0.0018749 
0.00157901 -0.0348239 0.0018546 
0.00156299 -0.0331429 0.0018342 
0.001548 -0.0314618 0.0018138 
0.00153201 -0.0297808 0.0017935 
0.001517 -0.0280998 0.0017731 
0.00150101 -0.0264187 0.0017527 
0.00148599 -0.0247377 0.0017323 
0.00147 -0.0230566 0.001712 
0.00145499 -0.0213756 0.0016916 
0.001439 -0.0196945 0.0016712 
0.00142401 -0.0180135 0.0016509 
0.00140799 -0.0163324 0.0016305 
0.00139301 -0.0146514 0.0016101 
0.00137701 -0.0129703 0.0015897 
0.001362 -0.0112893 0.0015694 
0.00134601 -0.0096082 0.001549 
0.00133099 -0.0079272 0.0015286 
0.001315 -0.0062461 0.0015083 
0.00129999 -0.0045651 0.0014879 
0.001284 -0.0028841 0.0014675 
0.00126901 -0.001203 0.0014471 
0.00125299 0.000478001 0.0014268 
0.00123801 0.0021591 0.0014064 
0.00122198 0.0038401 0.001386 
0.001207 0.0055212 0.0013657 
0.00119101 0.0072022 0.0013453 
0.00117599 0.0088833 0.0013249 
0.00116 0.0105643 0.0013045 
0.00114499 0.0122454 0.0012842 
0.00113 0.0139264 0.0012638 
0.00285101 0.015767 0.0023005 
0.002836 0.0174445 0.0022801 
0.00282001 0.0191219 0.0022598 
0.00280499 0.0207994 0.0022395 
0.005396 0.0226947 0.0038049 
0.00538 0.0243668 0.0037846 
0.002759 0.0258318 0.0021785 
0.00274301 0.0275093 0.0021582 
0.002728 0.0291868 0.0021378 
0.00271201 0.0308642 0.0021175 
0.00269699 0.0325417 0.0020972 
0.002681 0.0342192 0.0020768 
0.00266599 0.0358966 0.0020565 
0.00264999 0.0375741 0.0020362 
0.00263501 0.0392516 0.0020159 
0.00261899 0.040929 0.0019955 
0.002604 0.0426065 0.0019752 
0.000851013 0.0441853 0.000897099 
-0.00242999 -0.0423963 -0.0024911 
-0.00244501 -0.0407046 -0.0025116 
0.000140015 -0.0386018 -0.000944599 
0.000123993 -0.0369154 -0.000965099 
0.000109009 -0.035229 -0.0009855 
0.002694 -0.0331477 0.000581699 
0.00267899 -0.0314666 0.000561298 
0.00266299 -0.0297855 0.000540901 
0.00264801 -0.0281045 0.000520599 
0.00263199 -0.0264235 0.000500198 
0.002617 -0.0247424 0.000479801 
0 -0.0234241 -0.0011285 
-1.59912e-05 -0.0217377 -0.001149 
0.00257001 -0.0196993 0.000418701 
0.00255499 -0.0180182 0.0003983 
0.002539 -0.0163372 0.000377998 
0.00252399 -0.0146561 0.000357601 
0.002508 -0.0129751 0.0003372 
0.00249301 -0.011294 0.000316799 
0.00247699 -0.009613 0.000296501 
0.00246201 -0.0079319 0.0002761 
0.00244601 -0.0062509 0.000255699 
0.002431 -0.0045699 0.000235401 
0.00241501 -0.0028888 0.000215 
0.00239999 -0.0012078 0.000194599 
0.002384 0.000473301 0.000174198 
0.00236899 0.0021543 0.0001539 
0.002353 0.0038354 0.000133499 
0.00233801 0.0055164 0.000113098 
0.00232199 0.0071975 9.28001e-05 
0.00230701 0.0088785 7.23991e-05 
0.00229099 0.0105596 5.19981e-05 
0.002276 0.0122406 3.1601e-05 
0.00226001 0.0139217 1.12991e-05 
0.002245 0.0156027 -9.10187e-06 
0.002229 0.0172838 -2.94991e-05 
0.00394901 0.0191172 0.0010099 
0.00393301 0.0207947 0.000989601 
0.003918 0.0224721 0.000969299 
0.00390201 0.0241496 0.000948898 
0.00388699 0.0258271 0.0009286 
0.00387201 0.0275045 0.000908298 
0.00385599 0.029182 0.000888 
0.003841 0.0308595 0.000867599 
0.00382501 0.032537 0.000847301 
0.00381 0.0342144 0.000827 
0.00379401 0.0358919 0.000806599 
0.00377899 0.0375694 0.000786301 
0.003763 0.0392468 0.000765999 
0.00374799 0.0409243 0.000745701 
0.00199701 0.0424995 -0.000335098 
0.001259 -0.0369201 -0.0022216 
0.00124301 -0.0352337 -0.002242 
0.001228 -0.0335473 -0.0022625 
0.00121201 -0.0318609 -0.0022829 
0.00119699 -0.0301745 -0.0023033 
0.001181 -0.0284881 -0.0023238 
0.00116501 -0.0268017 -0.0023442 
0.00114999 -0.0251153 -0.0023647 
0.001134 -0.0234289 -0.0023851 
0.00111899 -0.0217424 -0.0024055 
0.001103 -0.020056 -0.002426 
0.00108801 -0.0183696 -0.0024464 
0.00107199 -0.0166832 -0.0024668 
0.00105701 -0.0149968 -0.0024873 
0.00104099 -0.0133104 -0.0025077 
0.001026 -0.011624 -0.0025281 
0.00101001 -0.0099376 -0.0025486 
0.00335999 0.017279 -0.001282 
0.003345 0.01896 -0.0013024 
0.00332901 0.0206411 -0.0013228 
0.003314 0.0223221 -0.0013431 
0.003298 0.0240032 -0.0013635 
0.00501501 0.0258223 -0.000321201 
0.005 0.0274998 -0.000341599 
0.00498401 0.0291773 -0.0003619 
0.00323599 0.0307274 -0.001445 
0.00322101 0.0324084 -0.0014654 
0.00320499 0.0340895 -0.0014857 
0.00319 0.0357705 -0.0015061 
0.00317401 0.0374516 -0.0015265 
0.003159 0.0391326 -0.0015468 
0.00314301 0.0408136 -0.0015672 
