ply
format ascii 1.0
comment Created by CloudCompare v2.10.1 (Zephyrus)
comment Created 14/03/2019 13:12
obj_info Generated by CloudCompare!
element vertex 499
property float x
property float y
property float z
element face 994
property list uchar int vertex_indices
end_header
0.00739417 0.0349986 0.0644 
0.018 0.023655 0.0644 
0.00798937 0.0354095 0.0644 
0.00846895 0.0359508 0.0644 
0.00880505 0.0365912 0.0644 
0.00897813 0.0372934 0.0644 
0.0112276 0.046 0.0644 
0.0110075 0.045363 0.0644 
0.018 0.046 0.0644 
0.00671795 0.0347422 0.0644 
0.0106508 0.0447913 0.0644 
-1.34115e-17 0.046 0.0644 
0.00302187 0.0380166 0.0644 
0.00319495 0.0387188 0.0644 
0.0083 0.043655 0.0644 
0.00798937 0.0399005 0.0644 
0.00896966 0.0437307 0.0644 
0.00960552 0.043954 0.0644 
-1.83731e-17 0.023655 0.0644 
0.006 0.034655 0.0644 
0.00319495 0.0365912 0.0644 
0.00353105 0.0359508 0.0644 
0.00401063 0.0354095 0.0644 
0.00460583 0.0349986 0.0644 
0.00528205 0.0347422 0.0644 
0.00846895 0.0393592 0.0644 
0.0101755 0.0443135 0.0644 
0.00302187 0.0372934 0.0644 
0.00763034 0.0437307 0.0644 
0.00739417 0.0403114 0.0644 
0.00880505 0.0387188 0.0644 
0.00699448 0.043954 0.0644 
0.00671795 0.0405678 0.0644 
0.00897813 0.0380166 0.0644 
0.0064245 0.0443135 0.0644 
0.006 0.040655 0.0644 
0.00537238 0.046 0.0644 
0.00559245 0.045363 0.0644 
0.00594916 0.0447913 0.0644 
0.00528205 0.0405678 0.0644 
0.00460583 0.0403114 0.0644 
0.00401063 0.0399005 0.0644 
0.00353105 0.0393592 0.0644 
5.9841e-18 0.09203 0.02308 
9.21707e-18 0.09203 0.00852 
8.85958e-18 0.0862 0.0043 
3.9968e-18 0.064 0.004 
9.74776e-18 0.0862 0.0003 
4.81837e-18 0.064 0.0003 
1.81299e-18 0.080185 0.03002 
3.97349e-18 0.089915 0.03002 
-4.89719e-18 0.068345 0.0484 
-2.7367e-18 0.078075 0.0484 
-6.29496e-19 0.080185 0.04102 
0 0.046 0.004 
-8.10463e-18 0.0058 0.0003 
-3.9968e-18 0.028 0.004 
-3.17524e-18 0.028 0.0003 
-8.99281e-18 0.0058 0.0043 
-1.33682e-17 0.011815 0.03002 
-8.44991e-18 0.068345 0.0644 
-1.44573e-17 -2.99988e-05 0.02308 
-1.12244e-17 -2.99988e-05 0.00852 
-1.48204e-17 0.023655 0.0484 
-1.55287e-17 0.002085 0.03002 
-1.58107e-17 0.011815 0.04102 
-1.69809e-17 0.013925 0.0484 
0.018 0.023655 0.0484 
0.018 0.09203 0.00852 
0.018 0.09203 0.02308 
0.018 0.0862 0.0043 
0.018 0.064 0.004 
0.018 0.0862 0.0003 
0.018 0.064 0.0003 
0.018 0.089915 0.03002 
0.018 0.080185 0.03002 
0.018 0.078075 0.0484 
0.018 0.068345 0.0484 
0.018 0.080185 0.04102 
0.018 0.046 0.004 
0.018 0.028 0.004 
0.018 0.0058 0.0003 
0.018 0.028 0.0003 
0.018 0.0058 0.0043 
0.018 0.011815 0.03002 
0.018 0.068345 0.0644 
0.018 -2.99988e-05 0.02308 
0.018 -2.99988e-05 0.00852 
0.018 0.002085 0.03002 
0.018 0.011815 0.04102 
0.018 0.013925 0.0484 
0.00353105 0.0536408 0.0644 
0.00401063 0.0530995 0.0644 
0.00897813 0.0557066 0.0644 
0.0112995 0.046711 0.0644 
0.00880505 0.0564088 0.0644 
0.00846895 0.0570492 0.0644 
0.00798937 0.0575905 0.0644 
0.0112011 0.0474189 0.0644 
0.00739417 0.0580014 0.0644 
0.0109381 0.0480834 0.0644 
0.00319495 0.0542812 0.0644 
0.0105254 0.0486669 0.0644 
0.00671795 0.0582578 0.0644 
0.00302187 0.0549834 0.0644 
0.006 0.058345 0.0644 
0.00528205 0.0582578 0.0644 
0.00798937 0.0530995 0.0644 
0.00865733 0.0496336 0.0644 
0.00935171 0.0494646 0.0644 
0.00460583 0.0580014 0.0644 
0.00401063 0.0575905 0.0644 
0.00353105 0.0570492 0.0644 
0.00319495 0.0564088 0.0644 
0.00302187 0.0557066 0.0644 
0.00846895 0.0536408 0.0644 
0.00998641 0.0491361 0.0644 
0.00739417 0.0526886 0.0644 
0.00794267 0.0496336 0.0644 
0.00880505 0.0542812 0.0644 
0.00671795 0.0524322 0.0644 
0.00724829 0.0494646 0.0644 
0.00539889 0.0474189 0.0644 
0.00566188 0.0480834 0.0644 
0.00530052 0.046711 0.0644 
0.00897813 0.0549834 0.0644 
0.006 0.052345 0.0644 
0.00661359 0.0491361 0.0644 
0.00528205 0.0524322 0.0644 
0.00607459 0.0486669 0.0644 
0.00460583 0.0526886 0.0644 
0.00549495 0.0477188 0.0594 
0.00532187 0.0470166 0.0594 
0.00532187 0.0462934 0.0594 
0.00549495 0.0455912 0.0594 
0.0083 0.043655 0.0594 
0.00901795 0.0437422 0.0594 
0.00583105 0.0449508 0.0594 
0.00969417 0.0439986 0.0594 
0.00631063 0.0444095 0.0594 
0.0102894 0.0444095 0.0594 
0.00690583 0.0439986 0.0594 
0.010769 0.0449508 0.0594 
0.00758205 0.0437422 0.0594 
0.011105 0.0455912 0.0594 
0.0112781 0.0462934 0.0594 
0.0112781 0.0470166 0.0594 
0.011105 0.0477188 0.0594 
0.010769 0.0483592 0.0594 
0.0102894 0.0489005 0.0594 
0.00969417 0.0493114 0.0594 
0.00901795 0.0495678 0.0594 
0.0083 0.049655 0.0594 
0.00758205 0.0495678 0.0594 
0.00690583 0.0493114 0.0594 
0.00631063 0.0489005 0.0594 
0.00583105 0.0483592 0.0594 
0.00353105 0.0393592 0.0594 
0.00319495 0.0387188 0.0594 
0.00302187 0.0380166 0.0594 
0.006 0.034655 0.0594 
0.00671795 0.0347422 0.0594 
0.00302187 0.0372934 0.0594 
0.00739417 0.0349986 0.0594 
0.00319495 0.0365912 0.0594 
0.00798937 0.0354095 0.0594 
0.00353105 0.0359508 0.0594 
0.00846895 0.0359508 0.0594 
0.00401063 0.0354095 0.0594 
0.00880505 0.0365912 0.0594 
0.00460583 0.0349986 0.0594 
0.00528205 0.0347422 0.0594 
0.00897813 0.0372934 0.0594 
0.00897813 0.0380166 0.0594 
0.00880505 0.0387188 0.0594 
0.00846895 0.0393592 0.0594 
0.00798937 0.0399005 0.0594 
0.00739417 0.0403114 0.0594 
0.00671795 0.0405678 0.0594 
0.006 0.040655 0.0594 
0.00528205 0.0405678 0.0594 
0.00460583 0.0403114 0.0594 
0.00401063 0.0399005 0.0594 
0.00088254 0.0741902 0.0484 
0.00128219 0.0746413 0.0484 
0.00177819 0.0749836 0.0484 
0.00234171 0.0751974 0.0484 
0.00294 0.07527 0.0484 
0.01494 0.07527 0.0484 
0.000458228 0.0724687 0.0484 
0.000458228 0.0730713 0.0484 
0.0169975 0.0713498 0.0484 
0.0165978 0.0708987 0.0484 
0.0161018 0.0705564 0.0484 
0.0172775 0.0718835 0.0484 
0.0155383 0.0703426 0.0484 
0.0174218 0.0724687 0.0484 
0.01494 0.07027 0.0484 
0.0174218 0.0730713 0.0484 
0.0155383 0.0751974 0.0484 
0.0161018 0.0749836 0.0484 
0.0165978 0.0746413 0.0484 
0.0169975 0.0741902 0.0484 
0.0172775 0.0736565 0.0484 
0.00294 0.07027 0.0484 
0.00234171 0.0703426 0.0484 
0.00177819 0.0705564 0.0484 
0.00128219 0.0708987 0.0484 
0.00088254 0.0713498 0.0484 
0.000602459 0.0718835 0.0484 
0.000602459 0.0736565 0.0484 
0.016 0.080185 0.0345 
0.016 0.080185 0.0405 
0.002 0.080185 0.0345 
0.002 0.080185 0.0405 
0.0170775 0.0839398 0.03002 
0.0166778 0.0834887 0.03002 
0.0161818 0.0831464 0.03002 
0.0173575 0.0844735 0.03002 
0.0156183 0.0829327 0.03002 
0.0175018 0.0850587 0.03002 
0.01502 0.08286 0.03002 
0.0161818 0.0875736 0.03002 
0.0166778 0.0872313 0.03002 
0.0170775 0.0867802 0.03002 
0.0173575 0.0862465 0.03002 
0.0175018 0.0856614 0.03002 
0.0156183 0.0877874 0.03002 
0.01502 0.08786 0.03002 
0.00302 0.08286 0.03002 
0.00242171 0.0829327 0.03002 
0.00185819 0.0831464 0.03002 
0.00136219 0.0834887 0.03002 
0.00096254 0.0839398 0.03002 
0.000682459 0.0844735 0.03002 
0.000538228 0.0850587 0.03002 
0.00302 0.08786 0.03002 
0.000538228 0.0856614 0.03002 
0.000682459 0.0862465 0.03002 
0.00096254 0.0867802 0.03002 
0.00136219 0.0872313 0.03002 
0.00185819 0.0875736 0.03002 
0.00242171 0.0877874 0.03002 
0.0161 0.09203 0.0165 
0.0161 0.09203 0.0225 
0.0021 0.09203 0.0165 
0.0021 0.09203 0.0225 
0.017 0.0862 0.0012 
0.017 0.0862 0.004 
0.015 0.0862 0.0003 
0.015 0.0862 0.0012 
0.001 0.0862 0.0012 
0.003 0.0862 0.0012 
0.003 0.0862 0.0003 
0.001 0.0862 0.004 
0.003 0.064 0.0003 
0.001 0.064 0.0012 
0.003 0.064 0.0012 
0.001 0.064 0.004 
0.001 0.046 0.004 
0.001 0.028 0.004 
0.003 0.028 0.0003 
0.001 0.028 0.0012 
0.003 0.028 0.0012 
0.003 0.0058 0.0003 
0.017 0.0058 0.0012 
0.017 0.0058 0.004 
0.015 0.0058 0.0012 
0.015 0.0058 0.0003 
0.003 0.0058 0.0012 
0.001 0.0058 0.0012 
0.001 0.0058 0.004 
0.0161 -2.99988e-05 0.0225 
0.0161 -2.99988e-05 0.0165 
0.0021 -2.99988e-05 0.0165 
0.0021 -2.99988e-05 0.0225 
0.0166778 0.00851128 0.03002 
0.0170775 0.00806016 0.03002 
0.0161818 0.00885364 0.03002 
0.0173575 0.00752651 0.03002 
0.0156183 0.00906736 0.03002 
0.0175018 0.00694134 0.03002 
0.01502 0.00914 0.03002 
0.0161818 0.00442636 0.03002 
0.0166778 0.00476872 0.03002 
0.0170775 0.00521984 0.03002 
0.0173575 0.00575349 0.03002 
0.0175018 0.00633866 0.03002 
0.0156183 0.00421265 0.03002 
0.01502 0.00414 0.03002 
0.00302 0.00914 0.03002 
0.00242171 0.00906736 0.03002 
0.00185819 0.00885364 0.03002 
0.00136219 0.00851128 0.03002 
0.00096254 0.00806016 0.03002 
0.000682459 0.00752651 0.03002 
0.000538228 0.00694134 0.03002 
0.00302 0.00414 0.03002 
0.000538228 0.00633866 0.03002 
0.000682459 0.00575349 0.03002 
0.00096254 0.00521984 0.03002 
0.00136219 0.00476872 0.03002 
0.00185819 0.00442636 0.03002 
0.00242171 0.00421265 0.03002 
0.016 0.011815 0.0405 
0.016 0.011815 0.0345 
0.002 0.011815 0.0345 
0.002 0.011815 0.0405 
0.000458228 0.0189287 0.0484 
0.000602459 0.0183435 0.0484 
0.00088254 0.0178098 0.0484 
0.00128219 0.0173587 0.0484 
0.00177819 0.0170164 0.0484 
0.00234171 0.0168026 0.0484 
0.00294 0.01673 0.0484 
0.01494 0.01673 0.0484 
0.000458228 0.0195313 0.0484 
0.0165978 0.0211013 0.0484 
0.0169975 0.0206502 0.0484 
0.0161018 0.0214436 0.0484 
0.0172775 0.0201165 0.0484 
0.0155383 0.0216574 0.0484 
0.0174218 0.0195313 0.0484 
0.01494 0.02173 0.0484 
0.0174218 0.0189287 0.0484 
0.0155383 0.0168026 0.0484 
0.0161018 0.0170164 0.0484 
0.0165978 0.0173587 0.0484 
0.0169975 0.0178098 0.0484 
0.0172775 0.0183435 0.0484 
0.00294 0.02173 0.0484 
0.00234171 0.0216574 0.0484 
0.00177819 0.0214436 0.0484 
0.00128219 0.0211013 0.0484 
0.00088254 0.0206502 0.0484 
0.000602459 0.0201165 0.0484 
0.015 0.064 0.0003 
0.017 0.064 0.0012 
0.015 0.064 0.0012 
0.017 0.064 0.004 
0.017 0.046 0.004 
0.017 0.028 0.004 
0.015 0.028 0.0003 
0.017 0.028 0.0012 
0.015 0.028 0.0012 
0.00353105 0.0570492 0.0594 
0.00319495 0.0564088 0.0594 
0.00302187 0.0557066 0.0594 
0.006 0.052345 0.0594 
0.00671795 0.0524322 0.0594 
0.00302187 0.0549834 0.0594 
0.00739417 0.0526886 0.0594 
0.00319495 0.0542812 0.0594 
0.00798937 0.0530995 0.0594 
0.00353105 0.0536408 0.0594 
0.00846895 0.0536408 0.0594 
0.00401063 0.0530995 0.0594 
0.00880505 0.0542812 0.0594 
0.00460583 0.0526886 0.0594 
0.00528205 0.0524322 0.0594 
0.00897813 0.0549834 0.0594 
0.00897813 0.0557066 0.0594 
0.00880505 0.0564088 0.0594 
0.00846895 0.0570492 0.0594 
0.00798937 0.0575905 0.0594 
0.00739417 0.0580014 0.0594 
0.00671795 0.0582578 0.0594 
0.006 0.058345 0.0594 
0.00528205 0.0582578 0.0594 
0.00460583 0.0580014 0.0594 
0.00401063 0.0575905 0.0594 
0.00294 0.07027 0.0434 
0.01494 0.07027 0.0434 
0.01494 0.07527 0.0434 
0.0155383 0.0751974 0.0434 
0.0161018 0.0749836 0.0434 
0.0165978 0.0746413 0.0434 
0.0169975 0.0741902 0.0434 
0.0172775 0.0736565 0.0434 
0.0174218 0.0730713 0.0434 
0.0174218 0.0724687 0.0434 
0.0172775 0.0718835 0.0434 
0.0169975 0.0713498 0.0434 
0.0165978 0.0708987 0.0434 
0.0161018 0.0705564 0.0434 
0.0155383 0.0703426 0.0434 
0.00294 0.07527 0.0434 
0.00234171 0.0703426 0.0434 
0.00177819 0.0705564 0.0434 
0.00128219 0.0708987 0.0434 
0.00088254 0.0713498 0.0434 
0.000602459 0.0718835 0.0434 
0.000458228 0.0724687 0.0434 
0.000458228 0.0730713 0.0434 
0.000602459 0.0736565 0.0434 
0.00088254 0.0741902 0.0434 
0.00128219 0.0746413 0.0434 
0.00177819 0.0749836 0.0434 
0.00234171 0.0751974 0.0434 
0.002 0.075185 0.0345 
0.016 0.075185 0.0345 
0.002 0.075185 0.0405 
0.016 0.075185 0.0405 
0.01502 0.08786 0.02502 
0.00302 0.08786 0.02502 
0.00302 0.08286 0.02502 
0.00242171 0.0829327 0.02502 
0.00185819 0.0831464 0.02502 
0.00136219 0.0834887 0.02502 
0.00096254 0.0839398 0.02502 
0.000682459 0.0844735 0.02502 
0.000538228 0.0850587 0.02502 
0.000538228 0.0856614 0.02502 
0.000682459 0.0862465 0.02502 
0.00096254 0.0867802 0.02502 
0.00136219 0.0872313 0.02502 
0.00185819 0.0875736 0.02502 
0.00242171 0.0877874 0.02502 
0.01502 0.08286 0.02502 
0.0156183 0.0877874 0.02502 
0.0161818 0.0875736 0.02502 
0.0166778 0.0872313 0.02502 
0.0170775 0.0867802 0.02502 
0.0173575 0.0862465 0.02502 
0.0175018 0.0856614 0.02502 
0.0175018 0.0850587 0.02502 
0.0173575 0.0844735 0.02502 
0.0170775 0.0839398 0.02502 
0.0166778 0.0834887 0.02502 
0.0161818 0.0831464 0.02502 
0.0156183 0.0829327 0.02502 
0.0021 0.08703 0.0165 
0.0161 0.08703 0.0165 
0.0021 0.08703 0.0225 
0.0161 0.08703 0.0225 
0.0161 0.00497 0.0165 
0.0021 0.00497 0.0165 
0.0021 0.00497 0.0225 
0.0161 0.00497 0.0225 
0.01502 0.00414 0.02502 
0.00302 0.00414 0.02502 
0.00302 0.00914 0.02502 
0.00242171 0.00906736 0.02502 
0.00185819 0.00885364 0.02502 
0.00136219 0.00851128 0.02502 
0.00096254 0.00806016 0.02502 
0.000682459 0.00752651 0.02502 
0.000538228 0.00694134 0.02502 
0.000538228 0.00633866 0.02502 
0.000682459 0.00575349 0.02502 
0.00096254 0.00521984 0.02502 
0.00136219 0.00476872 0.02502 
0.00185819 0.00442636 0.02502 
0.00242171 0.00421265 0.02502 
0.01502 0.00914 0.02502 
0.0156183 0.00421265 0.02502 
0.0161818 0.00442636 0.02502 
0.0166778 0.00476872 0.02502 
0.0170775 0.00521984 0.02502 
0.0173575 0.00575349 0.02502 
0.0175018 0.00633866 0.02502 
0.0175018 0.00694134 0.02502 
0.0173575 0.00752651 0.02502 
0.0170775 0.00806016 0.02502 
0.0166778 0.00851128 0.02502 
0.0161818 0.00885364 0.02502 
0.0156183 0.00906736 0.02502 
0.016 0.016815 0.0345 
0.002 0.016815 0.0345 
0.002 0.016815 0.0405 
0.016 0.016815 0.0405 
0.00294 0.02173 0.0434 
0.01494 0.02173 0.0434 
0.01494 0.01673 0.0434 
0.0155383 0.0168026 0.0434 
0.0161018 0.0170164 0.0434 
0.0165978 0.0173587 0.0434 
0.0169975 0.0178098 0.0434 
0.0172775 0.0183435 0.0434 
0.0174218 0.0189287 0.0434 
0.0174218 0.0195313 0.0434 
0.0172775 0.0201165 0.0434 
0.0169975 0.0206502 0.0434 
0.0165978 0.0211013 0.0434 
0.0161018 0.0214436 0.0434 
0.0155383 0.0216574 0.0434 
0.00294 0.01673 0.0434 
0.00234171 0.0216574 0.0434 
0.00177819 0.0214436 0.0434 
0.00128219 0.0211013 0.0434 
0.00088254 0.0206502 0.0434 
0.000602459 0.0201165 0.0434 
0.000458228 0.0195313 0.0434 
0.000458228 0.0189287 0.0434 
0.000602459 0.0183435 0.0434 
0.00088254 0.0178098 0.0434 
0.00128219 0.0173587 0.0434 
0.00177819 0.0170164 0.0434 
0.00234171 0.0168026 0.0434 
3 0 1 2 
3 2 1 3 
3 3 1 4 
3 4 1 5 
3 6 7 8 
3 5 1 8 
3 0 9 1 
3 7 10 8 
3 11 12 13 
3 14 15 16 
3 16 15 17 
3 9 18 1 
3 19 18 9 
3 20 18 21 
3 21 18 22 
3 22 18 23 
3 23 18 24 
3 24 18 19 
3 17 25 26 
3 11 18 27 
3 11 27 12 
3 27 18 20 
3 15 25 17 
3 28 29 14 
3 14 29 15 
3 26 30 10 
3 10 30 8 
3 25 30 26 
3 31 32 28 
3 28 32 29 
3 30 33 8 
3 34 35 31 
3 31 35 32 
3 33 5 8 
3 36 11 37 
3 38 39 34 
3 34 39 35 
3 37 40 38 
3 11 40 37 
3 38 40 39 
3 11 41 40 
3 11 42 41 
3 11 13 42 
3 43 44 45 
3 46 45 47 
3 46 47 48 
3 49 50 43 
3 49 43 45 
3 49 45 46 
3 51 52 53 
3 51 53 49 
3 51 46 54 
3 51 49 46 
3 55 56 57 
3 58 56 55 
3 59 56 58 
3 11 60 51 
3 61 58 62 
3 61 59 58 
3 63 54 56 
3 63 51 54 
3 63 11 51 
3 63 56 59 
3 64 59 61 
3 65 63 59 
3 66 63 65 
3 18 11 63 
3 18 63 1 
3 1 63 67 
3 68 69 70 
3 70 71 72 
3 72 71 73 
3 74 75 69 
3 69 75 70 
3 70 75 71 
3 76 77 78 
3 78 77 75 
3 71 77 79 
3 75 77 71 
3 80 81 82 
3 80 83 81 
3 80 84 83 
3 85 8 77 
3 83 86 87 
3 84 86 83 
3 79 67 80 
3 77 67 79 
3 8 67 77 
3 80 67 84 
3 84 88 86 
3 67 89 84 
3 67 90 89 
3 8 1 67 
3 91 11 92 
3 85 93 8 
3 94 6 8 
3 85 95 93 
3 85 96 95 
3 85 97 96 
3 98 94 8 
3 99 97 85 
3 100 98 8 
3 101 11 91 
3 102 100 8 
3 103 99 85 
3 104 11 101 
3 60 103 85 
3 60 105 103 
3 60 106 105 
3 107 108 109 
3 60 110 106 
3 60 111 110 
3 60 112 111 
3 60 113 112 
3 60 11 104 
3 60 104 114 
3 60 114 113 
3 115 109 116 
3 115 107 109 
3 117 118 108 
3 117 108 107 
3 119 116 102 
3 119 115 116 
3 120 121 118 
3 120 118 117 
3 11 122 123 
3 11 124 122 
3 11 36 124 
3 125 102 8 
3 125 119 102 
3 126 127 121 
3 126 121 120 
3 93 125 8 
3 128 129 127 
3 128 127 126 
3 130 129 128 
3 130 123 129 
3 92 123 130 
3 92 11 123 
3 131 122 132 
3 122 124 132 
3 132 124 133 
3 124 36 133 
3 133 36 134 
3 135 16 136 
3 14 16 135 
3 36 37 134 
3 134 37 137 
3 136 17 138 
3 16 17 136 
3 37 38 137 
3 137 38 139 
3 138 26 140 
3 17 26 138 
3 38 34 139 
3 139 34 141 
3 140 10 142 
3 26 10 140 
3 141 31 143 
3 34 31 141 
3 142 7 144 
3 143 28 135 
3 10 7 142 
3 31 28 143 
3 28 14 135 
3 144 6 145 
3 7 6 144 
3 145 94 146 
3 6 94 145 
3 146 98 147 
3 94 98 146 
3 147 100 148 
3 98 100 147 
3 148 102 149 
3 100 102 148 
3 102 116 149 
3 149 116 150 
3 116 109 150 
3 150 109 151 
3 109 108 151 
3 151 108 152 
3 108 118 152 
3 152 118 153 
3 118 121 153 
3 153 121 154 
3 121 127 154 
3 154 127 155 
3 127 129 155 
3 155 129 156 
3 129 123 156 
3 156 123 131 
3 123 122 131 
3 42 13 157 
3 157 13 158 
3 13 12 158 
3 158 12 159 
3 19 9 160 
3 160 9 161 
3 12 27 159 
3 159 27 162 
3 161 0 163 
3 27 20 162 
3 9 0 161 
3 162 20 164 
3 163 2 165 
3 20 21 164 
3 164 21 166 
3 0 2 163 
3 165 3 167 
3 21 22 166 
3 166 22 168 
3 2 3 165 
3 167 4 169 
3 168 23 170 
3 22 23 168 
3 3 4 167 
3 170 24 171 
3 23 24 170 
3 169 5 172 
3 24 19 171 
3 4 5 169 
3 171 19 160 
3 172 33 173 
3 5 33 172 
3 173 30 174 
3 33 30 173 
3 174 25 175 
3 30 25 174 
3 175 15 176 
3 25 15 175 
3 176 29 177 
3 15 29 176 
3 29 32 177 
3 177 32 178 
3 32 35 178 
3 178 35 179 
3 35 39 179 
3 179 39 180 
3 39 40 180 
3 180 40 181 
3 40 41 181 
3 181 41 182 
3 41 42 182 
3 182 42 157 
3 51 60 85 
3 51 85 77 
3 52 183 184 
3 52 184 185 
3 52 185 186 
3 52 186 187 
3 52 188 76 
3 52 51 189 
3 52 189 190 
3 191 192 77 
3 193 77 192 
3 194 191 77 
3 195 77 193 
3 196 194 77 
3 197 77 195 
3 198 196 77 
3 76 199 200 
3 76 200 201 
3 76 201 202 
3 76 202 203 
3 76 203 198 
3 76 198 77 
3 188 199 76 
3 51 197 204 
3 51 204 205 
3 51 77 197 
3 206 51 205 
3 207 51 206 
3 208 51 207 
3 209 51 208 
3 189 51 209 
3 52 187 188 
3 52 190 210 
3 52 210 183 
3 53 52 76 
3 53 76 78 
3 211 212 78 
3 75 211 78 
3 213 53 214 
3 49 213 211 
3 49 211 75 
3 49 53 213 
3 53 78 212 
3 53 212 214 
3 215 216 75 
3 217 75 216 
3 218 215 75 
3 219 75 217 
3 220 218 75 
3 221 75 219 
3 74 222 223 
3 74 223 224 
3 74 224 225 
3 74 225 226 
3 74 226 220 
3 74 220 75 
3 227 222 74 
3 228 227 74 
3 229 75 221 
3 49 75 229 
3 230 49 229 
3 231 49 230 
3 232 49 231 
3 233 49 232 
3 234 49 233 
3 235 49 234 
3 236 228 74 
3 50 237 238 
3 50 238 239 
3 50 239 240 
3 50 240 241 
3 50 241 242 
3 50 242 236 
3 50 236 74 
3 50 49 237 
3 237 49 235 
3 43 50 74 
3 43 74 69 
3 243 244 69 
3 68 243 69 
3 245 243 68 
3 245 43 246 
3 44 245 68 
3 43 69 244 
3 43 244 246 
3 44 43 245 
3 45 44 68 
3 45 68 70 
3 247 70 72 
3 247 248 70 
3 249 250 247 
3 249 247 72 
3 251 252 253 
3 251 45 254 
3 47 251 253 
3 47 45 251 
3 45 70 248 
3 45 248 254 
3 48 253 255 
3 48 47 253 
3 256 255 257 
3 48 255 256 
3 46 256 258 
3 46 48 256 
3 259 46 258 
3 54 46 259 
3 56 259 260 
3 56 54 259 
3 261 262 263 
3 261 57 262 
3 262 56 260 
3 57 56 262 
3 264 57 261 
3 55 57 264 
3 83 265 81 
3 266 265 83 
3 267 268 265 
3 265 268 81 
3 269 270 264 
3 58 270 271 
3 270 55 264 
3 58 55 270 
3 83 58 266 
3 266 58 271 
3 62 58 87 
3 87 58 83 
3 272 273 86 
3 273 87 86 
3 273 274 87 
3 61 274 275 
3 274 62 87 
3 86 61 272 
3 272 61 275 
3 61 62 274 
3 64 61 88 
3 88 61 86 
3 276 277 84 
3 84 278 276 
3 277 279 84 
3 84 280 278 
3 279 281 84 
3 84 282 280 
3 283 88 284 
3 284 88 285 
3 285 88 286 
3 286 88 287 
3 287 88 281 
3 281 88 84 
3 283 288 88 
3 288 289 88 
3 84 290 282 
3 84 59 290 
3 59 291 290 
3 59 292 291 
3 59 293 292 
3 59 294 293 
3 59 295 294 
3 59 296 295 
3 289 297 88 
3 298 64 299 
3 299 64 300 
3 300 64 301 
3 301 64 302 
3 302 64 303 
3 303 64 297 
3 297 64 88 
3 59 64 298 
3 59 298 296 
3 304 305 89 
3 305 84 89 
3 65 306 307 
3 306 59 305 
3 305 59 84 
3 65 59 306 
3 89 65 304 
3 304 65 307 
3 66 65 90 
3 90 65 89 
3 308 66 309 
3 309 66 310 
3 310 66 311 
3 311 66 312 
3 312 66 313 
3 313 66 314 
3 315 66 90 
3 63 66 316 
3 316 66 308 
3 317 318 67 
3 67 319 317 
3 318 320 67 
3 67 321 319 
3 320 322 67 
3 67 323 321 
3 322 324 67 
3 325 90 326 
3 326 90 327 
3 327 90 328 
3 328 90 329 
3 329 90 324 
3 324 90 67 
3 325 315 90 
3 323 63 330 
3 330 63 331 
3 67 63 323 
3 63 332 331 
3 63 333 332 
3 63 334 333 
3 63 335 334 
3 63 316 335 
3 314 66 315 
3 336 72 73 
3 336 249 72 
3 336 73 337 
3 71 337 73 
3 338 336 337 
3 339 337 71 
3 340 71 79 
3 340 339 71 
3 80 340 79 
3 341 340 80 
3 82 342 343 
3 343 80 82 
3 342 344 343 
3 343 341 80 
3 81 342 82 
3 268 342 81 
3 112 113 345 
3 345 113 346 
3 113 114 346 
3 346 114 347 
3 126 120 348 
3 348 120 349 
3 114 104 347 
3 347 104 350 
3 349 117 351 
3 104 101 350 
3 120 117 349 
3 350 101 352 
3 351 107 353 
3 101 91 352 
3 352 91 354 
3 117 107 351 
3 353 115 355 
3 91 92 354 
3 354 92 356 
3 107 115 353 
3 355 119 357 
3 356 130 358 
3 92 130 356 
3 115 119 355 
3 358 128 359 
3 130 128 358 
3 357 125 360 
3 128 126 359 
3 119 125 357 
3 359 126 348 
3 360 93 361 
3 125 93 360 
3 361 95 362 
3 93 95 361 
3 362 96 363 
3 95 96 362 
3 363 97 364 
3 96 97 363 
3 364 99 365 
3 97 99 364 
3 99 103 365 
3 365 103 366 
3 103 105 366 
3 366 105 367 
3 105 106 367 
3 367 106 368 
3 106 110 368 
3 368 110 369 
3 110 111 369 
3 369 111 370 
3 111 112 370 
3 370 112 345 
3 143 137 139 
3 143 139 141 
3 136 143 135 
3 140 136 138 
3 155 156 131 
3 155 131 132 
3 154 132 133 
3 154 133 134 
3 154 134 137 
3 154 155 132 
3 144 140 142 
3 144 137 143 
3 144 143 136 
3 144 136 140 
3 152 153 154 
3 147 144 145 
3 147 145 146 
3 150 151 152 
3 149 147 148 
3 149 154 137 
3 149 144 147 
3 149 137 144 
3 149 152 154 
3 149 150 152 
3 171 166 168 
3 171 168 170 
3 161 171 160 
3 157 158 159 
3 157 159 162 
3 157 162 164 
3 169 161 163 
3 169 163 165 
3 169 165 167 
3 169 166 171 
3 169 171 161 
3 180 181 182 
3 173 169 172 
3 178 179 180 
3 178 182 157 
3 178 164 166 
3 178 157 164 
3 178 180 182 
3 174 169 173 
3 176 174 175 
3 176 177 178 
3 176 166 169 
3 176 178 166 
3 176 169 174 
3 204 197 371 
3 371 197 372 
3 199 188 373 
3 199 373 374 
3 200 374 375 
3 200 199 374 
3 201 375 376 
3 201 200 375 
3 202 376 377 
3 202 201 376 
3 203 377 378 
3 203 202 377 
3 198 378 379 
3 198 203 378 
3 196 379 380 
3 196 198 379 
3 194 380 381 
3 194 196 380 
3 191 381 382 
3 191 194 381 
3 192 382 383 
3 192 191 382 
3 193 383 384 
3 193 192 383 
3 195 384 385 
3 195 193 384 
3 197 385 372 
3 197 195 385 
3 188 187 373 
3 373 187 386 
3 205 204 371 
3 205 371 387 
3 206 387 388 
3 206 205 387 
3 207 388 389 
3 207 206 388 
3 208 389 390 
3 208 207 389 
3 209 390 391 
3 209 208 390 
3 189 391 392 
3 189 209 391 
3 190 392 393 
3 190 189 392 
3 210 393 394 
3 210 190 393 
3 183 394 395 
3 183 210 394 
3 184 395 396 
3 184 183 395 
3 185 396 397 
3 185 184 396 
3 186 397 398 
3 186 185 397 
3 187 398 386 
3 187 186 398 
3 211 213 399 
3 211 399 400 
3 213 214 401 
3 213 401 399 
3 214 212 402 
3 214 402 401 
3 212 211 400 
3 212 400 402 
3 228 236 403 
3 403 236 404 
3 230 229 405 
3 230 405 406 
3 231 406 407 
3 231 230 406 
3 232 407 408 
3 232 231 407 
3 233 408 409 
3 233 232 408 
3 234 409 410 
3 234 233 409 
3 235 410 411 
3 235 234 410 
3 237 411 412 
3 237 235 411 
3 238 412 413 
3 238 237 412 
3 239 413 414 
3 239 238 413 
3 240 414 415 
3 240 239 414 
3 241 415 416 
3 241 240 415 
3 242 416 417 
3 242 241 416 
3 236 417 404 
3 236 242 417 
3 405 221 418 
3 229 221 405 
3 227 228 403 
3 227 403 419 
3 222 419 420 
3 222 227 419 
3 223 420 421 
3 223 222 420 
3 224 421 422 
3 224 223 421 
3 225 422 423 
3 225 224 422 
3 226 423 424 
3 226 225 423 
3 220 424 425 
3 220 226 424 
3 218 425 426 
3 218 220 425 
3 215 426 427 
3 215 218 426 
3 216 427 428 
3 216 215 427 
3 217 428 429 
3 217 216 428 
3 219 429 430 
3 219 217 429 
3 221 430 418 
3 221 219 430 
3 243 245 431 
3 243 431 432 
3 245 246 433 
3 245 433 431 
3 246 244 434 
3 246 434 433 
3 244 243 432 
3 244 432 434 
3 252 255 253 
3 257 255 252 
3 251 257 252 
3 256 257 251 
3 258 251 254 
3 258 256 251 
3 339 254 248 
3 339 258 254 
3 337 248 247 
3 337 339 248 
3 338 247 250 
3 338 337 247 
3 336 250 249 
3 336 338 250 
3 340 258 339 
3 259 258 340 
3 260 340 341 
3 260 259 340 
3 271 262 260 
3 271 270 262 
3 262 269 263 
3 270 269 262 
3 263 264 261 
3 269 264 263 
3 266 260 341 
3 266 271 260 
3 265 341 343 
3 265 266 341 
3 267 343 344 
3 267 265 343 
3 268 344 342 
3 268 267 344 
3 274 435 436 
3 274 273 435 
3 275 274 437 
3 437 274 436 
3 272 275 438 
3 438 275 437 
3 273 272 435 
3 435 272 438 
3 297 289 439 
3 297 439 440 
3 290 291 441 
3 441 291 442 
3 442 292 443 
3 291 292 442 
3 443 293 444 
3 292 293 443 
3 444 294 445 
3 293 294 444 
3 445 295 446 
3 294 295 445 
3 446 296 447 
3 295 296 446 
3 447 298 448 
3 296 298 447 
3 448 299 449 
3 298 299 448 
3 449 300 450 
3 299 300 449 
3 450 301 451 
3 300 301 450 
3 451 302 452 
3 301 302 451 
3 452 303 453 
3 302 303 452 
3 453 297 440 
3 303 297 453 
3 282 441 454 
3 282 290 441 
3 289 288 439 
3 439 288 455 
3 455 283 456 
3 288 283 455 
3 456 284 457 
3 283 284 456 
3 457 285 458 
3 284 285 457 
3 458 286 459 
3 285 286 458 
3 459 287 460 
3 286 287 459 
3 460 281 461 
3 287 281 460 
3 461 279 462 
3 281 279 461 
3 462 277 463 
3 279 277 462 
3 463 276 464 
3 277 276 463 
3 464 278 465 
3 276 278 464 
3 465 280 466 
3 278 280 465 
3 466 282 454 
3 280 282 466 
3 306 467 468 
3 306 305 467 
3 307 306 469 
3 469 306 468 
3 304 307 470 
3 470 307 469 
3 305 304 467 
3 467 304 470 
3 323 330 471 
3 323 471 472 
3 315 325 473 
3 473 325 474 
3 474 326 475 
3 325 326 474 
3 475 327 476 
3 326 327 475 
3 476 328 477 
3 327 328 476 
3 477 329 478 
3 328 329 477 
3 478 324 479 
3 329 324 478 
3 479 322 480 
3 324 322 479 
3 480 320 481 
3 322 320 480 
3 481 318 482 
3 320 318 481 
3 482 317 483 
3 318 317 482 
3 483 319 484 
3 317 319 483 
3 484 321 485 
3 319 321 484 
3 485 323 472 
3 321 323 485 
3 314 315 473 
3 314 473 486 
3 330 331 471 
3 471 331 487 
3 487 332 488 
3 331 332 487 
3 488 333 489 
3 332 333 488 
3 489 334 490 
3 333 334 489 
3 490 335 491 
3 334 335 490 
3 491 316 492 
3 335 316 491 
3 492 308 493 
3 316 308 492 
3 493 309 494 
3 308 309 493 
3 494 310 495 
3 309 310 494 
3 495 311 496 
3 310 311 495 
3 496 312 497 
3 311 312 496 
3 497 313 498 
3 312 313 497 
3 498 314 486 
3 313 314 498 
3 357 353 355 
3 361 357 360 
3 359 348 349 
3 363 361 362 
3 356 358 359 
3 354 349 351 
3 354 351 353 
3 354 359 349 
3 354 356 359 
3 365 363 364 
3 350 352 354 
3 347 353 357 
3 347 354 353 
3 347 350 354 
3 345 346 347 
3 370 365 366 
3 370 366 367 
3 370 367 368 
3 370 368 369 
3 370 363 365 
3 370 357 361 
3 370 361 363 
3 370 347 357 
3 370 345 347 
3 374 376 375 
3 373 377 376 
3 373 378 377 
3 373 376 374 
3 382 380 379 
3 382 381 380 
3 385 379 378 
3 385 383 382 
3 385 384 383 
3 385 378 373 
3 385 382 379 
3 372 385 373 
3 386 372 373 
3 396 398 397 
3 396 386 398 
3 371 372 386 
3 392 394 393 
3 392 395 394 
3 392 396 395 
3 387 371 386 
3 391 396 392 
3 389 388 387 
3 389 391 390 
3 389 386 396 
3 389 387 386 
3 389 396 391 
3 400 399 402 
3 402 399 401 
3 415 417 416 
3 413 412 414 
3 414 412 415 
3 407 406 408 
3 408 406 409 
3 409 406 410 
3 410 406 411 
3 411 406 412 
3 417 405 404 
3 415 405 417 
3 412 405 415 
3 406 405 412 
3 405 403 404 
3 419 421 420 
3 421 423 422 
3 403 418 419 
3 405 418 403 
3 423 430 424 
3 419 430 421 
3 418 430 419 
3 421 430 423 
3 425 427 426 
3 424 428 425 
3 429 428 430 
3 425 428 427 
3 430 428 424 
3 432 431 434 
3 434 431 433 
3 436 435 438 
3 436 438 437 
3 453 451 452 
3 448 449 450 
3 448 450 451 
3 442 443 444 
3 442 444 445 
3 442 445 446 
3 442 446 447 
3 442 447 448 
3 441 453 440 
3 441 451 453 
3 441 448 451 
3 441 442 448 
3 439 441 440 
3 457 455 456 
3 459 457 458 
3 454 439 455 
3 454 441 439 
3 466 459 460 
3 466 455 457 
3 466 454 455 
3 466 457 459 
3 463 461 462 
3 464 460 461 
3 464 465 466 
3 464 461 463 
3 464 466 460 
3 468 467 470 
3 468 470 469 
3 476 474 475 
3 477 473 476 
3 478 473 477 
3 476 473 474 
3 480 482 479 
3 481 482 480 
3 479 485 478 
3 483 485 482 
3 484 485 483 
3 478 485 473 
3 482 485 479 
3 485 472 473 
3 472 486 473 
3 498 496 497 
3 486 496 498 
3 472 471 486 
3 494 492 493 
3 495 492 494 
3 496 492 495 
3 471 487 486 
3 496 491 492 
3 488 489 487 
3 491 489 490 
3 486 489 496 
3 487 489 486 
3 496 489 491 
