ply
format ascii 1.0
comment Created by CloudCompare v2.10.1 (Zephyrus)
comment Created 11/03/2019 07:43
obj_info Generated by CloudCompare!
element vertex 514
property float x
property float y
property float z
element face 1056
property list uchar int vertex_indices
end_header
0.01 0 0.0526111 
-0.01 0 0.0526111 
-0.01 0 0.005 
0.01 0 0.005 
-0.01 9.55563e-05 0.0533623 
-0.01 0.00209788 0.0554723 
-0.01 0.000376141 0.0540656 
-0.01 0.000823877 0.0546762 
-0.01 0.00141024 0.0551553 
-0.01 0.00284299 0.055607 
-0.01 0.0035981 0.0555509 
-0.01 0.00431511 0.0553075 
-0.01 0.00545746 0.0543319 
-0.01 0.04 0.005 
-0.01 0.00494834 0.0548924 
0.01 0.00545746 0.0543319 
0.01 0.00494834 0.0548924 
0.01 0.00431511 0.0553075 
0.01 0.0035981 0.0555509 
0.01 0.00284299 0.055607 
0.01 0.00209788 0.0554723 
0.01 0.00141024 0.0551553 
0.01 0.000823877 0.0546762 
0.01 0.000376141 0.0540656 
0.01 9.55563e-05 0.0533623 
0.018 0 0 
0.018 0 0.005 
-0.018 0 0 
-0.018 0 0.005 
0.01 0.04 0.005 
-0.0146815 0.00333011 0.005 
-0.02 0.002 0.005 
-0.0167 0.005 0.005 
-0.0166466 0.00542277 0.005 
-0.0164897 0.00581898 0.005 
-0.0139164 0.00630987 0.005 
-0.0136247 0.0340008 0.005 
-0.0139164 0.0336901 0.005 
-0.02 0.038 0.005 
-0.0162392 0.00383627 0.005 
-0.0164897 0.00418102 0.005 
-0.0166466 0.00457723 0.005 
-0.0136247 0.0359992 0.005 
-0.0139164 0.0363099 0.005 
-0.0136247 0.00599924 0.005 
-0.0142762 0.0365382 0.005 
-0.0134194 0.0343742 0.005 
-0.0197321 0.001 0.005 
-0.0199319 0.00148236 0.005 
-0.0134194 0.0356258 0.005 
-0.0142762 0.00653821 0.005 
-0.019 0.00026795 0.005 
-0.0185176 6.81477e-05 0.005 
-0.0142762 0.0334618 0.005 
-0.0146815 0.0366699 0.005 
-0.018 0.04 0.005 
-0.0194142 0.000585787 0.005 
-0.0134194 0.00562581 0.005 
-0.0133134 0.0352131 0.005 
-0.0146815 0.00666989 0.005 
-0.0146815 0.0333301 0.005 
-0.0151067 0.0366966 0.005 
-0.0133134 0.0347869 0.005 
-0.0151067 0.00669665 0.005 
-0.0151067 0.0333034 0.005 
-0.0155253 0.0366168 0.005 
-0.019 0.0397321 0.005 
-0.0185176 0.0399319 0.005 
-0.0155253 0.0066168 0.005 
-0.0155253 0.0333832 0.005 
-0.0159109 0.0364354 0.005 
-0.0159109 0.00643536 0.005 
-0.0159109 0.0335646 0.005 
-0.0162392 0.0361637 0.005 
-0.0133134 0.00521307 0.005 
-0.0133134 0.00478693 0.005 
-0.0134194 0.00437419 0.005 
-0.0136247 0.00400076 0.005 
-0.0162392 0.00616373 0.005 
-0.0162392 0.0338363 0.005 
-0.0197321 0.039 0.005 
-0.0194142 0.0394142 0.005 
-0.0139164 0.00369013 0.005 
-0.0164897 0.034181 0.005 
-0.0142762 0.00346179 0.005 
-0.0199319 0.0385176 0.005 
-0.0167 0.035 0.005 
-0.0166466 0.0354228 0.005 
-0.0164897 0.035819 0.005 
-0.0166466 0.0345772 0.005 
-0.0151067 0.00330335 0.005 
-0.0155253 0.0033832 0.005 
-0.0159109 0.00356464 0.005 
0.006 0.0352006 0.0118543 
0.006 0.030612 0.0184075 
-0.006 0.0352006 0.0118543 
-0.006 0.030612 0.0184075 
0.006 0.0151254 0.0405246 
-0.006 0.0151254 0.0405246 
0.006 0.0105368 0.0470778 
-0.006 0.0105368 0.0470778 
-0.0199319 0.0385176 0 
-0.0197321 0.039 0 
-0.0194142 0.0394142 0 
-0.018 0.04 0 
-0.019 0.0397321 0 
-0.0185176 0.0399319 0 
-0.02 0.038 0 
-0.0162392 0.0361637 0 
-0.0159109 0.0364354 0 
-0.0164897 0.035819 0 
-0.0155253 0.0366168 0 
-0.0166466 0.0354228 0 
-0.0151067 0.0366966 0 
-0.0167 0.035 0 
-0.0146815 0.0366699 0 
-0.0166466 0.0345772 0 
-0.0142762 0.0365382 0 
-0.0164897 0.034181 0 
-0.0139164 0.0363099 0 
-0.0162392 0.00616373 0 
-0.0162392 0.0338363 0 
0.0137608 0.0361637 0 
-0.0136247 0.0359992 0 
-0.0159109 0.00643536 0 
-0.0159109 0.0335646 0 
0.0140891 0.0364354 0 
-0.0164897 0.00581898 0 
0.0135103 0.035819 0 
-0.0134194 0.0356258 0 
-0.0155253 0.0066168 0 
-0.0155253 0.0333832 0 
0.0133534 0.0354228 0 
-0.0133134 0.0352131 0 
0.018 0.04 0 
0.0144747 0.0366168 0 
-0.02 0.002 0 
-0.0166466 0.00542277 0 
-0.0151067 0.00669665 0 
-0.0151067 0.0333034 0 
0.0148933 0.0366966 0 
-0.0167 0.005 0 
0.0133 0.035 0 
-0.0133134 0.0347869 0 
-0.0146815 0.00666989 0 
-0.0146815 0.0333301 0 
0.0153185 0.0366699 0 
-0.0166466 0.00457723 0 
0.0133534 0.0345772 0 
-0.0134194 0.0343742 0 
-0.0142762 0.00653821 0 
-0.0142762 0.0334618 0 
0.0157238 0.0365382 0 
0.019 0.0397321 0 
0.0185176 0.0399319 0 
-0.0164897 0.00418102 0 
0.0135103 0.034181 0 
-0.0136247 0.0340008 0 
-0.0139164 0.00630987 0 
-0.0139164 0.0336901 0 
0.0160836 0.0363099 0 
-0.0162392 0.00383627 0 
0.0137608 0.0338363 0 
-0.0194142 0.000585787 0 
-0.0197321 0.001 0 
-0.0199319 0.00148236 0 
0.0194142 0.0394142 0 
0.02 0.038 0 
0.0197321 0.039 0 
0.0199319 0.0385176 0 
0.0163753 0.0359992 0 
0.0165806 0.0356258 0 
0.0166866 0.0352131 0 
0.0166866 0.0347869 0 
-0.019 0.00026795 0 
-0.0185176 6.81477e-05 0 
-0.0151067 0.00330335 0 
-0.0146815 0.00333011 0 
-0.0155253 0.0033832 0 
-0.0159109 0.00356464 0 
0.0165806 0.0343742 0 
-0.0142762 0.00346179 0 
0.0163753 0.0340008 0 
-0.0139164 0.00369013 0 
0.0137608 0.00616373 0 
0.0140891 0.0335646 0 
-0.0136247 0.00599924 0 
0.0140891 0.00643536 0 
0.0144747 0.0333832 0 
0.0135103 0.00581898 0 
-0.0134194 0.00562581 0 
0.0144747 0.0066168 0 
0.0148933 0.0333034 0 
0.0133534 0.00542277 0 
-0.0133134 0.00521307 0 
0.0148933 0.00669665 0 
0.0153185 0.0333301 0 
0.0133 0.005 0 
-0.0133134 0.00478693 0 
0.0153185 0.00666989 0 
0.0157238 0.0334618 0 
0.0133534 0.00457723 0 
-0.0134194 0.00437419 0 
0.0157238 0.00653821 0 
0.0160836 0.0336901 0 
0.0135103 0.00418102 0 
-0.0136247 0.00400076 0 
0.0160836 0.00630987 0 
0.0137608 0.00383627 0 
0.0163753 0.00599924 0 
0.0140891 0.00356464 0 
0.02 0.002 0 
0.0165806 0.00562581 0 
0.0166866 0.00521307 0 
0.0166866 0.00478693 0 
0.0165806 0.00437419 0 
0.0163753 0.00400076 0 
0.0160836 0.00369013 0 
0.0157238 0.00346179 0 
0.0153185 0.00333011 0 
0.0148933 0.00330335 0 
0.0144747 0.0033832 0 
0.0197321 0.001 0 
0.0199319 0.00148236 0 
0.019 0.00026795 0 
0.0185176 6.81477e-05 0 
0.0194142 0.000585787 0 
0.0185176 6.81477e-05 0.005 
0.019 0.00026795 0.005 
0.0194142 0.000585787 0.005 
0.0197321 0.001 0.005 
0.0199319 0.00148236 0.005 
0.02 0.002 0.005 
0.0163753 0.00599924 0.005 
0.0163753 0.0340008 0.005 
0.0160836 0.00630987 0.005 
0.0157238 0.00653821 0.005 
0.0160836 0.0336901 0.005 
0.0157238 0.0334618 0.005 
0.0199319 0.0385176 0.005 
0.0197321 0.039 0.005 
0.0194142 0.0394142 0.005 
0.0135103 0.034181 0.005 
0.0133 0.005 0.005 
0.0133534 0.00542277 0.005 
0.0135103 0.00581898 0.005 
0.0148933 0.00330335 0.005 
0.0144747 0.0033832 0.005 
0.0140891 0.00356464 0.005 
0.02 0.038 0.005 
0.019 0.0397321 0.005 
0.0137608 0.00383627 0.005 
0.0135103 0.00418102 0.005 
0.0133534 0.00457723 0.005 
0.0165806 0.00562581 0.005 
0.018 0.04 0.005 
0.0185176 0.0399319 0.005 
0.0153185 0.00666989 0.005 
0.0153185 0.0333301 0.005 
0.0160836 0.0363099 0.005 
0.0163753 0.0359992 0.005 
0.0157238 0.0365382 0.005 
0.0166866 0.00521307 0.005 
0.0165806 0.0356258 0.005 
0.0148933 0.00669665 0.005 
0.0148933 0.0333034 0.005 
0.0153185 0.0366699 0.005 
0.0166866 0.0352131 0.005 
0.0166866 0.00478693 0.005 
0.0148933 0.0366966 0.005 
0.0144747 0.0066168 0.005 
0.0144747 0.0333832 0.005 
0.0166866 0.0347869 0.005 
0.0165806 0.00437419 0.005 
0.0165806 0.0343742 0.005 
0.0140891 0.00643536 0.005 
0.0140891 0.0335646 0.005 
0.0163753 0.00400076 0.005 
0.0140891 0.0364354 0.005 
0.0144747 0.0366168 0.005 
0.0137608 0.00616373 0.005 
0.0137608 0.0338363 0.005 
0.0137608 0.0361637 0.005 
0.0160836 0.00369013 0.005 
0.0135103 0.035819 0.005 
0.0133534 0.0354228 0.005 
0.0133 0.035 0.005 
0.0133534 0.0345772 0.005 
0.0157238 0.00346179 0.005 
0.0153185 0.00333011 0.005 
0.006 0.0233169 0.0462604 
0.006 0.0187283 0.0528136 
0.00295 0.0162708 0.0510929 
0.00295 0.0129942 0.0487986 
-0.00295 0.0162708 0.0510929 
-0.006 0.0187283 0.0528136 
-0.00295 0.0129942 0.0487986 
-0.006 0.0233169 0.0462604 
-0.00295 0.0208595 0.0445397 
-0.00295 0.0175828 0.0422454 
0.00295 0.0208595 0.0445397 
0.00295 0.0175828 0.0422454 
0.006 0.0433921 0.0175901 
0.006 0.0388035 0.0241433 
0.00295 0.0330694 0.0201282 
0.00295 0.036346 0.0224226 
-0.00295 0.036346 0.0224226 
-0.006 0.0388035 0.0241433 
-0.00295 0.0330694 0.0201282 
-0.006 0.0433921 0.0175901 
-0.00295 0.037658 0.013575 
-0.00295 0.0409346 0.0158693 
0.00295 0.0409346 0.0158693 
0.00295 0.037658 0.013575 
0.00161808 0.0217904 0.0484405 
0.00123435 0.0219971 0.0481453 
0.00190014 0.0215355 0.0488046 
0.000773062 0.0221425 0.0479376 
0.0020628 0.0212483 0.0492147 
0.0002632 0.0222176 0.0478303 
0.00209586 0.020947 0.049645 
0.00199722 0.0206504 0.0500686 
0.00177309 0.0203772 0.0504587 
0.00143755 0.0201446 0.050791 
0.00101168 0.0199671 0.0510444 
0.000522249 0.0198559 0.0512032 
-0.0002632 0.0222176 0.0478303 
-0.000773062 0.0221425 0.0479376 
-0.00123435 0.0219971 0.0481453 
-0.00161808 0.0217904 0.0484405 
-0.00190014 0.0215355 0.0488046 
-0.0020628 0.0212483 0.0492147 
-4.62705e-15 0.0198181 0.0512572 
-0.00209586 0.020947 0.049645 
-0.00199722 0.0206504 0.0500686 
-0.00177309 0.0203772 0.0504587 
-0.00143755 0.0201446 0.050791 
-0.00101168 0.0199671 0.0510444 
-0.000522249 0.0198559 0.0512032 
-0.00123435 0.0195396 0.0464246 
-0.00161808 0.0193329 0.0467198 
-0.00190014 0.019078 0.0470838 
-0.000773062 0.0196851 0.0462168 
-0.0020628 0.0187909 0.0474939 
-0.0002632 0.0197602 0.0461096 
-0.00209586 0.0184895 0.0479243 
0.000773062 0.0196851 0.0462168 
0.0002632 0.0197602 0.0461096 
0.00123435 0.0195396 0.0464246 
0.00161808 0.0193329 0.0467198 
0.00190014 0.019078 0.0470838 
-0.00199722 0.0181929 0.0483478 
-0.00177309 0.0179197 0.048738 
-0.00143755 0.0176871 0.0490703 
-0.00101168 0.0175096 0.0493237 
-0.000522249 0.0173985 0.0494824 
0.0020628 0.0187909 0.0474939 
-4.37359e-15 0.0173606 0.0495365 
0.00209586 0.0184895 0.0479243 
0.000522249 0.0173985 0.0494824 
0.00101168 0.0175096 0.0493237 
0.00143755 0.0176871 0.0490703 
0.00177309 0.0179197 0.048738 
0.00199722 0.0181929 0.0483478 
0.00123435 0.016263 0.0441303 
0.00161808 0.0160563 0.0444255 
0.00190014 0.0158014 0.0447895 
0.000773062 0.0164085 0.0439225 
0.0020628 0.0155142 0.0451996 
0.0002632 0.0164836 0.0438153 
0.00209586 0.0152129 0.04563 
-0.0002632 0.0164836 0.0438153 
-0.000773062 0.0164085 0.0439225 
-0.00123435 0.016263 0.0441303 
-0.00161808 0.0160563 0.0444255 
-0.00190014 0.0158014 0.0447895 
0.00143755 0.0144105 0.0467759 
0.00101168 0.014233 0.0470294 
0.00177309 0.0146431 0.0464437 
0.00199722 0.0149163 0.0460535 
0.000522249 0.0141219 0.0471881 
-0.0020628 0.0155142 0.0451996 
-4.03532e-15 0.014084 0.0472422 
-0.00209586 0.0152129 0.04563 
-0.00199722 0.0149163 0.0460535 
-0.00177309 0.0146431 0.0464437 
-0.00143755 0.0144105 0.0467759 
-0.00101168 0.014233 0.0470294 
-0.000522249 0.0141219 0.0471881 
0.00161808 0.0418656 0.0197702 
0.00123435 0.0420723 0.019475 
0.00190014 0.0416106 0.0201342 
0.000773062 0.0422177 0.0192673 
0.0020628 0.0413235 0.0205443 
0.0002632 0.0422928 0.01916 
0.00209586 0.0410222 0.0209747 
0.00199722 0.0407256 0.0213983 
0.00177309 0.0404524 0.0217884 
0.00143755 0.0402197 0.0221207 
0.00101168 0.0400423 0.0223741 
0.000522249 0.0399311 0.0225328 
-0.0002632 0.0422928 0.01916 
-0.000773062 0.0422177 0.0192673 
-0.00123435 0.0420723 0.019475 
-0.00161808 0.0418656 0.0197702 
-0.00190014 0.0416106 0.0201342 
-0.0020628 0.0413235 0.0205443 
-6.70059e-15 0.0398933 0.0225869 
-0.00209586 0.0410222 0.0209747 
-0.00199722 0.0407256 0.0213983 
-0.00177309 0.0404524 0.0217884 
-0.00143755 0.0402197 0.0221207 
-0.00101168 0.0400423 0.0223741 
-0.000522249 0.0399311 0.0225328 
-0.00143755 0.0377623 0.0203999 
-0.00177309 0.0379949 0.0200677 
-0.00101168 0.0375848 0.0206534 
-0.00199722 0.0382681 0.0196775 
-0.000522249 0.0374737 0.0208121 
-0.00209586 0.0385647 0.019254 
-6.44614e-15 0.0374358 0.0208662 
0.000522249 0.0374737 0.0208121 
0.00101168 0.0375848 0.0206534 
0.00143755 0.0377623 0.0203999 
0.00177309 0.0379949 0.0200677 
-0.00123435 0.0396148 0.0177543 
-0.00161808 0.0394081 0.0180494 
-0.00190014 0.0391532 0.0184135 
-0.0020628 0.038866 0.0188236 
-0.000773062 0.0397603 0.0175465 
0.00199722 0.0382681 0.0196775 
-0.0002632 0.0398353 0.0174393 
0.00209586 0.0385647 0.019254 
0.0020628 0.038866 0.0188236 
0.00190014 0.0391532 0.0184135 
0.00161808 0.0394081 0.0180494 
0.00123435 0.0396148 0.0177543 
0.000773062 0.0397603 0.0175465 
0.0002632 0.0398353 0.0174393 
0.00143755 0.0344857 0.0181056 
0.00177309 0.0347183 0.0177734 
0.00101168 0.0343082 0.0183591 
0.00199722 0.0349915 0.0173832 
0.000522249 0.0341971 0.0185178 
0.00209586 0.0352881 0.0169597 
-6.10786e-15 0.0341592 0.0185719 
-0.000522249 0.0341971 0.0185178 
-0.00101168 0.0343082 0.0183591 
-0.00143755 0.0344857 0.0181056 
-0.00177309 0.0347183 0.0177734 
0.0020628 0.0355894 0.0165293 
0.00190014 0.0358766 0.0161192 
0.00161808 0.0361315 0.0157551 
0.00123435 0.0363382 0.01546 
0.000773062 0.0364836 0.0152522 
-0.00199722 0.0349915 0.0173832 
0.0002632 0.0365587 0.015145 
-0.00209586 0.0352881 0.0169597 
-0.0002632 0.0365587 0.015145 
-0.000773062 0.0364836 0.0152522 
-0.00123435 0.0363382 0.01546 
-0.00161808 0.0361315 0.0157551 
-0.00190014 0.0358766 0.0161192 
-0.0020628 0.0355894 0.0165293 
-0.00209586 0.0127555 0.0439092 
-0.00199722 0.0124589 0.0443328 
-0.00177309 0.0121857 0.044723 
-3.78187e-15 0.0116266 0.0455215 
0.000522249 0.0116644 0.0454674 
0.00101168 0.0117756 0.0453087 
-0.00143755 0.011953 0.0450552 
0.00143755 0.011953 0.0450552 
-0.00101168 0.0117756 0.0453087 
-0.000522249 0.0116644 0.0454674 
0.00177309 0.0121857 0.044723 
0.00199722 0.0124589 0.0443328 
0.00209586 0.0127555 0.0439092 
0.0020628 0.0130568 0.0434789 
0.00190014 0.0133439 0.0430688 
0.00161808 0.0135989 0.0427047 
0.00123435 0.0138056 0.0424095 
0.000773062 0.013951 0.0422018 
0.0002632 0.0140261 0.0420946 
-0.0002632 0.0140261 0.0420946 
-0.000773062 0.013951 0.0422018 
-0.00123435 0.0138056 0.0424095 
-0.00161808 0.0135989 0.0427047 
-0.00190014 0.0133439 0.0430688 
-0.0020628 0.0130568 0.0434789 
-0.00199722 0.032534 0.0156625 
-0.00177309 0.0322609 0.0160526 
-0.00143755 0.0320282 0.0163849 
-5.85441e-15 0.0317018 0.0168511 
0.000522249 0.0317396 0.0167971 
0.00101168 0.0318507 0.0166383 
-0.00101168 0.0318507 0.0166383 
-0.000522249 0.0317396 0.0167971 
0.00143755 0.0320282 0.0163849 
0.00177309 0.0322609 0.0160526 
0.00199722 0.032534 0.0156625 
0.00209586 0.0328306 0.0152389 
0.0020628 0.033132 0.0148086 
0.00190014 0.0334191 0.0143985 
0.00161808 0.033674 0.0140344 
0.00123435 0.0338807 0.0137392 
0.000773062 0.0340262 0.0135315 
0.0002632 0.0341013 0.0134243 
-0.0002632 0.0341013 0.0134243 
-0.000773062 0.0340262 0.0135315 
-0.00123435 0.0338807 0.0137392 
-0.00161808 0.033674 0.0140344 
-0.00190014 0.0334191 0.0143985 
-0.0020628 0.033132 0.0148086 
-0.00209586 0.0328306 0.0152389 
3 0 1 2 
3 3 0 2 
3 1 4 5 
3 4 6 5 
3 6 7 5 
3 7 8 5 
3 1 5 9 
3 9 10 11 
3 2 1 12 
3 13 2 12 
3 12 1 14 
3 1 9 14 
3 9 11 14 
3 15 12 14 
3 16 14 11 
3 16 15 14 
3 17 11 10 
3 17 16 11 
3 18 10 9 
3 18 17 10 
3 19 9 5 
3 19 18 9 
3 20 5 8 
3 20 19 5 
3 21 8 7 
3 21 20 8 
3 22 7 6 
3 22 21 7 
3 23 6 4 
3 23 22 6 
3 24 4 1 
3 24 23 4 
3 0 24 1 
3 3 25 26 
3 27 3 2 
3 27 25 3 
3 28 27 2 
3 15 0 3 
3 15 3 29 
3 15 24 0 
3 15 23 24 
3 15 22 23 
3 15 21 22 
3 15 20 21 
3 15 19 20 
3 15 18 19 
3 15 17 18 
3 16 17 15 
3 28 2 30 
3 31 32 33 
3 31 33 34 
3 35 36 37 
3 31 34 38 
3 31 39 40 
3 31 40 41 
3 31 41 32 
3 31 28 39 
3 42 13 43 
3 44 36 35 
3 45 43 13 
3 44 46 36 
3 47 31 48 
3 49 13 42 
3 50 35 37 
3 51 52 28 
3 50 37 53 
3 54 13 55 
3 56 51 28 
3 56 28 31 
3 56 31 47 
3 57 46 44 
3 54 45 13 
3 57 13 46 
3 58 13 49 
3 59 53 60 
3 61 54 55 
3 59 50 53 
3 62 13 58 
3 63 60 64 
3 63 59 60 
3 65 61 55 
3 46 13 62 
3 66 55 67 
3 68 64 69 
3 68 63 64 
3 70 65 55 
3 71 69 72 
3 71 68 69 
3 73 70 55 
3 2 13 57 
3 2 57 74 
3 2 74 75 
3 2 75 76 
3 2 76 77 
3 78 72 79 
3 78 71 72 
3 80 66 81 
3 82 2 77 
3 34 83 38 
3 34 79 83 
3 34 78 79 
3 84 2 82 
3 30 2 84 
3 38 80 85 
3 38 66 80 
3 38 86 87 
3 38 87 88 
3 38 88 73 
3 38 55 66 
3 38 73 55 
3 89 86 38 
3 83 89 38 
3 28 30 90 
3 28 90 91 
3 28 91 92 
3 28 92 39 
3 29 93 94 
3 29 13 95 
3 93 29 95 
3 95 13 96 
3 29 94 97 
3 94 96 98 
3 97 94 98 
3 97 99 15 
3 29 97 15 
3 100 98 12 
3 99 100 12 
3 15 99 12 
3 96 13 12 
3 98 96 12 
3 101 102 103 
3 104 105 106 
3 107 103 105 
3 107 101 103 
3 107 105 104 
3 108 107 104 
3 109 108 104 
3 110 107 108 
3 111 109 104 
3 112 107 110 
3 113 111 104 
3 114 107 112 
3 115 113 104 
3 116 107 114 
3 117 115 104 
3 118 107 116 
3 119 117 104 
3 120 118 121 
3 122 123 119 
3 124 121 125 
3 124 120 121 
3 126 119 104 
3 126 122 119 
3 127 107 118 
3 127 118 120 
3 128 129 123 
3 128 123 122 
3 130 125 131 
3 130 124 125 
3 132 133 129 
3 132 129 128 
3 134 126 104 
3 134 135 126 
3 136 107 127 
3 136 127 137 
3 138 131 139 
3 138 130 131 
3 140 135 134 
3 141 136 137 
3 142 143 133 
3 142 133 132 
3 144 139 145 
3 144 138 139 
3 146 140 134 
3 147 136 141 
3 148 143 142 
3 148 149 143 
3 150 145 151 
3 150 144 145 
3 152 146 134 
3 153 134 154 
3 155 136 147 
3 156 157 149 
3 156 149 148 
3 158 151 159 
3 158 150 151 
3 160 152 134 
3 161 136 155 
3 162 159 157 
3 162 158 159 
3 162 157 156 
3 163 164 165 
3 166 134 153 
3 167 168 169 
3 167 166 168 
3 167 170 160 
3 167 171 170 
3 167 172 171 
3 167 173 172 
3 167 134 166 
3 167 160 134 
3 27 165 136 
3 27 174 163 
3 27 175 174 
3 27 136 161 
3 27 163 165 
3 27 176 177 
3 27 178 176 
3 27 179 178 
3 27 161 179 
3 180 173 167 
3 181 27 177 
3 182 180 167 
3 183 27 181 
3 184 162 185 
3 184 158 162 
3 184 186 158 
3 187 185 188 
3 187 184 185 
3 189 186 184 
3 189 190 186 
3 191 187 188 
3 191 188 192 
3 193 190 189 
3 193 194 190 
3 195 192 196 
3 195 191 192 
3 197 194 193 
3 197 198 194 
3 199 195 196 
3 199 196 200 
3 201 198 197 
3 201 202 198 
3 203 199 200 
3 203 200 204 
3 205 202 201 
3 205 206 202 
3 207 203 204 
3 207 204 182 
3 208 206 205 
3 208 183 206 
3 209 207 182 
3 210 183 208 
3 210 27 183 
3 211 182 167 
3 211 212 209 
3 211 213 212 
3 211 214 213 
3 211 215 214 
3 211 216 215 
3 211 217 216 
3 211 209 182 
3 25 217 211 
3 25 27 210 
3 25 218 217 
3 25 219 218 
3 25 220 219 
3 25 221 220 
3 25 210 221 
3 222 211 223 
3 222 25 211 
3 224 225 25 
3 224 25 222 
3 226 224 222 
3 27 28 52 
3 175 27 52 
3 174 52 51 
3 174 175 52 
3 163 56 47 
3 163 51 56 
3 163 174 51 
3 164 163 47 
3 165 47 48 
3 165 164 47 
3 136 48 31 
3 136 165 48 
3 26 25 225 
3 227 26 225 
3 228 225 224 
3 228 227 225 
3 229 224 226 
3 229 228 224 
3 230 226 222 
3 230 229 226 
3 231 223 211 
3 231 222 223 
3 231 230 222 
3 232 231 211 
3 233 234 235 
3 236 235 237 
3 236 237 238 
3 239 240 241 
3 3 242 29 
3 3 243 244 
3 3 245 242 
3 3 244 245 
3 3 246 247 
3 3 247 248 
3 249 241 250 
3 3 248 251 
3 3 251 252 
3 3 252 253 
3 3 253 243 
3 249 239 241 
3 232 234 233 
3 3 26 246 
3 232 233 254 
3 255 250 256 
3 232 249 234 
3 255 249 250 
3 257 236 238 
3 257 238 258 
3 259 249 255 
3 260 249 259 
3 261 259 255 
3 262 232 254 
3 263 249 260 
3 264 258 265 
3 266 261 255 
3 264 257 258 
3 267 249 263 
3 268 232 262 
3 269 266 255 
3 270 264 265 
3 270 265 271 
3 272 249 267 
3 273 232 268 
3 274 249 272 
3 275 270 271 
3 275 271 276 
3 234 249 274 
3 277 232 273 
3 29 278 279 
3 29 279 269 
3 229 231 232 
3 229 230 231 
3 29 269 255 
3 280 276 281 
3 282 278 29 
3 280 275 276 
3 283 232 277 
3 284 282 29 
3 245 281 242 
3 245 280 281 
3 285 284 29 
3 286 285 29 
3 287 286 29 
3 26 228 229 
3 242 287 29 
3 26 227 228 
3 26 229 232 
3 26 283 288 
3 26 288 289 
3 26 289 246 
3 26 232 283 
3 235 234 237 
3 31 38 107 
3 136 31 107 
3 101 38 85 
3 101 107 38 
3 102 85 80 
3 102 101 85 
3 103 80 81 
3 103 102 80 
3 105 81 66 
3 105 103 81 
3 106 66 67 
3 106 67 55 
3 106 105 66 
3 104 106 55 
3 255 134 29 
3 13 29 104 
3 29 134 104 
3 13 104 55 
3 72 69 125 
3 69 131 125 
3 79 72 121 
3 72 125 121 
3 86 114 112 
3 87 86 112 
3 83 79 118 
3 79 121 118 
3 88 87 110 
3 87 112 110 
3 89 83 116 
3 83 118 116 
3 86 89 114 
3 89 116 114 
3 73 88 108 
3 70 73 108 
3 88 110 108 
3 65 70 109 
3 70 108 109 
3 61 65 111 
3 65 109 111 
3 54 61 113 
3 61 111 113 
3 45 54 115 
3 54 113 115 
3 43 45 117 
3 45 115 117 
3 42 43 119 
3 43 117 119 
3 49 42 123 
3 42 119 123 
3 58 49 129 
3 49 123 129 
3 58 129 133 
3 62 58 133 
3 62 133 143 
3 46 62 143 
3 46 143 149 
3 36 46 149 
3 36 149 157 
3 37 36 157 
3 37 157 159 
3 53 37 151 
3 37 159 151 
3 60 53 145 
3 53 151 145 
3 64 60 139 
3 60 145 139 
3 69 64 131 
3 64 139 131 
3 92 91 178 
3 91 176 178 
3 92 178 179 
3 39 92 161 
3 92 179 161 
3 32 141 137 
3 33 32 137 
3 40 39 155 
3 39 161 155 
3 34 33 127 
3 33 137 127 
3 41 40 147 
3 40 155 147 
3 78 34 120 
3 32 41 141 
3 41 147 141 
3 34 127 120 
3 71 78 124 
3 78 120 124 
3 68 71 130 
3 71 124 130 
3 63 68 138 
3 68 130 138 
3 59 63 144 
3 63 138 144 
3 50 59 150 
3 59 144 150 
3 35 50 158 
3 44 35 158 
3 50 150 158 
3 57 44 186 
3 44 158 186 
3 74 57 190 
3 57 186 190 
3 74 190 194 
3 75 74 194 
3 75 194 198 
3 76 75 198 
3 76 198 202 
3 77 76 202 
3 77 202 206 
3 82 77 206 
3 84 82 183 
3 82 206 183 
3 30 84 181 
3 84 183 181 
3 90 30 177 
3 30 181 177 
3 91 90 176 
3 90 177 176 
3 97 290 291 
3 99 97 291 
3 99 291 292 
3 293 99 292 
3 294 292 291 
3 295 294 291 
3 296 99 293 
3 100 296 294 
3 100 99 296 
3 100 294 295 
3 98 100 295 
3 98 295 297 
3 98 297 298 
3 299 98 298 
3 300 298 297 
3 290 300 297 
3 97 301 300 
3 97 299 301 
3 97 98 299 
3 97 300 290 
3 93 302 303 
3 94 93 303 
3 304 94 303 
3 304 303 305 
3 306 305 303 
3 307 306 303 
3 308 306 307 
3 96 304 308 
3 96 94 304 
3 96 308 307 
3 95 96 307 
3 95 307 309 
3 310 95 309 
3 310 309 311 
3 302 312 311 
3 302 311 309 
3 313 95 310 
3 313 312 302 
3 93 95 313 
3 93 313 302 
3 239 167 169 
3 239 249 167 
3 240 169 168 
3 240 239 169 
3 241 168 166 
3 241 240 168 
3 250 166 153 
3 250 241 166 
3 256 153 154 
3 256 154 134 
3 256 250 153 
3 255 256 134 
3 211 167 249 
3 232 211 249 
3 276 271 185 
3 271 188 185 
3 281 276 162 
3 276 185 162 
3 286 142 132 
3 285 286 132 
3 242 281 156 
3 281 162 156 
3 284 285 128 
3 285 132 128 
3 287 242 148 
3 242 156 148 
3 286 287 142 
3 287 148 142 
3 282 284 122 
3 278 282 122 
3 284 128 122 
3 279 278 126 
3 278 122 126 
3 269 279 135 
3 279 126 135 
3 266 269 140 
3 269 135 140 
3 261 266 146 
3 266 140 146 
3 259 261 152 
3 261 146 152 
3 260 259 160 
3 259 152 160 
3 263 260 170 
3 260 160 170 
3 267 263 171 
3 263 170 171 
3 267 171 172 
3 272 267 172 
3 272 172 173 
3 274 272 173 
3 274 173 180 
3 234 274 180 
3 234 180 182 
3 237 234 182 
3 237 182 204 
3 238 237 200 
3 237 204 200 
3 258 238 196 
3 238 200 196 
3 265 258 192 
3 258 196 192 
3 271 265 188 
3 265 192 188 
3 246 220 221 
3 248 247 210 
3 247 221 210 
3 251 248 208 
3 248 210 208 
3 243 197 193 
3 244 243 193 
3 252 251 205 
3 251 208 205 
3 245 244 189 
3 244 193 189 
3 253 252 201 
3 252 205 201 
3 243 253 197 
3 280 245 184 
3 253 201 197 
3 275 280 184 
3 245 189 184 
3 270 275 187 
3 275 184 187 
3 264 270 191 
3 270 187 191 
3 257 264 195 
3 264 191 195 
3 236 257 199 
3 257 195 199 
3 235 236 203 
3 236 199 203 
3 233 235 207 
3 235 203 207 
3 254 233 209 
3 233 207 209 
3 262 254 212 
3 254 209 212 
3 262 212 213 
3 268 262 213 
3 268 213 214 
3 273 268 214 
3 273 214 215 
3 277 273 215 
3 277 215 216 
3 283 277 216 
3 283 216 217 
3 288 283 218 
3 283 217 218 
3 289 288 219 
3 288 218 219 
3 246 289 220 
3 289 219 220 
3 247 246 221 
3 314 290 315 
3 290 314 316 
3 315 290 317 
3 290 316 318 
3 317 290 319 
3 291 290 320 
3 290 318 320 
3 291 320 321 
3 291 321 322 
3 291 322 323 
3 291 323 324 
3 291 324 325 
3 326 319 297 
3 327 326 297 
3 328 327 297 
3 329 328 297 
3 330 329 297 
3 331 330 297 
3 319 290 297 
3 291 325 332 
3 331 297 333 
3 334 333 295 
3 335 334 295 
3 336 335 295 
3 337 336 295 
3 338 337 295 
3 332 338 295 
3 291 332 295 
3 333 297 295 
3 339 340 298 
3 341 298 340 
3 342 339 298 
3 343 298 341 
3 344 342 298 
3 345 298 343 
3 300 346 347 
3 300 347 344 
3 300 344 298 
3 348 346 300 
3 349 348 300 
3 350 349 300 
3 294 345 351 
3 294 351 352 
3 294 352 353 
3 294 353 354 
3 294 298 345 
3 355 294 354 
3 356 350 300 
3 357 294 355 
3 358 356 300 
3 292 357 359 
3 292 359 360 
3 292 360 361 
3 292 361 362 
3 292 362 363 
3 292 363 358 
3 292 294 357 
3 292 358 300 
3 294 296 299 
3 294 299 298 
3 364 365 301 
3 366 301 365 
3 367 364 301 
3 368 301 366 
3 369 367 301 
3 370 301 368 
3 299 371 369 
3 299 372 371 
3 299 369 301 
3 373 372 299 
3 374 373 299 
3 375 374 299 
3 293 376 377 
3 293 378 376 
3 293 379 378 
3 293 370 379 
3 293 301 370 
3 380 293 377 
3 381 375 299 
3 382 293 380 
3 383 381 299 
3 296 384 383 
3 296 385 384 
3 296 386 385 
3 296 387 386 
3 296 388 387 
3 296 382 388 
3 296 293 382 
3 296 383 299 
3 292 300 301 
3 293 292 301 
3 389 302 390 
3 302 389 391 
3 390 302 392 
3 302 391 393 
3 392 302 394 
3 303 302 395 
3 302 393 395 
3 303 395 396 
3 303 396 397 
3 303 397 398 
3 303 398 399 
3 303 399 400 
3 401 394 309 
3 402 401 309 
3 403 402 309 
3 404 403 309 
3 405 404 309 
3 406 405 309 
3 394 302 309 
3 303 400 407 
3 406 309 408 
3 409 408 307 
3 410 409 307 
3 411 410 307 
3 412 411 307 
3 413 412 307 
3 407 413 307 
3 303 407 307 
3 408 309 307 
3 414 306 415 
3 306 414 416 
3 415 306 417 
3 306 416 418 
3 417 306 419 
3 306 418 420 
3 420 421 305 
3 306 420 305 
3 305 421 422 
3 305 422 423 
3 305 423 424 
3 425 426 311 
3 426 427 311 
3 427 428 311 
3 428 419 311 
3 419 306 311 
3 425 311 429 
3 305 424 430 
3 429 311 431 
3 305 430 432 
3 432 433 312 
3 433 434 312 
3 434 435 312 
3 435 436 312 
3 436 437 312 
3 437 438 312 
3 438 431 312 
3 431 311 312 
3 305 432 312 
3 306 308 310 
3 306 310 311 
3 439 304 440 
3 304 439 441 
3 440 304 442 
3 304 441 443 
3 442 304 444 
3 304 443 445 
3 445 446 308 
3 304 445 308 
3 308 446 447 
3 308 447 448 
3 308 448 449 
3 450 444 313 
3 451 450 313 
3 452 451 313 
3 453 452 313 
3 444 304 313 
3 453 313 454 
3 308 449 455 
3 454 313 456 
3 308 455 457 
3 458 456 310 
3 459 458 310 
3 460 459 310 
3 461 460 310 
3 462 461 310 
3 463 462 310 
3 457 463 310 
3 456 313 310 
3 308 457 310 
3 305 312 313 
3 304 305 313 
3 351 345 334 
3 351 334 335 
3 352 351 335 
3 353 352 335 
3 353 335 336 
3 357 332 325 
3 359 357 325 
3 360 359 325 
3 353 336 337 
3 354 353 337 
3 361 360 324 
3 360 325 324 
3 354 337 338 
3 355 354 338 
3 357 355 338 
3 362 361 323 
3 361 324 323 
3 357 338 332 
3 363 362 322 
3 362 323 322 
3 358 363 321 
3 363 322 321 
3 356 358 320 
3 358 321 320 
3 350 356 318 
3 356 320 318 
3 349 350 316 
3 350 318 316 
3 349 316 314 
3 348 349 315 
3 346 348 315 
3 349 314 315 
3 346 315 317 
3 346 317 319 
3 347 346 319 
3 344 347 319 
3 344 319 326 
3 344 326 327 
3 342 344 327 
3 342 327 328 
3 339 342 328 
3 339 328 329 
3 340 339 329 
3 340 329 330 
3 341 340 330 
3 343 341 330 
3 343 330 331 
3 343 331 333 
3 345 343 333 
3 345 333 334 
3 464 383 384 
3 465 464 384 
3 466 465 384 
3 466 384 385 
3 467 382 380 
3 466 385 386 
3 468 467 380 
3 469 468 380 
3 470 466 386 
3 471 469 377 
3 472 470 387 
3 469 380 377 
3 470 386 387 
3 472 387 388 
3 471 377 376 
3 473 472 388 
3 467 473 382 
3 473 388 382 
3 474 471 378 
3 471 376 378 
3 475 474 379 
3 476 475 379 
3 474 378 379 
3 476 379 370 
3 477 476 368 
3 478 477 368 
3 476 370 368 
3 478 368 366 
3 479 478 365 
3 478 366 365 
3 480 479 364 
3 481 480 364 
3 479 365 364 
3 481 364 367 
3 481 367 369 
3 482 481 369 
3 482 369 371 
3 483 482 371 
3 484 483 371 
3 484 371 372 
3 484 372 373 
3 485 484 373 
3 485 373 374 
3 486 485 374 
3 487 486 374 
3 487 374 375 
3 487 375 381 
3 488 487 381 
3 488 381 383 
3 464 488 383 
3 419 408 409 
3 417 419 409 
3 421 420 407 
3 417 409 410 
3 415 417 410 
3 414 415 410 
3 421 407 400 
3 414 410 411 
3 416 414 411 
3 422 421 399 
3 421 400 399 
3 416 411 412 
3 423 422 398 
3 418 416 413 
3 422 399 398 
3 416 412 413 
3 420 418 407 
3 418 413 407 
3 424 423 397 
3 423 398 397 
3 430 424 396 
3 432 430 396 
3 424 397 396 
3 432 396 395 
3 433 432 393 
3 434 433 393 
3 432 395 393 
3 434 393 391 
3 435 434 389 
3 434 391 389 
3 436 435 390 
3 437 436 390 
3 435 389 390 
3 437 390 392 
3 437 392 394 
3 438 437 394 
3 438 394 401 
3 431 438 401 
3 431 401 402 
3 429 431 402 
3 429 402 403 
3 425 429 403 
3 425 403 404 
3 426 425 404 
3 426 404 405 
3 427 426 405 
3 427 405 406 
3 428 427 406 
3 419 428 406 
3 419 406 408 
3 489 457 455 
3 489 455 449 
3 490 489 449 
3 491 490 449 
3 492 445 443 
3 493 492 443 
3 491 449 448 
3 494 493 441 
3 491 448 447 
3 493 443 441 
3 495 491 447 
3 496 495 447 
3 492 496 446 
3 497 494 439 
3 496 447 446 
3 494 441 439 
3 492 446 445 
3 498 497 440 
3 497 439 440 
3 499 498 442 
3 498 440 442 
3 500 499 444 
3 501 500 444 
3 499 442 444 
3 501 444 450 
3 502 501 451 
3 501 450 451 
3 503 502 452 
3 504 503 452 
3 502 451 452 
3 504 452 453 
3 505 504 454 
3 504 453 454 
3 505 454 456 
3 506 505 456 
3 507 506 456 
3 507 456 458 
3 507 458 459 
3 508 507 459 
3 508 459 460 
3 509 508 460 
3 509 460 461 
3 510 509 461 
3 510 461 462 
3 511 510 462 
3 512 511 462 
3 512 462 463 
3 512 463 457 
3 513 512 457 
3 489 513 457 
3 469 471 474 
3 468 469 474 
3 477 474 475 
3 477 475 476 
3 477 468 474 
3 473 467 468 
3 479 477 478 
3 479 472 473 
3 479 473 468 
3 479 468 477 
3 470 472 479 
3 466 470 479 
3 481 479 480 
3 481 466 479 
3 464 481 482 
3 464 465 466 
3 464 466 481 
3 483 464 482 
3 484 464 483 
3 486 484 485 
3 486 487 488 
3 486 488 464 
3 486 464 484 
3 494 497 498 
3 501 498 499 
3 501 499 500 
3 496 492 493 
3 503 501 502 
3 503 498 501 
3 505 493 494 
3 505 503 504 
3 505 494 498 
3 505 496 493 
3 505 498 503 
3 513 489 490 
3 507 505 506 
3 507 495 496 
3 507 496 505 
3 512 513 490 
3 508 490 491 
3 508 491 495 
3 508 495 507 
3 508 512 490 
3 509 511 512 
3 509 512 508 
3 510 511 509 
